# Blender 4.2.1 LTS
# www.blender.org
mtllib barrel.mtl
o Barrel
v 0.454396 0.042022 0.259472
v 0.391448 0.040780 -0.400915
v -0.255946 0.027990 -0.545108
v -0.593111 0.021330 0.026163
v -0.154096 0.030002 0.523422
v 0.424529 1.554064 0.259473
v 0.361582 1.552821 -0.400915
v -0.285814 1.540033 -0.545108
v -0.622979 1.533374 0.026163
v -0.183963 1.542045 0.523422
vn 0.9953 0.0197 -0.0949
vn 0.2173 0.0043 -0.9761
vn -0.8610 -0.0170 -0.5084
vn -0.7494 -0.0148 0.6619
vn 0.3978 0.0079 0.9174
vn 0.0198 -0.9998 -0.0000
vn 0.0197 -0.9998 -0.0000
vn -0.0197 0.9998 -0.0000
vt 0.991400 0.014400
vt 0.991400 0.990100
vt 0.489900 0.990100
vt 0.489900 0.014400
vt 0.009400 0.799600
vt 0.297800 0.986100
vt 0.476000 0.498000
vt 0.009400 0.196300
vt 0.297800 0.009900
s 0
usemtl barrel
f 1/1/1 2/2/1 7/3/1
f 7/3/1 6/4/1 1/1/1
f 2/2/2 3/1/2 8/4/2
f 8/4/2 7/3/2 2/2/2
f 3/2/3 4/1/3 9/4/3
f 9/4/3 8/3/3 3/2/3
f 4/1/4 5/2/4 10/3/4
f 10/3/4 9/4/4 4/1/4
f 5/2/5 1/1/5 6/4/5
f 6/4/5 10/3/5 5/2/5
f 3/5/6 2/6/6 1/7/6
f 4/8/7 3/5/7 1/7/7
f 5/9/7 4/8/7 1/7/7
f 8/5/8 9/8/8 10/9/8
f 7/6/8 8/5/8 10/9/8
f 6/7/8 7/6/8 10/9/8
