mtllib ruin.mtl
o Ruin2
v 11.912416 -0.745279 9.722603
v 11.889358 -0.745279 -4.066419
v 11.895826 -0.745279 -14.385026
v 5.790195 -0.755254 14.371152
v 5.790197 -0.755254 -14.385027
v -9.213009 -0.755254 14.371151
v -9.213007 -0.755254 -14.385028
v 10.470101 2.397258 8.803509
v 11.889358 4.405161 -4.061185
v 11.895826 4.405161 -14.379841
v 5.790195 4.395186 14.376337
v 5.783777 4.343931 -3.947268
v 5.790197 4.395186 -14.379842
v -9.213009 4.395186 14.376336
v -9.219478 4.395186 -4.061186
v -9.213007 4.395186 -14.379843
v 5.783777 11.910836 -4.059457
v 8.172738 6.433310 -4.059457
v 11.896617 8.274657 -14.378064
v 5.790197 11.910836 -14.378065
v -9.213007 11.910836 -14.378066
v -9.219478 11.910836 -4.059458
v 5.790195 11.910836 14.378065
v -11.912417 -0.755254 -4.066421
v -11.905950 -0.755254 14.371151
v -11.893555 1.868950 12.399196
v -11.899974 2.730419 -4.061187
v -11.893553 2.730419 -14.379843
v -11.905948 -0.755254 -14.385028
v 11.889900 -0.773919 -4.823747
v 11.895332 -0.773919 -13.500993
v 11.895332 4.393359 -13.499166
v 11.895926 7.419756 -13.494029
v 9.205898 6.114271 -4.816785
v 11.889900 4.394545 -4.821920
v 9.637323 -0.764932 -4.877373
v 9.596734 -0.764932 -13.518027
v 9.603895 4.393359 -13.516299
v 9.597821 8.390550 -13.511707
v 6.789235 5.657810 -4.871053
v 9.644533 4.395186 -4.875644
v 5.605122 6.396374 14.264987
v 5.641615 6.356969 -13.667351
v -8.725687 6.396374 13.266293
v -8.725685 6.396374 -13.727496
v -9.214244 8.883996 10.857332
v -9.214244 12.083120 9.699935
v -5.996997 8.883996 14.377373
v -9.213009 8.092646 13.272960
v -5.996997 11.910836 14.378065
v -9.219478 4.395186 -4.061186
v -9.213009 4.395186 14.376336
v 5.790195 4.395186 14.376337
v -8.540465 4.395285 -4.608307
v -8.534046 4.395285 13.829265
v 4.979439 4.427826 13.829266
v 5.242780 11.702457 -13.406580
v 5.236657 11.702457 -3.654104
v 5.241841 4.534880 -3.596627
v 5.242780 4.599172 -13.408259
v -8.937324 4.599172 -13.408260
v -8.937324 11.702457 -13.406581
v -8.943398 4.599172 -3.655735
v -8.943398 11.702457 -3.654105
v 5.242778 4.599172 13.770208
v 5.242778 11.702457 13.771887
v -8.753093 8.551279 10.711911
v -8.938461 11.865310 9.350381
v -8.937325 4.599172 13.770207
v -8.654186 8.093781 12.719913
v -5.897745 8.841727 13.771195
v -5.897745 11.702457 13.771887
v -1.822188 15.279036 -4.059458
v -1.815719 16.968790 -12.282711
v -1.815721 17.833418 10.834125
v -10.197134 11.712135 -16.325577
v -10.203603 11.712135 -4.059459
v 6.165674 11.712135 15.289603
v 2.951637 14.081100 -4.463083
v 1.638498 14.840944 4.399038
v 6.065633 11.950538 -5.960998
v 6.835255 11.712135 6.821380
v 2.951637 13.186992 -4.463083
v 1.638498 13.946836 4.399038
v -10.198864 11.712135 10.053835
v -7.251770 13.520497 10.857332
v -5.996997 13.520497 14.902768
v -5.996997 11.712135 16.325577
v -5.486071 14.587778 13.957454
v -1.815719 15.777322 -12.282711
v -7.251770 13.113466 10.857332
v -5.996997 13.113466 14.902768
v -5.486071 14.180745 13.957454
vn 0.3899 0.9209 -0.0027
vn -0.0070 0.9881 0.1534
vn 0.9166 0.3998 0.0006
vn 0.4847 0.8140 0.3202
vn 0.8766 0.4512 0.1671
vn 1.0000 -0.0000 -0.0017
vn 1.0000 -0.0014 -0.0047
vn -0.0000 0.0010 -1.0000
vn -1.0000 0.0036 -0.0006
vn -1.0000 0.0036 0.0006
vn -1.0000 0.0050 0.0004
vn -0.0000 -0.0010 1.0000
vn 0.7657 -0.0006 0.6432
vn 0.5382 0.4546 0.7097
vn 0.0183 0.0327 0.9993
vn 1.0000 0.0015 -0.0047
vn 0.3733 0.8427 0.3879
vn -0.0000 0.0002 -1.0000
vn 0.0003 0.0005 -1.0000
vn -1.0000 -0.0000 -0.0006
vn 1.0000 -0.0000 -0.0004
vn 1.0000 -0.0000 -0.0003
vn -0.5931 -0.0008 0.8051
vn -0.0000 0.6007 0.7994
vn -0.5276 0.8495 0.0002
vn -0.6999 0.7132 0.0376
vn -0.5276 0.8495 -0.0003
vn -0.0009 0.0015 -1.0000
vn -1.0000 -0.0021 -0.0006
vn -1.0000 -0.0024 -0.0006
vn 1.0000 -0.0000 0.0006
vn 1.0000 -0.0002 0.0006
vn 0.4860 0.8131 0.3205
vn 0.8846 0.3350 0.3246
vn 0.4790 0.8777 -0.0119
vn 0.5044 0.7862 0.3570
vn 1.0000 -0.0000 0.0007
vn -0.0075 -0.0004 1.0000
vn -0.0074 -0.0003 1.0000
vn -0.0084 -0.0017 1.0000
vn -0.0075 -0.0012 1.0000
vn 0.0239 0.0403 -0.9989
vn 0.0152 0.0381 -0.9992
vn 0.0238 0.0004 -0.9997
vn 0.0239 0.0003 -0.9997
vn 0.0027 1.0000 -0.0014
vn -0.0000 1.0000 -0.0000
vn 0.0340 0.0148 0.9993
vn -1.0000 0.0001 0.0004
vn -1.0000 -0.0000 0.0004
vn -1.0000 0.0002 0.0006
vn -0.3709 0.2656 0.8899
vn -0.0000 -0.0002 1.0000
vn -0.0001 1.0000 -0.0000
vn -0.0000 0.9982 0.0596
vn -0.0024 1.0000 -0.0028
vn -1.0000 -0.0007 -0.0006
vn -0.9960 -0.0718 -0.0525
vn -1.0000 -0.0007 0.0001
vn 0.9985 0.0554 -0.0011
vn 0.9999 -0.0000 -0.0132
vn 0.9989 -0.0468 -0.0003
vn 0.9922 -0.1021 -0.0721
vn 0.4091 -0.2929 -0.8642
vn -0.9869 -0.0000 -0.1616
vn -0.1773 0.9681 -0.1772
vn -0.2233 0.9692 -0.1041
vn 0.6089 0.7794 0.1476
vn 0.5031 0.3524 0.7892
vn 0.8251 0.1922 0.5312
vn -0.0000 0.9457 -0.3251
vn 0.6155 0.7881 -0.0056
vn 0.6154 0.7882 -0.0056
vn -0.0000 0.9778 0.2097
vn -0.3558 0.9346 -0.0000
vn -0.3916 0.9201 -0.0002
vn -0.5796 0.7983 0.1636
vn -0.6191 0.7808 0.0838
vn -0.6164 0.7762 -0.1329
vn -0.3914 0.9196 -0.0340
vn -0.5230 0.8523 0.0002
vn 0.0651 0.6413 0.7645
vn 0.1259 0.6134 0.7797
vn 0.0900 0.6358 0.7665
vn 0.2542 0.9473 0.1949
vn 0.5543 0.8318 -0.0308
vn 0.5018 0.8641 0.0397
vn 0.6195 0.7843 -0.0322
vn 0.4335 -0.0000 0.9012
vn 0.9892 -0.0000 0.1466
vn 0.4225 -0.0000 -0.9064
vn 0.4741 0.8678 -0.1490
vn 0.2393 0.9698 -0.0477
vn 0.6257 -0.0000 -0.7801
vn 0.4345 -0.0000 -0.9007
vn -1.0000 -0.0000 -0.0000
vn -0.8797 -0.0000 -0.4755
vn -0.8689 -0.0000 0.4949
vn -0.2630 -0.0000 0.9648
vn 0.2926 0.9088 0.2976
vt 0.500000 0.527800
vt 0.997200 0.529100
vt 0.861900 0.985600
vt 0.499300 0.986200
vt 1.000000 0.995200
vt 0.500000 0.995200
vt 0.500000 0.522100
vt 1.000000 0.522100
vt 0.494200 1.003800
vt 0.216900 1.003800
vt 0.216900 0.798500
vt 0.494200 0.798500
vt 0.495400 0.230300
vt 0.762700 0.230200
vt 0.762700 0.520100
vt 0.495400 0.520100
vt 0.992400 0.208200
vt 0.768600 0.207400
vt 0.769600 0.012300
vt 0.993300 0.013100
vt 0.489100 0.330700
vt 0.003500 0.324400
vt 0.004700 0.016900
vt 0.490300 0.023300
vt 0.250600 1.000000
vt 0.000000 1.000000
vt 0.000000 0.794800
vt 0.250600 0.794800
vt 0.501200 1.000000
vt 0.501200 0.794800
vt 0.005000 0.316700
vt 0.467700 0.317500
vt 0.467800 0.013100
vt 0.005200 0.012300
vt 0.495200 0.995300
vt 0.220000 0.995300
vt 0.220000 0.787000
vt 0.495200 0.787000
vt 0.768900 0.253900
vt 0.995800 0.013500
vt 0.769000 0.017200
vt 0.495600 0.005700
vt 0.762800 0.005700
vt 0.991000 0.493000
vt 0.767900 0.354000
vt 0.487400 0.779300
vt 0.001800 0.773000
vt 0.005100 0.369100
vt 0.270600 0.367800
vt 0.270800 0.781700
vt 0.005300 0.783000
vt 0.478500 0.334300
vt 0.007300 0.330800
vt 0.003100 0.754300
vt 0.477200 0.754900
vt 0.408000 0.804400
vt 0.408000 0.988400
vt 0.497400 0.928900
vt 0.497800 0.804400
vt 0.990200 0.994700
vt 0.674800 0.995800
vt 0.674300 0.527900
vt 0.990200 0.528400
vt 0.499600 0.995600
vt 0.500100 0.527600
vt 0.410600 0.992500
vt 0.411600 0.805600
vt 0.493800 0.806200
vt 0.492700 0.932700
vt 0.500000 0.000000
vt 1.000000 0.000000
vt 0.998000 0.014200
vt 0.998600 0.295400
vt 0.978900 0.295000
vt 0.978200 0.013000
vt 0.999200 0.506600
vt 0.979200 0.460200
vt 0.767800 0.510300
vt 0.784600 0.463400
vt 0.767200 0.299100
vt 0.784300 0.298300
vt 0.766600 0.018000
vt 0.783600 0.016100
vt 0.983800 0.024900
vt 0.983800 0.293400
vt 0.923700 0.293400
vt 0.923500 0.025300
vt 0.983800 0.450600
vt 0.923500 0.501100
vt 0.982500 0.451000
vt 0.982500 0.295100
vt 0.927400 0.295100
vt 0.927200 0.501100
vt 0.982500 0.028700
vt 0.927200 0.029200
vt 0.505400 0.283500
vt 0.741900 0.283500
vt 0.741900 0.333000
vt 0.505400 0.333000
vt 0.995700 0.476400
vt 0.399000 0.601900
vt 0.398700 0.768200
vt 0.003500 0.768000
vt 0.004200 0.355000
vt 0.492700 0.355300
vt 0.492200 0.602000
vt 0.368400 0.593400
vt 0.467500 0.593600
vt 0.004800 0.778900
vt 0.368300 0.779600
vt 0.745300 0.626600
vt 0.994900 0.527200
vt 0.810400 0.526000
vt 0.810200 0.987900
vt 0.933900 0.988200
vt 0.586000 0.686300
vt 0.525100 0.686300
vt 0.564300 0.983200
vt 0.586100 0.525100
vt 0.999100 0.654900
vt 0.999100 0.989300
vt 0.842000 0.763900
vt 0.943800 0.654900
vt 0.943800 0.622500
vt 0.934000 0.973700
vt 0.811700 0.978600
vt 0.816700 0.736500
vt 0.838200 0.539100
vt 0.506700 0.550100
vt 0.648100 0.545400
vt 0.685100 0.806600
vt 0.568500 0.983200
vt 0.810700 0.737300
s 0
usemtl ruin
f 12/1/1 11/2/1 8/3/1
f 8/3/2 9/4/2 12/1/2
f 20/5/3 17/6/3 18/7/3
f 18/7/4 19/8/4 20/5/4
f 9/9/5 8/10/5 1/11/5
f 1/11/6 2/12/6 9/9/6
f 38/13/7 41/14/7 36/15/7
f 36/15/7 37/16/7 38/13/7
f 13/17/8 10/18/8 3/19/8
f 3/19/8 5/20/8 13/17/8
f 16/21/8 13/22/8 5/23/8
f 5/23/8 7/24/8 16/21/8
f 27/25/9 28/26/9 29/27/9
f 29/27/9 24/28/9 27/25/9
f 26/29/10 27/25/10 24/28/10
f 24/28/11 25/30/11 26/29/11
f 11/31/12 14/32/12 6/33/12
f 6/33/12 4/34/12 11/31/12
f 8/35/13 11/36/13 4/37/13
f 4/37/14 1/38/14 8/35/14
f 18/39/15 12/40/15 9/41/15
f 41/14/16 38/13/16 39/42/16
f 39/42/17 40/43/17 41/14/17
f 10/18/18 13/17/18 20/44/18
f 20/44/19 19/45/19 10/18/19
f 13/22/18 16/21/18 21/46/18
f 21/46/18 20/47/18 13/22/18
f 16/48/20 15/49/20 22/50/20
f 22/50/20 21/51/20 16/48/20
f 11/52/21 12/53/21 17/54/21
f 17/54/22 23/55/22 11/52/22
f 6/56/23 14/57/23 26/58/23
f 26/58/24 25/59/24 6/56/24
f 14/60/25 15/61/25 27/62/25
f 27/62/26 26/63/26 14/60/26
f 15/61/27 16/64/27 28/65/27
f 28/65/27 27/62/27 15/61/27
f 16/66/8 7/67/8 29/68/8
f 29/68/28 28/69/28 16/66/28
f 2/70/29 3/71/29 31/71/29
f 31/71/30 30/70/30 2/70/30
f 3/72/31 10/73/31 32/74/31
f 32/74/31 31/75/31 3/72/31
f 10/73/32 19/76/32 33/77/32
f 33/77/32 32/74/32 10/73/32
f 19/76/33 18/78/33 34/79/33
f 34/79/34 33/77/34 19/76/34
f 18/78/35 9/80/35 35/81/35
f 35/81/36 34/79/36 18/78/36
f 9/80/37 2/82/37 30/83/37
f 30/83/37 35/81/37 9/80/37
f 31/84/38 32/85/38 38/86/38
f 38/86/39 37/87/39 31/84/39
f 32/85/40 33/88/40 39/89/40
f 39/89/41 38/86/41 32/85/41
f 34/90/42 35/91/42 41/92/42
f 41/92/43 40/93/43 34/90/43
f 35/91/44 30/94/44 36/95/44
f 36/95/45 41/92/45 35/91/45
f 42/96/46 43/97/46 45/98/46
f 45/98/47 44/99/47 42/96/47
f 18/39/48 17/100/48 12/40/48
f 46/101/49 47/102/49 22/103/49
f 46/101/50 22/103/50 15/104/50
f 46/101/50 15/104/50 14/105/50
f 46/101/51 14/105/51 49/106/51
f 48/107/52 49/108/52 14/32/52
f 48/107/53 14/32/53 11/31/53
f 48/107/53 11/31/53 23/109/53
f 48/107/53 23/109/53 50/110/53
f 51/104/54 52/105/54 55/105/54
f 55/105/54 54/104/54 51/104/54
f 52/32/55 53/31/55 56/31/55
f 56/31/56 55/32/56 52/32/56
f 58/6/57 57/5/57 59/7/57
f 43/8/58 59/7/58 57/5/58
f 61/21/53 60/22/53 62/46/53
f 57/47/53 62/46/53 60/22/53
f 63/49/31 61/48/31 64/50/31
f 62/51/31 64/50/31 61/48/31
f 59/53/59 65/52/59 58/54/59
f 66/55/50 58/54/50 65/52/50
f 68/102/60 67/101/60 64/103/60
f 64/103/61 67/101/61 63/104/61
f 63/104/62 67/101/62 69/105/62
f 69/105/63 67/101/63 70/106/63
f 70/108/64 71/107/64 69/32/64
f 69/32/18 71/107/18 65/31/18
f 65/31/18 71/107/18 66/109/18
f 66/109/18 71/107/18 72/110/18
f 50/111/65 72/111/65 71/111/65
f 50/111/65 71/111/65 48/111/65
f 49/111/66 48/111/66 70/111/66
f 70/111/67 48/111/67 71/111/67
f 46/111/68 70/111/68 67/111/68
f 67/111/69 68/111/69 46/111/69
f 46/111/70 68/111/70 47/111/70
f 66/111/71 72/111/71 23/111/71
f 23/111/71 72/111/71 50/111/71
f 68/111/72 62/111/72 21/111/72
f 68/111/73 21/111/73 47/111/73
f 62/111/74 57/111/74 20/111/74
f 62/111/74 20/111/74 21/111/74
f 66/111/75 23/111/75 57/111/75
f 57/111/75 23/111/75 20/111/75
f 76/112/76 77/113/76 73/114/76
f 73/114/77 74/115/77 76/112/77
f 86/116/78 89/117/78 75/118/78
f 86/116/79 75/118/79 73/114/79
f 86/116/80 73/114/80 77/113/80
f 86/116/81 77/113/81 85/119/81
f 88/120/82 78/121/82 75/122/82
f 87/123/83 88/120/83 75/122/83
f 87/123/84 75/122/84 89/124/84
f 74/125/85 73/126/85 79/127/85
f 74/125/86 79/127/86 81/128/86
f 78/129/87 82/130/87 80/131/87
f 80/131/88 75/132/88 78/129/88
f 79/111/89 83/111/89 81/111/89
f 83/111/90 79/111/90 80/111/90
f 80/111/90 84/111/90 83/111/90
f 82/111/91 84/111/91 80/111/91
f 73/126/92 75/132/92 80/131/92
f 80/131/93 79/133/93 73/126/93
f 90/111/94 74/111/94 81/111/94
f 76/111/95 74/111/95 90/111/95
f 92/111/96 88/111/96 87/111/96
f 89/111/97 93/111/97 92/111/97
f 89/111/97 92/111/97 87/111/97
f 91/111/98 93/111/98 86/111/98
f 86/111/98 93/111/98 89/111/98
f 86/111/99 85/111/99 91/111/99
f 49/111/100 70/111/100 46/111/100
