mtllib machinegun.mtl
o Machine
v 1.357314 3.073904 0.202616
v 1.357314 3.073904 -0.302419
v 1.129660 3.073904 -0.742938
v 1.129660 3.073904 0.202616
v -1.242068 3.073904 0.202616
v -1.242068 3.073904 -0.742938
v -1.505583 3.073904 -0.302419
v -1.505583 3.073904 0.202616
v 2.129467 0.088464 0.715943
v 1.910317 0.088464 -0.905684
v 1.129660 0.088464 0.715943
v 1.129660 0.088464 -1.346203
v -1.242068 0.088464 0.715943
v -1.242068 0.088464 -1.346203
v -2.129467 0.088464 0.715943
v -1.910317 0.088464 -0.905684
v -0.052151 -0.027740 -2.483042
v -1.831733 -0.027740 -1.745914
v -2.568861 -0.027740 0.033668
v -1.831733 -0.027740 1.813254
v -0.052151 -0.027740 2.550381
v 1.727434 -0.027740 1.813254
v 2.464558 -0.027740 0.033668
v 1.727434 -0.027740 -1.745914
v -0.052151 0.250709 -2.483042
v -1.831733 0.250709 -1.745914
v -2.568861 0.250709 0.033668
v -1.831733 0.250709 1.813254
v -0.052151 0.250709 2.550381
v 1.727434 0.250709 1.813254
v 2.464558 0.250709 0.033668
v 1.727434 0.250709 -1.745914
vn -0.0000 1.0000 -0.0000
vn 0.9697 0.2061 -0.1310
vn 0.9681 0.2504 -0.0000
vn 0.4840 0.1733 -0.8577
vn 0.8604 0.2492 -0.4446
vn -1.0000 -0.0000 -0.0000
vn -0.0000 0.1695 0.9855
vn 1.0000 -0.0000 -0.0000
vn -0.5348 0.2364 -0.8112
vn -0.8536 0.1032 -0.5106
vn -0.9746 0.1810 -0.1317
vn -0.9909 0.1343 -0.0000
vn -0.3827 -0.0000 -0.9239
vn -0.9239 -0.0000 -0.3827
vn -0.9239 -0.0000 0.3827
vn -0.3827 -0.0000 0.9239
vn 0.3827 -0.0000 0.9239
vn 0.9239 -0.0000 0.3827
vn 0.9239 -0.0000 -0.3827
vn 0.3827 -0.0000 -0.9239
vt 0.004300 0.346800
vt 0.161800 0.346800
vt 0.299100 0.430500
vt 0.004300 0.430500
vt 0.294600 0.346800
vt 0.577300 0.346800
vt 0.467500 0.666300
vt 0.379400 0.666300
vt 0.694700 0.346800
vt 0.584800 0.666300
vt 0.895400 0.498200
vt 0.776600 0.498200
vt 0.804600 0.688700
vt 0.859100 0.688700
vt 0.731200 0.003800
vt 0.859000 0.016600
vt 0.720000 0.407700
vt 0.690900 0.404800
vt 0.004000 0.798200
vt 0.483700 0.798200
vt 0.483700 0.864300
vt 0.004000 0.864300
vt 0.500700 0.973600
vt 0.469000 0.897000
vt 0.500700 0.820400
vt 0.577300 0.788700
vt 0.653900 0.820400
vt 0.685600 0.897000
vt 0.653900 0.973600
vt 0.577300 1.005300
s 0
usemtl machinegun
f 1/1/1 2/2/1 3/3/1
f 3/3/1 4/4/1 1/1/1
f 5/4/1 6/3/1 7/2/1
f 7/2/1 8/1/1 5/4/1
f 9/5/2 10/6/2 2/7/2
f 2/7/3 1/8/3 9/5/3
f 10/6/4 12/9/4 3/10/4
f 3/10/5 2/7/5 10/6/5
f 12/11/6 11/12/6 4/13/6
f 4/13/6 3/14/6 12/11/6
f 11/15/7 9/16/7 1/17/7
f 1/17/7 4/18/7 11/15/7
f 13/12/8 14/11/8 6/14/8
f 6/14/8 5/13/8 13/12/8
f 14/9/9 16/6/9 7/7/9
f 7/7/10 6/10/10 14/9/10
f 16/6/11 15/5/11 8/8/11
f 8/8/12 7/7/12 16/6/12
f 15/16/7 13/15/7 5/18/7
f 5/18/7 8/17/7 15/16/7
f 17/19/13 18/20/13 26/21/13
f 26/21/13 25/22/13 17/19/13
f 18/19/14 19/20/14 27/21/14
f 27/21/14 26/22/14 18/19/14
f 19/19/15 20/20/15 28/21/15
f 28/21/15 27/22/15 19/19/15
f 20/19/16 21/20/16 29/21/16
f 29/21/16 28/22/16 20/19/16
f 21/19/17 22/20/17 30/21/17
f 30/21/17 29/22/17 21/19/17
f 22/19/18 23/20/18 31/21/18
f 31/21/18 30/22/18 22/19/18
f 23/19/19 24/20/19 32/21/19
f 32/21/19 31/22/19 23/19/19
f 24/19/20 17/20/20 25/21/20
f 25/21/20 32/22/20 24/19/20
f 26/23/1 27/24/1 28/25/1
f 28/25/1 29/26/1 30/27/1
f 30/27/1 31/28/1 32/29/1
f 28/25/1 30/27/1 32/29/1
f 26/23/1 28/25/1 32/29/1
f 25/30/1 26/23/1 32/29/1
