mtllib machinegun.mtl
o Guns
v 0.470147 -0.620760 2.444137
v 0.470147 -0.607168 -1.788770
v 0.470147 -0.390499 -2.860940
v 1.123451 -0.620760 2.444137
v 1.123451 -0.607168 -1.788770
v 1.123451 -0.390499 -2.860940
v 0.470147 0.547196 1.476509
v 0.470147 0.547196 -1.788770
v 0.470147 0.266334 -2.860940
v 1.123451 0.547196 1.476509
v 1.123451 0.547196 -1.788770
v 1.123451 0.266334 -2.860940
v 0.626897 -0.066633 -9.198668
v 0.711318 0.049563 -9.198668
v 0.847917 0.005183 -9.198668
v 0.847917 -0.138445 -9.198668
v 0.711318 -0.182826 -9.198668
v 0.626897 -0.061119 -5.592756
v 0.711318 0.055077 -5.592756
v 0.847917 0.010693 -5.592756
v 0.847917 -0.132932 -5.592756
v 0.711318 -0.177316 -5.592756
v 0.486233 -0.061119 -5.287852
v 0.667850 0.188856 -5.287852
v 0.961715 0.093374 -5.287852
v 0.961715 -0.215612 -5.287852
v 0.667850 -0.311095 -5.287852
v 0.486233 -0.066633 -2.847397
v 0.667850 0.183342 -2.847397
v 0.961715 0.087860 -2.847397
v 0.961715 -0.221126 -2.847397
v 0.667850 -0.316605 -2.847397
v 2.660794 -1.301078 -1.313048
v 1.127126 -1.301078 -1.927352
v -1.206515 -1.301078 -1.927352
v -2.442651 -1.301078 -1.332063
v 2.192425 1.148789 -0.719929
v 1.127126 1.148789 -1.024484
v -1.206515 1.148789 -1.024484
v -2.194701 1.148789 -0.665384
v -0.537278 -0.607168 -1.788770
v -0.537278 -0.620760 2.444133
v -1.190586 -0.620760 2.444133
v -1.190586 -0.607168 -1.788770
v -0.537278 -0.390499 -2.860940
v -1.190586 -0.390499 -2.860940
v -0.537278 0.547196 -1.788770
v -1.190586 0.547196 -1.788770
v -1.190586 0.547196 1.476509
v -0.537278 0.547196 1.476509
v -0.537278 0.266334 -2.860940
v -1.190586 0.266334 -2.860940
v -1.033832 -0.066633 -9.198668
v -0.949411 0.049563 -9.198668
v -0.812816 0.005183 -9.198668
v -0.812816 -0.138445 -9.198668
v -0.949411 -0.182826 -9.198668
v -0.949411 0.055077 -5.592756
v -1.033832 -0.061119 -5.592756
v -0.812816 0.010693 -5.592756
v -0.812816 -0.132932 -5.592756
v -0.949411 -0.177316 -5.592756
v -0.992879 0.188856 -5.287852
v -1.174496 -0.061119 -5.287852
v -0.699014 0.093374 -5.287852
v -0.699014 -0.215612 -5.287852
v -0.992879 -0.311095 -5.287852
v -0.992879 0.183342 -2.847397
v -1.174496 -0.066633 -2.847397
v -0.699014 0.087860 -2.847397
v -0.699014 -0.221126 -2.847397
v -0.992879 -0.316605 -2.847397
vn -0.0000 -1.0000 -0.0032
vn -0.0000 -0.9802 -0.1981
vn -0.0000 1.0000 -0.0000
vn -0.0000 0.9674 -0.2534
vn -1.0000 -0.0000 -0.0000
vn -0.0000 -0.0000 -1.0000
vn 1.0000 -0.0000 -0.0000
vn -0.0000 0.6380 0.7701
vn -0.8090 0.5878 -0.0009
vn 0.3090 0.9511 -0.0015
vn 0.3090 -0.9511 0.0015
vn -0.8090 -0.5878 0.0009
vn -0.7579 0.5507 -0.3497
vn 0.2895 0.8910 -0.3497
vn 0.9369 -0.0000 -0.3497
vn 0.2895 -0.8910 -0.3497
vn -0.7579 -0.5507 -0.3497
vn -0.8090 0.5878 0.0013
vn 0.3090 0.9511 0.0021
vn 0.3090 -0.9511 -0.0021
vn -0.8090 -0.5878 -0.0013
vn 0.2643 0.2744 -0.9246
vn 0.3518 0.3237 -0.8783
vn -0.0000 0.3458 -0.9383
vn -0.3227 0.3273 -0.8881
vn -0.4168 0.2777 -0.8655
vt 0.004700 0.864900
vt 0.397900 0.863800
vt 0.399000 0.795700
vt 0.004700 0.795700
vt 0.498900 0.864900
vt 0.498900 0.795700
vt 0.097100 0.994400
vt 0.397900 0.994400
vt 0.496700 0.946500
vt 0.496700 0.888300
vt 0.501600 0.997600
vt 0.655200 0.997600
vt 0.655200 0.793500
vt 0.501600 0.793500
vt 0.697200 0.986400
vt 0.724700 0.965300
vt 0.714200 0.931000
vt 0.680200 0.931000
vt 0.669700 0.965300
vt 0.998000 0.270400
vt 0.998000 0.564800
vt 0.920200 0.564800
vt 0.920200 0.270400
vt 0.981700 0.619300
vt 0.941200 0.620000
vt 0.982300 0.996500
vt 0.941200 0.996500
vt 0.218100 0.347600
vt 0.068900 0.347600
vt 0.003400 0.001300
vt 0.218100 0.001300
vt 0.544800 0.347600
vt 0.544900 0.001300
vt 0.683200 0.347600
vt 0.717900 0.001300
s 0
usemtl machinegun
f 1/1/1 2/2/1 5/3/1
f 5/3/1 4/4/1 1/1/1
f 2/2/2 3/5/2 6/6/2
f 6/6/2 5/3/2 2/2/2
f 7/1/3 10/4/3 11/3/3
f 11/3/3 8/2/3 7/1/3
f 8/2/4 11/3/4 12/6/4
f 12/6/4 9/5/4 8/2/4
f 1/1/5 7/7/5 8/8/5
f 8/8/5 2/2/5 1/1/5
f 2/2/5 8/8/5 9/9/5
f 9/9/5 3/10/5 2/2/5
f 3/11/6 9/12/6 12/13/6
f 12/13/6 6/14/6 3/11/6
f 6/10/7 12/9/7 11/8/7
f 11/8/7 5/2/7 6/10/7
f 5/2/7 11/8/7 10/7/7
f 10/7/7 4/1/7 5/2/7
f 4/14/8 10/13/8 7/12/8
f 7/12/8 1/11/8 4/14/8
f 13/15/6 14/16/6 15/17/6
f 13/15/6 15/17/6 16/18/6
f 13/15/6 16/18/6 17/19/6
f 13/20/9 18/21/9 19/22/9
f 19/22/9 14/23/9 13/20/9
f 14/20/10 19/21/10 20/22/10
f 20/22/10 15/23/10 14/20/10
f 15/20/7 20/21/7 21/22/7
f 21/22/7 16/23/7 15/20/7
f 16/20/11 21/21/11 22/22/11
f 22/22/11 17/23/11 16/20/11
f 17/20/12 22/21/12 18/22/12
f 18/22/12 13/23/12 17/20/12
f 18/21/13 23/24/13 24/25/13
f 24/25/13 19/22/13 18/21/13
f 19/21/14 24/24/14 25/25/14
f 25/25/14 20/22/14 19/21/14
f 20/21/15 25/24/15 26/25/15
f 26/25/15 21/22/15 20/21/15
f 21/21/16 26/24/16 27/25/16
f 27/25/16 22/22/16 21/21/16
f 22/21/17 27/24/17 23/25/17
f 23/25/17 18/22/17 22/21/17
f 23/24/18 28/26/18 29/27/18
f 29/27/18 24/25/18 23/24/18
f 24/24/19 29/26/19 30/27/19
f 30/27/19 25/25/19 24/24/19
f 25/24/7 30/26/7 31/27/7
f 31/27/7 26/25/7 25/24/7
f 26/24/20 31/26/20 32/27/20
f 32/27/20 27/25/20 26/24/20
f 27/24/21 32/26/21 28/27/21
f 28/27/21 23/25/21 27/24/21
f 38/28/22 37/29/22 33/30/22
f 33/30/23 34/31/23 38/28/23
f 39/32/24 38/28/24 34/31/24
f 34/31/24 35/33/24 39/32/24
f 40/34/25 39/32/25 35/33/25
f 35/33/26 36/35/26 40/34/26
f 43/1/1 44/2/1 41/3/1
f 41/3/1 42/4/1 43/1/1
f 44/2/2 46/5/2 45/6/2
f 45/6/2 41/3/2 44/2/2
f 49/1/3 50/4/3 47/3/3
f 47/3/3 48/2/3 49/1/3
f 48/2/4 47/3/4 51/6/4
f 51/6/4 52/5/4 48/2/4
f 43/1/5 49/7/5 48/8/5
f 48/8/5 44/2/5 43/1/5
f 44/2/5 48/8/5 52/9/5
f 52/9/5 46/10/5 44/2/5
f 46/11/6 52/12/6 51/13/6
f 51/13/6 45/14/6 46/11/6
f 45/10/7 51/9/7 47/8/7
f 47/8/7 41/2/7 45/10/7
f 41/2/7 47/8/7 50/7/7
f 50/7/7 42/1/7 41/2/7
f 42/14/8 50/13/8 49/12/8
f 49/12/8 43/11/8 42/14/8
f 53/15/6 54/16/6 55/17/6
f 53/15/6 55/17/6 56/18/6
f 53/15/6 56/18/6 57/19/6
f 53/20/9 59/21/9 58/22/9
f 58/22/9 54/23/9 53/20/9
f 54/20/10 58/21/10 60/22/10
f 60/22/10 55/23/10 54/20/10
f 55/20/7 60/21/7 61/22/7
f 61/22/7 56/23/7 55/20/7
f 56/20/11 61/21/11 62/22/11
f 62/22/11 57/23/11 56/20/11
f 57/20/12 62/21/12 59/22/12
f 59/22/12 53/23/12 57/20/12
f 59/21/13 64/24/13 63/25/13
f 63/25/13 58/22/13 59/21/13
f 58/21/14 63/24/14 65/25/14
f 65/25/14 60/22/14 58/21/14
f 60/21/15 65/24/15 66/25/15
f 66/25/15 61/22/15 60/21/15
f 61/21/16 66/24/16 67/25/16
f 67/25/16 62/22/16 61/21/16
f 62/21/17 67/24/17 64/25/17
f 64/25/17 59/22/17 62/21/17
f 64/24/18 69/26/18 68/27/18
f 68/27/18 63/25/18 64/24/18
f 63/24/19 68/26/19 70/27/19
f 70/27/19 65/25/19 63/24/19
f 65/24/7 70/26/7 71/27/7
f 71/27/7 66/25/7 65/24/7
f 66/24/20 71/26/20 72/27/20
f 72/27/20 67/25/20 66/24/20
f 67/24/21 72/26/21 69/27/21
f 69/27/21 64/25/21 67/24/21
