o Tree
v -0.237332 -0.132936 -0.522574
v 0.419847 -0.130121 0.024042
v -0.263725 -0.129367 0.471167
v 0.177654 9.908823 -0.003265
v 0.070371 1.761540 -5.485575
v -5.418686 1.761540 0.003482
v 0.070371 1.761540 4.698348
v 5.559414 1.637179 0.003483
v 0.070371 2.701798 0.003482
v 0.070371 3.913181 0.003482
v 2.917061 2.912026 -3.214114
v -3.147225 3.258136 -2.843208
v -2.776319 2.912026 3.221078
v 3.287967 3.258136 2.850173
v 0.070371 5.601143 0.003482
v 4.072437 4.406722 -0.452493
v -0.385604 4.485769 -3.998584
v -3.931710 4.406722 0.459457
v 0.526346 4.731241 4.005548
v 0.070371 7.470837 0.003482
v 2.907848 5.824706 0.952882
v 1.019771 6.416649 -2.833994
v -2.767105 6.175589 -0.945932
v -0.879043 6.416649 2.840959
v 0.070371 8.628056 0.003482
v 1.587730 7.935401 0.511184
v 0.578073 8.064303 -1.513891
v -1.782767 7.959240 -0.504220
v -0.437331 8.064303 1.520841
vn -0.9987 0.0427 -0.0267
vn 0.5473 0.0155 0.8368
vn 0.6394 0.0133 -0.7688
vn -0.1665 0.9719 -0.1665
vn -0.1656 0.9670 0.1937
vn 0.1868 0.9633 0.1929
vn 0.1878 0.9681 -0.1658
vn 0.0387 0.9633 -0.2655
vn -0.2588 0.9633 0.0708
vn -0.0387 0.9633 0.2655
vn 0.2588 0.9633 -0.0708
vn 0.2440 0.9266 -0.2860
vn -0.3021 0.9266 -0.2238
vn -0.2536 0.9388 0.2330
vn 0.2996 0.9388 0.1699
vn 0.5304 0.8372 -0.1336
vn -0.2608 0.8732 -0.4117
vn -0.4561 0.8732 0.1718
vn 0.3432 0.8372 0.4259
vn 0.4561 0.8732 -0.1718
vn -0.2115 0.8910 -0.4018
vn -0.3818 0.9008 0.2069
vn 0.2608 0.8732 0.4117
vt 0.782900 0.011200
vt 0.781200 0.086000
vt 0.064200 0.046000
vt 0.053000 0.092700
vt 0.051700 0.006400
vt 0.779300 0.006200
vt 0.681900 0.005800
vt 0.684300 0.093800
vt 0.063200 0.090600
vt 0.500000 0.550700
vt 0.987000 0.993500
vt 0.013000 0.993500
vt 0.013000 0.112800
vt 0.987000 0.112800
s 0
f 1/1/1 3/2/1 4/3/1
f 3/4/2 2/5/2 4/6/2
f 2/7/3 1/8/3 4/9/3
f 9/10/4 5/11/4 6/12/4
f 9/10/5 6/12/5 7/13/5
f 9/10/6 7/13/6 8/14/6
f 9/10/7 8/14/7 5/11/7
f 10/10/8 11/11/8 12/12/8
f 10/10/9 12/12/9 13/13/9
f 10/10/10 13/13/10 14/14/10
f 10/10/11 14/14/11 11/11/11
f 15/10/12 16/11/12 17/12/12
f 15/10/13 17/12/13 18/13/13
f 15/10/14 18/13/14 19/14/14
f 15/10/15 19/14/15 16/11/15
f 20/10/16 21/11/16 22/12/16
f 20/10/17 22/12/17 23/13/17
f 20/10/18 23/13/18 24/14/18
f 20/10/19 24/14/19 21/11/19
f 25/10/20 26/11/20 27/12/20
f 25/10/21 27/12/21 28/13/21
f 25/10/22 28/13/22 29/14/22
f 25/10/23 29/14/23 26/11/23
