mtllib rocks.mtl
o Rocks2
v 6.879160 -0.413995 9.863507
v 4.200032 -0.413995 9.229800
v 3.135440 -0.413995 11.684352
v 5.270591 -0.413995 13.376225
v 5.811447 3.492340 10.896109
v 4.138346 3.492340 12.514087
v 7.106169 -0.413995 12.234893
v 5.749761 1.840122 14.180349
v 7.422862 1.840122 12.562372
v 2.376664 -0.563438 -13.055676
v -2.837794 -0.563438 -14.288988
v -4.909745 -0.563438 -9.511748
v -0.754141 -0.563438 -6.218880
v 0.298518 7.039526 -11.045918
v -1.994107 4.176671 -13.416569
v -2.957771 7.039526 -7.896800
v -5.250442 5.999536 -10.267450
v 2.818473 -0.563438 -8.440226
v 4.504700 -0.278965 -1.806846
v -0.368235 -0.278965 -0.612594
v -0.059529 -0.278965 4.253320
v 4.808495 -0.278965 5.227357
v 4.716976 4.943985 -2.427518
v 3.628747 6.839919 0.754417
v 0.706959 4.159368 -0.244863
v 2.256136 6.839919 4.767739
v -0.665652 5.866158 3.768459
v 6.840194 -0.278965 1.852744
v -0.578905 3.828952 6.101611
v 6.253119 3.828952 6.134704
v 7.625730 3.828952 2.121428
v -1.914613 -0.306412 -2.409067
v -5.697071 -0.306412 -8.311805
v -5.697071 -0.306412 2.333611
v -10.138570 -0.306412 -6.968157
v -11.077496 -0.306412 1.173322
v -11.990902 -0.306412 -5.703360
v -0.997995 6.873515 -2.409067
v -5.697071 8.780830 -2.409068
v -5.697071 7.801241 -6.723982
v -11.623905 8.780830 -2.409068
v -11.623904 7.801241 -6.723982
v -11.623905 8.103568 0.935252
v -0.543380 2.722685 -2.409067
v -11.623904 2.722685 -8.311806
v -14.669478 2.722685 -5.554239
v -13.799308 2.722685 -2.409068
v -11.623905 2.722685 3.493624
v -5.697072 2.722685 3.493624
v -2.684957 3.350975 3.493624
v -5.697071 2.722685 -8.311805
v -11.623904 5.751781 -8.311806
v -14.669478 5.751781 -5.554239
v -13.799308 5.751781 -2.409068
v -11.623905 5.751781 3.493624
v -5.697072 5.751781 3.493624
v -4.222248 -0.822575 3.258813
v -7.101443 -0.822575 5.406907
v -5.539184 -0.822575 8.528716
v -2.057768 -0.822575 7.811568
v -4.255615 2.916969 2.790337
v -4.084555 4.274433 5.192015
v -6.289929 2.355184 5.349076
v -3.868837 4.274433 8.221250
v -6.074165 3.577250 8.378310
v -1.660571 -0.822575 5.019395
v -5.365463 2.118628 9.892331
v -0.851950 2.118628 8.006357
v -1.067713 2.118628 4.977169
v 0.716826 -0.717469 10.426026
v -1.188241 -0.717469 9.975451
v -1.945228 -0.717469 11.720795
v -0.426985 -0.717469 12.923767
v -0.042410 2.060200 11.160249
v -1.232073 2.060200 12.310760
v 0.878202 -0.717469 12.112254
v -0.086242 0.885362 13.495604
v 1.103420 0.885362 12.345093
vn 0.2192 0.3049 -0.9268
vn -0.8045 0.4807 -0.3489
vn -0.6599 0.3144 -0.6824
vn -0.7036 0.0298 0.7100
vn -0.6144 -0.1460 0.7754
vn 0.5180 -0.1938 0.8331
vn 0.6445 -0.3748 0.6665
vn 0.4035 0.8143 0.4172
vn 0.9876 -0.1250 -0.0945
vn 0.8220 0.3445 -0.4534
vn 0.2280 0.1368 -0.9640
vn 0.4371 0.3396 -0.8328
vn -0.2270 0.7225 -0.6530
vn -0.2091 0.9537 -0.2162
vn -0.7272 0.0412 0.6852
vn -0.6210 -0.0070 0.7837
vn -0.9134 -0.0930 -0.3962
vn -0.5987 0.2468 -0.7620
vn 0.4786 0.4224 0.7697
vn 0.6541 0.3388 0.6763
vn 0.9542 0.2850 -0.0913
vn -0.4978 0.1907 -0.8461
vn -0.4439 0.6948 -0.5658
vn -0.4994 0.7225 -0.4781
vn -0.2846 0.9537 -0.0973
vn -0.4301 0.6720 0.6028
vn -0.0044 0.4085 0.9127
vn 0.8389 -0.0977 -0.5354
vn -0.2367 -0.1052 -0.9659
vn -0.9863 -0.1528 0.0626
vn -0.9989 -0.0461 -0.0031
vn -0.8800 0.2468 -0.4059
vn -0.1941 -0.1460 0.9701
vn -0.0044 -0.4108 0.9117
vn 0.8405 -0.1938 0.5060
vn 0.8772 -0.3748 0.3000
vn 0.5492 0.8143 0.1878
vn 0.8226 -0.1210 -0.5556
vn 0.6341 0.7400 -0.2241
vn 0.6831 0.2179 -0.6971
vn 0.3680 0.9067 -0.2059
vn -0.0000 0.9801 0.1985
vn -0.0000 0.9752 -0.2214
vn -0.8066 0.5793 0.1173
vn -0.5955 0.7834 -0.1779
vn -0.7925 0.5691 0.2193
vn 0.8532 -0.3862 0.3506
vn 0.8420 -0.0000 -0.5395
vn 0.7130 -0.3228 -0.6225
vn 0.9385 0.1028 0.3296
vn 0.7507 0.0822 -0.6555
vn -0.2519 -0.4929 -0.8328
vn -0.0000 -0.0000 -1.0000
vn -0.5127 -0.4164 -0.7508
vn -0.5607 -0.5496 -0.6193
vn -0.6712 -0.0000 -0.7413
vn 0.2987 0.5845 -0.7544
vn -0.0000 0.2984 -0.9544
vn -0.5820 0.4980 -0.6428
vn -0.7987 -0.5922 0.1061
vn -0.7288 -0.6544 0.2016
vn -0.8607 -0.3982 0.3172
vn -0.9638 -0.0000 0.2667
vn -0.9383 -0.0000 0.3458
vn -0.8782 0.3521 0.3237
vn -0.1974 -0.3506 0.9155
vn -0.0000 -0.6081 0.7939
vn 0.5982 -0.6439 0.4770
vn 0.0744 -0.3566 0.9313
vn -0.0000 -0.0000 1.0000
vn -0.0000 0.8897 0.4566
vn 0.2854 0.7056 0.6486
vn 0.5238 0.6572 0.5419
vn 0.3397 0.8368 0.4294
vn -0.7884 0.1907 -0.5849
vn -0.6294 0.6948 -0.3479
vn -0.6463 0.7225 -0.2455
vn -0.3000 0.9537 0.0214
vn -0.1610 0.6720 0.7228
vn 0.3519 0.4085 0.8422
vn 0.5637 -0.0977 -0.8202
vn -0.5947 -0.1052 -0.7971
vn -0.8838 -0.1528 0.4423
vn -0.9210 -0.0461 0.3867
vn -0.9686 0.2468 -0.0306
vn 0.1996 -0.1460 0.9689
vn 0.3515 -0.4108 0.8412
vn 0.9713 -0.1938 0.1382
vn 0.9248 -0.3748 -0.0659
vn 0.5790 0.8143 -0.0412
vn 0.5407 -0.1209 -0.8324
vn 0.4965 0.7400 -0.4536
vn 0.6445 -0.3748 0.6664
vt 0.000000 0.000000
vt 1.000000 0.000000
vt 1.000000 1.000000
vt 0.000000 1.000000
vt 0.901800 -0.064800
vt 0.534400 -0.184000
vt 0.406200 0.019200
s 0
usemtl rocks
f 1/1/1 2/2/1 5/3/1
f 5/1/2 2/2/2 3/3/2
f 3/3/3 6/4/3 5/1/3
f 6/1/4 3/2/4 8/3/4
f 3/1/5 4/2/5 8/3/5
f 4/1/6 7/2/6 9/3/6
f 9/3/7 8/4/7 4/1/7
f 8/3/8 9/4/8 5/1/8
f 5/1/8 6/2/8 8/3/8
f 9/3/9 7/4/9 1/1/9
f 1/1/10 5/2/10 9/3/10
f 10/1/11 11/2/11 15/3/11
f 15/3/12 14/4/12 10/1/12
f 14/1/13 15/2/13 17/3/13
f 17/3/14 16/4/14 14/1/14
f 16/3/15 17/4/15 12/1/15
f 12/1/16 13/2/16 16/3/16
f 11/1/17 12/2/17 17/3/17
f 17/3/18 15/4/18 11/1/18
f 13/1/19 18/5/19 14/3/19
f 14/3/20 16/4/20 13/1/20
f 18/1/21 10/2/21 14/3/21
f 23/1/22 20/2/22 25/3/22
f 25/3/23 24/4/23 23/1/23
f 24/1/24 25/2/24 27/3/24
f 27/3/25 26/4/25 24/1/25
f 26/1/26 27/2/26 29/3/26
f 29/3/27 30/4/27 26/1/27
f 28/1/28 19/2/28 23/3/28
f 19/1/29 20/2/29 23/3/29
f 21/3/30 29/4/30 20/1/30
f 20/3/31 29/4/31 27/1/31
f 27/1/32 25/6/32 20/3/32
f 21/1/33 22/2/33 30/3/33
f 30/3/34 29/4/34 21/1/34
f 22/1/35 28/2/35 31/3/35
f 31/3/36 30/4/36 22/1/36
f 30/3/37 31/4/37 24/1/37
f 24/1/37 26/2/37 30/3/37
f 31/3/38 28/4/38 23/1/38
f 23/1/39 24/2/39 31/3/39
f 38/3/40 51/4/40 40/1/40
f 40/1/41 39/7/41 38/3/41
f 39/1/42 41/2/42 43/3/42
f 39/1/43 40/2/43 42/3/43
f 42/3/43 41/4/43 39/1/43
f 41/3/44 54/4/44 43/1/44
f 41/1/45 42/2/45 53/3/45
f 53/3/46 54/4/46 41/1/46
f 32/1/47 44/2/47 50/3/47
f 32/1/48 33/2/48 51/3/48
f 51/3/49 44/4/49 32/1/49
f 50/3/50 44/4/50 38/1/50
f 44/3/51 51/4/51 38/1/51
f 33/1/52 35/2/52 45/3/52
f 45/3/53 51/4/53 33/1/53
f 35/1/54 37/2/54 46/3/54
f 46/3/55 45/4/55 35/1/55
f 45/3/53 52/4/53 51/1/53
f 45/1/56 46/2/56 53/3/56
f 53/3/56 52/4/56 45/1/56
f 51/3/57 52/4/57 42/1/57
f 42/1/58 40/2/58 51/3/58
f 52/3/59 53/4/59 42/1/59
f 37/1/60 36/2/60 47/3/60
f 47/3/61 46/4/61 37/1/61
f 36/3/62 48/4/62 47/1/62
f 46/1/63 47/2/63 54/3/63
f 54/3/63 53/4/63 46/1/63
f 47/1/64 48/2/64 55/3/64
f 55/3/64 54/4/64 47/1/64
f 54/3/65 55/4/65 43/1/65
f 36/1/66 34/2/66 49/3/66
f 49/3/67 48/4/67 36/1/67
f 34/1/68 32/2/68 50/3/68
f 50/3/69 49/4/69 34/1/69
f 48/1/70 49/2/70 56/3/70
f 56/3/70 55/4/70 48/1/70
f 49/1/70 50/2/70 56/3/70
f 55/3/71 56/4/71 39/1/71
f 39/1/72 43/2/72 55/3/72
f 56/3/73 50/4/73 38/1/73
f 38/1/74 39/2/74 56/3/74
f 61/1/75 58/2/75 63/3/75
f 63/3/76 62/4/76 61/1/76
f 62/1/77 63/2/77 65/3/77
f 65/3/78 64/4/78 62/1/78
f 64/1/79 65/2/79 67/3/79
f 67/3/80 68/4/80 64/1/80
f 66/1/81 57/2/81 61/3/81
f 57/1/82 58/2/82 61/3/82
f 59/3/83 67/4/83 58/1/83
f 58/3/84 67/4/84 65/1/84
f 65/1/85 63/6/85 58/3/85
f 59/1/86 60/2/86 68/3/86
f 68/3/87 67/4/87 59/1/87
f 60/1/88 66/2/88 69/3/88
f 69/3/89 68/4/89 60/1/89
f 68/3/90 69/4/90 62/1/90
f 62/1/90 64/2/90 68/3/90
f 69/3/91 66/4/91 61/1/91
f 61/1/92 62/2/92 69/3/92
f 70/1/1 71/2/1 74/3/1
f 74/1/2 71/2/2 72/3/2
f 72/3/3 75/4/3 74/1/3
f 75/1/4 72/2/4 77/3/4
f 72/1/5 73/2/5 77/3/5
f 73/1/6 76/2/6 78/3/6
f 78/3/93 77/4/93 73/1/93
f 77/3/8 78/4/8 74/1/8
f 74/1/8 75/2/8 77/3/8
f 78/3/9 76/4/9 70/1/9
f 70/1/10 74/2/10 78/3/10
