mtllib rocks.mtl
o Rocks5
v 0.483926 -0.204701 7.287004
v 1.618830 -0.204701 4.872937
v -0.496363 -0.204701 3.374210
v -2.526181 -0.204701 5.061502
v 0.669600 3.506097 7.582211
v -0.282335 4.853101 6.068716
v 1.107419 2.948610 5.194601
v -1.483026 4.853101 4.159779
v -0.093272 4.161271 3.285633
v -1.809883 -0.204701 7.029542
v -1.087024 2.713875 2.541695
v -3.384222 2.713875 5.355588
v -2.183531 2.713875 7.264526
v 1.323717 -0.245616 -4.693575
v 4.018970 -0.245616 -6.763841
v 2.499630 -0.245616 -9.696378
v -0.784293 -0.245616 -8.971808
v 1.361493 3.292379 -4.250844
v 1.167829 4.576674 -6.520557
v 3.251993 2.760853 -6.698395
v 0.923550 4.576674 -9.383356
v 3.007745 3.917054 -9.561195
v -1.122995 -0.245616 -6.325121
v 2.317221 2.537062 -10.984061
v -1.927591 2.537062 -9.140102
v -1.683312 2.537062 -6.277303
v 12.108549 -0.271733 -6.536256
v 10.534023 -0.271733 -10.177598
v 6.781191 -0.271733 -9.294374
v 6.664631 -0.271733 -5.370543
v 12.620488 5.247020 -6.452716
v 9.996093 7.250318 -6.880960
v 10.389297 4.417956 -9.290798
v 6.685960 7.250318 -7.421098
v 7.079164 6.221433 -9.830936
v 9.563869 -0.271733 -4.232157
v 5.271645 4.068839 -9.455207
v 6.147998 4.068839 -4.124428
v 9.458130 4.068839 -3.584289
v -3.297541 -0.264084 0.534977
v -1.199821 -0.264084 0.944069
v -0.449571 -0.264084 -0.992664
v -2.157880 -0.264084 -2.239307
v -3.490552 1.960797 0.737067
v -2.501091 2.768470 -0.298844
v -1.549871 1.626572 0.609719
v -1.253079 2.768470 -1.605430
v -0.301859 2.353658 -0.696867
v -3.546608 -0.264084 -1.297508
v 0.081582 1.485824 -1.614570
v -2.554349 1.485824 -2.848374
v -3.802360 1.485824 -1.541788
v -9.786572 -0.248197 2.877225
v -9.210337 -0.248197 4.250159
v -7.798354 -0.248197 3.933842
v -7.738752 -0.248197 2.461698
v -9.978338 1.301860 2.843802
v -8.995158 1.864540 3.015112
v -9.152446 1.068991 3.917954
v -7.755044 1.864540 3.231193
v -7.912332 1.575552 4.134004
v -8.822231 -0.248197 2.022759
v -7.232472 0.970962 4.000314
v -7.539834 0.970962 1.996146
v -8.779948 0.970962 1.780066
v -11.160749 -0.276365 8.807493
v -10.689415 -0.276365 9.930552
v -9.534427 -0.276365 9.671815
v -9.485677 -0.276365 8.467610
v -11.317634 0.991544 8.780165
v -10.513380 1.451780 8.920291
v -10.642064 0.801052 9.658788
v -9.498983 1.451780 9.097041
v -9.627668 1.215397 9.835539
v -10.371947 -0.276365 8.108575
v -9.071548 0.720869 9.726161
v -9.322979 0.720869 8.086781
v -10.337344 0.720869 7.910029
v 7.592409 -0.267411 0.155485
v 5.444477 -0.267411 -0.117243
v 4.816072 -0.267411 1.890843
v 6.626576 -0.267411 3.036379
v 7.773947 3.812713 -0.061714
v 6.843278 5.293780 1.051830
v 5.820768 3.199760 0.197240
v 5.669418 5.293780 2.456352
v 4.646907 4.533116 1.601761
v 7.967144 -0.267411 1.991142
v 4.320922 2.941646 2.555126
v 7.068219 2.941646 3.625392
v 8.242048 2.941646 2.220902
v -4.625611 -0.276365 10.748051
v -5.020246 -0.276365 11.900272
v -3.985516 -0.276365 12.474953
v -3.148431 -0.276365 11.607926
v -4.724604 0.991544 10.623316
v -4.217049 1.451780 11.262726
v -4.804196 0.801052 11.728776
v -3.576891 1.451780 12.069188
v -4.164008 1.215397 12.535269
v -3.571699 -0.276365 10.750477
v -3.675884 0.720869 12.823323
v -2.773695 0.720869 11.431642
v -3.413851 0.720869 10.625181
v -6.746088 -0.248197 -6.038155
v -7.354471 -0.248197 -4.679149
v -6.158505 -0.248197 -3.864604
v -5.043158 -0.248197 -4.827296
v -6.852761 1.301860 -6.201007
v -6.305813 1.864540 -5.366191
v -7.072385 1.068991 -4.863952
v -5.615973 1.864540 -4.313243
v -6.382545 1.575552 -3.811035
v -5.463255 -0.248197 -5.918206
v -5.820270 0.970962 -3.406110
v -4.567346 0.970962 -5.000285
v -5.257186 0.970962 -6.053234
vn 0.9788 0.1439 0.1459
vn 0.8103 0.5859 0.0118
vn 0.7813 0.6161 -0.1001
vn 0.3287 0.9215 -0.2067
vn -0.2216 0.5618 -0.7970
vn -0.7345 0.3176 -0.5997
vn -0.1112 -0.0733 0.9911
vn 0.9022 -0.0789 0.4241
vn 0.5743 -0.1150 -0.8105
vn 0.6307 -0.0345 -0.7753
vn 0.8807 0.1872 -0.4350
vn -0.6354 -0.1098 -0.7644
vn -0.7340 -0.3195 -0.5993
vn -0.9296 -0.1463 0.3383
vn -0.8102 -0.2895 0.5096
vn -0.5838 0.7241 0.3672
vn -0.0853 -0.0908 0.9922
vn -0.2575 0.6357 0.7277
vn 0.7965 0.1907 0.5738
vn 0.6343 0.6948 0.3390
vn 0.6497 0.7225 0.2364
vn 0.2997 0.9537 -0.0256
vn 0.1508 0.6720 -0.7250
vn -0.3637 0.4085 -0.8372
vn -0.5521 -0.0977 0.8280
vn 0.6058 -0.1052 0.7887
vn 0.8775 -0.1529 -0.4546
vn 0.9155 -0.0461 -0.3996
vn 0.9689 0.2468 0.0170
vn -0.2131 -0.1460 -0.9660
vn -0.3633 -0.4108 -0.8362
vn -0.9731 -0.1938 -0.1245
vn -0.9238 -0.3748 0.0788
vn -0.5783 0.8143 0.0493
vn -0.5290 -0.1210 0.8399
vn -0.4901 0.7400 0.4606
vn 0.7571 0.1439 -0.6372
vn 0.5451 0.5859 -0.5997
vn 0.4420 0.6161 -0.6520
vn 0.0625 0.9215 -0.3832
vn -0.7442 0.5618 -0.3613
vn -0.9357 0.3176 0.1538
vn 0.6694 -0.0733 0.7393
vn 0.9150 -0.0789 -0.3957
vn -0.2276 -0.1150 -0.9670
vn -0.1638 -0.0345 -0.9859
vn 0.2567 0.1872 -0.9482
vn -0.9935 -0.1098 -0.0295
vn -0.9350 -0.3195 0.1537
vn -0.3616 -0.1462 0.9208
vn -0.1541 -0.2895 0.9447
vn -0.1111 0.7241 0.6807
vn 0.6874 -0.0908 0.7206
vn 0.3751 0.6357 0.6747
vn 0.0969 0.1907 0.9769
vn 0.1656 0.6948 0.6999
vn 0.2527 0.7225 0.6435
vn 0.2175 0.9537 0.2077
vn 0.6433 0.6720 -0.3667
vn 0.3869 0.4085 -0.8267
vn -0.9861 -0.0977 0.1340
vn -0.1903 -0.1052 0.9761
vn 0.9215 -0.1528 0.3570
vn 0.9055 -0.0461 0.4219
vn 0.6285 0.2468 0.7376
vn 0.5832 -0.1460 -0.7991
vn 0.3865 -0.4108 -0.8258
vn -0.5506 -0.1938 -0.8119
vn -0.6704 -0.3748 -0.6404
vn -0.4197 0.8143 -0.4009
vn -0.9798 -0.1210 0.1593
vn -0.6696 0.7400 -0.0626
vn -0.7578 0.1907 0.6240
vn -0.4895 0.6948 0.5270
vn -0.3941 0.7225 0.5680
vn -0.0516 0.9537 0.2963
vn 0.6626 0.6720 0.3306
vn 0.9022 0.4085 -0.1384
vn -0.6600 -0.0977 -0.7449
vn -0.9170 -0.1051 0.3849
vn 0.2160 -0.1529 0.9643
vn 0.1531 -0.0461 0.9871
vn -0.2633 0.2468 0.9326
vn 0.9885 -0.1460 0.0400
vn 0.9012 -0.4108 -0.1382
vn 0.3684 -0.1938 -0.9093
vn 0.1591 -0.3747 -0.9134
vn 0.0996 0.8143 -0.5718
vn -0.6774 -0.1209 -0.7256
vn -0.3205 0.7400 -0.5913
vn -0.4894 0.6948 0.5270
vn -0.9170 -0.1052 0.3848
vn 0.2160 -0.1528 0.9644
vn 0.3683 -0.1938 -0.9093
vn 0.1592 -0.3748 -0.9134
vn -0.6774 -0.1210 -0.7256
vn -0.3205 0.7401 -0.5913
vn -0.1635 0.1067 -0.9808
vn -0.2596 0.4708 -0.8432
vn -0.3693 0.5000 -0.7833
vn -0.3804 0.8685 -0.3179
vn -0.7456 0.4482 0.4932
vn -0.3524 0.2400 0.9046
vn 0.9784 -0.0542 -0.1997
vn 0.1257 -0.0583 -0.9903
vn -0.9509 -0.0851 -0.2976
vn -0.9321 -0.0255 -0.3613
vn -0.6907 0.1393 -0.7096
vn -0.5329 -0.0813 0.8423
vn -0.3523 -0.2415 0.9042
vn 0.6113 -0.1085 0.7840
vn 0.7489 -0.2179 0.6259
vn 0.6065 0.6126 0.5069
vn 0.9720 -0.0672 -0.2250
vn 0.8542 0.5194 0.0230
vn -0.9809 0.1907 -0.0378
vn -0.7159 0.6948 0.0682
vn -0.6720 0.7225 0.1622
vn -0.2355 0.9537 0.1870
vn 0.2752 0.6721 0.6875
vn 0.7659 0.4085 0.4965
vn 0.0023 -0.0977 -0.9952
vn -0.9408 -0.1052 -0.3222
vn -0.4798 -0.1528 0.8639
vn -0.5419 -0.0461 0.8391
vn -0.8168 0.2468 0.5215
vn 0.7117 -0.1460 0.6871
vn 0.7650 -0.4108 0.4960
vn 0.8797 -0.1938 -0.4343
vn 0.7262 -0.3748 -0.5764
vn 0.4546 0.8143 -0.3609
vn -0.0236 -0.1210 -0.9924
vn 0.1538 0.7401 -0.6547
vn -0.9734 0.1907 -0.1267
vn -0.7192 0.6948 0.0029
vn -0.6840 0.7225 0.1005
vn -0.2516 0.9537 0.1648
vn 0.2116 0.6720 0.7096
vn 0.7176 0.4085 0.5640
vn 0.0926 -0.0977 -0.9909
vn -0.9077 -0.1052 -0.4063
vn -0.5563 -0.1528 0.8168
vn -0.6159 -0.0461 0.7864
vn -0.8607 0.2468 0.4452
vn 0.6464 -0.1460 0.7489
vn 0.7168 -0.4108 0.5634
vn 0.9155 -0.1938 -0.3526
vn 0.7755 -0.3748 -0.5081
vn 0.4855 0.8143 -0.3181
vn 0.0666 -0.1210 -0.9904
vn 0.2126 0.7400 -0.6381
vt 0.000000 0.000000
vt 1.000000 0.000000
vt 1.000000 1.000000
vt 0.000000 1.000000
vt 0.534400 -0.184000
s 0
usemtl rocks
f 5/1/1 2/2/1 7/3/1
f 7/3/2 6/4/2 5/1/2
f 6/1/3 7/2/3 9/3/3
f 9/3/4 8/4/4 6/1/4
f 8/1/5 9/2/5 11/3/5
f 11/3/6 12/4/6 8/1/6
f 10/1/7 1/2/7 5/3/7
f 1/1/8 2/2/8 5/3/8
f 3/3/9 11/4/9 2/1/9
f 2/3/10 11/4/10 9/1/10
f 9/1/11 7/5/11 2/3/11
f 3/1/12 4/2/12 12/3/12
f 12/3/13 11/4/13 3/1/13
f 4/1/14 10/2/14 13/3/14
f 13/3/15 12/4/15 4/1/15
f 12/3/16 13/4/16 6/1/16
f 6/1/16 8/2/16 12/3/16
f 13/3/17 10/4/17 5/1/17
f 5/1/18 6/2/18 13/3/18
f 18/1/19 15/2/19 20/3/19
f 20/3/20 19/4/20 18/1/20
f 19/1/21 20/2/21 22/3/21
f 22/3/22 21/4/22 19/1/22
f 21/1/23 22/2/23 24/3/23
f 24/3/24 25/4/24 21/1/24
f 23/1/25 14/2/25 18/3/25
f 14/1/26 15/2/26 18/3/26
f 16/3/27 24/4/27 15/1/27
f 15/3/28 24/4/28 22/1/28
f 22/1/29 20/5/29 15/3/29
f 16/1/30 17/2/30 25/3/30
f 25/3/31 24/4/31 16/1/31
f 17/1/32 23/2/32 26/3/32
f 26/3/33 25/4/33 17/1/33
f 25/3/34 26/4/34 19/1/34
f 19/1/34 21/2/34 25/3/34
f 26/3/35 23/4/35 18/1/35
f 18/1/36 19/2/36 26/3/36
f 31/1/37 28/2/37 33/3/37
f 33/3/38 32/4/38 31/1/38
f 32/1/39 33/2/39 35/3/39
f 35/3/40 34/4/40 32/1/40
f 34/1/41 35/2/41 37/3/41
f 37/3/42 38/4/42 34/1/42
f 36/1/43 27/2/43 31/3/43
f 27/1/44 28/2/44 31/3/44
f 29/3/45 37/4/45 28/1/45
f 28/3/46 37/4/46 35/1/46
f 35/1/47 33/5/47 28/3/47
f 29/1/48 30/2/48 38/3/48
f 38/3/49 37/4/49 29/1/49
f 30/1/50 36/2/50 39/3/50
f 39/3/51 38/4/51 30/1/51
f 38/3/52 39/4/52 32/1/52
f 32/1/52 34/2/52 38/3/52
f 39/3/53 36/4/53 31/1/53
f 31/1/54 32/2/54 39/3/54
f 44/1/55 41/2/55 46/3/55
f 46/3/56 45/4/56 44/1/56
f 45/1/57 46/2/57 48/3/57
f 48/3/58 47/4/58 45/1/58
f 47/1/59 48/2/59 50/3/59
f 50/3/60 51/4/60 47/1/60
f 49/1/61 40/2/61 44/3/61
f 40/1/62 41/2/62 44/3/62
f 42/3/63 50/4/63 41/1/63
f 41/3/64 50/4/64 48/1/64
f 48/1/65 46/5/65 41/3/65
f 42/1/66 43/2/66 51/3/66
f 51/3/67 50/4/67 42/1/67
f 43/1/68 49/2/68 52/3/68
f 52/3/69 51/4/69 43/1/69
f 51/3/70 52/4/70 45/1/70
f 45/1/70 47/2/70 51/3/70
f 52/3/71 49/4/71 44/1/71
f 44/1/72 45/2/72 52/3/72
f 57/1/73 54/2/73 59/3/73
f 59/3/74 58/4/74 57/1/74
f 58/1/75 59/2/75 61/3/75
f 61/3/76 60/4/76 58/1/76
f 60/1/77 61/2/77 63/3/77
f 63/3/78 64/4/78 60/1/78
f 62/1/79 53/2/79 57/3/79
f 53/1/80 54/2/80 57/3/80
f 55/3/81 63/4/81 54/1/81
f 54/3/82 63/4/82 61/1/82
f 61/1/83 59/5/83 54/3/83
f 55/1/84 56/2/84 64/3/84
f 64/3/85 63/4/85 55/1/85
f 56/1/86 62/2/86 65/3/86
f 65/3/87 64/4/87 56/1/87
f 64/3/88 65/4/88 58/1/88
f 58/1/88 60/2/88 64/3/88
f 65/3/89 62/4/89 57/1/89
f 57/1/90 58/2/90 65/3/90
f 70/1/73 67/2/73 72/3/73
f 72/3/91 71/4/91 70/1/91
f 71/1/75 72/2/75 74/3/75
f 74/3/76 73/4/76 71/1/76
f 73/1/77 74/2/77 76/3/77
f 76/3/78 77/4/78 73/1/78
f 75/1/79 66/2/79 70/3/79
f 66/1/92 67/2/92 70/3/92
f 68/3/93 76/4/93 67/1/93
f 67/3/82 76/4/82 74/1/82
f 74/1/83 72/5/83 67/3/83
f 68/1/84 69/2/84 77/3/84
f 77/3/85 76/4/85 68/1/85
f 69/1/94 75/2/94 78/3/94
f 78/3/95 77/4/95 69/1/95
f 77/3/88 78/4/88 71/1/88
f 71/1/88 73/2/88 77/3/88
f 78/3/96 75/4/96 70/1/96
f 70/1/97 71/2/97 78/3/97
f 83/1/98 80/2/98 85/3/98
f 85/3/99 84/4/99 83/1/99
f 84/1/100 85/2/100 87/3/100
f 87/3/101 86/4/101 84/1/101
f 86/1/102 87/2/102 89/3/102
f 89/3/103 90/4/103 86/1/103
f 88/1/104 79/2/104 83/3/104
f 79/1/105 80/2/105 83/3/105
f 81/3/106 89/4/106 80/1/106
f 80/3/107 89/4/107 87/1/107
f 87/1/108 85/5/108 80/3/108
f 81/1/109 82/2/109 90/3/109
f 90/3/110 89/4/110 81/1/110
f 82/1/111 88/2/111 91/3/111
f 91/3/112 90/4/112 82/1/112
f 90/3/113 91/4/113 84/1/113
f 84/1/113 86/2/113 90/3/113
f 91/3/114 88/4/114 83/1/114
f 83/1/115 84/2/115 91/3/115
f 96/1/116 93/2/116 98/3/116
f 98/3/117 97/4/117 96/1/117
f 97/1/118 98/2/118 100/3/118
f 100/3/119 99/4/119 97/1/119
f 99/1/120 100/2/120 102/3/120
f 102/3/121 103/4/121 99/1/121
f 101/1/122 92/2/122 96/3/122
f 92/1/123 93/2/123 96/3/123
f 94/3/124 102/4/124 93/1/124
f 93/3/125 102/4/125 100/1/125
f 100/1/126 98/5/126 93/3/126
f 94/1/127 95/2/127 103/3/127
f 103/3/128 102/4/128 94/1/128
f 95/1/129 101/2/129 104/3/129
f 104/3/130 103/4/130 95/1/130
f 103/3/131 104/4/131 97/1/131
f 97/1/131 99/2/131 103/3/131
f 104/3/132 101/4/132 96/1/132
f 96/1/133 97/2/133 104/3/133
f 109/1/134 106/2/134 111/3/134
f 111/3/135 110/4/135 109/1/135
f 110/1/136 111/2/136 113/3/136
f 113/3/137 112/4/137 110/1/137
f 112/1/138 113/2/138 115/3/138
f 115/3/139 116/4/139 112/1/139
f 114/1/140 105/2/140 109/3/140
f 105/1/141 106/2/141 109/3/141
f 107/3/142 115/4/142 106/1/142
f 106/3/143 115/4/143 113/1/143
f 113/1/144 111/5/144 106/3/144
f 107/1/145 108/2/145 116/3/145
f 116/3/146 115/4/146 107/1/146
f 108/1/147 114/2/147 117/3/147
f 117/3/148 116/4/148 108/1/148
f 116/3/149 117/4/149 110/1/149
f 110/1/149 112/2/149 116/3/149
f 117/3/150 114/4/150 109/1/150
f 109/1/151 110/2/151 117/3/151
