mtllib rocks.mtl
o Rocks4
v -3.776735 -0.092487 -6.974432
v -5.736552 -0.092487 -3.201864
v -2.462938 -0.092487 -0.681567
v 0.876084 -0.092487 -3.240269
v -4.053777 5.821385 -7.456266
v -2.633467 7.968143 -4.985988
v -4.901810 4.932954 -3.681785
v -0.842030 7.968143 -1.870214
v -3.110399 6.865560 -0.566011
v -0.140224 -0.092487 -6.419483
v -1.574926 4.558864 0.681489
v 2.261029 4.558864 -3.654337
v 0.469618 4.558864 -6.770110
v -7.268329 -0.136948 -4.701947
v -10.494729 -0.136948 -9.736958
v -10.494730 -0.136948 -0.656454
v -14.283315 -0.136948 -8.590831
v -15.084240 -0.136948 -1.646181
v -15.863379 -0.136948 -7.511948
v -6.486488 5.987484 -4.701947
v -10.494730 7.614474 -4.701947
v -10.494729 6.778840 -8.382525
v -15.550344 7.614474 -4.701947
v -15.550344 6.778840 -8.382525
v -15.550344 7.036745 -1.849243
v -6.098688 2.446868 -4.701947
v -15.550344 2.446868 -9.736958
v -18.148186 2.446868 -7.384778
v -17.405931 2.446868 -4.701948
v -15.550344 2.446868 0.333036
v -10.494730 2.446868 0.333036
v -7.925464 2.982810 0.333036
v -10.494729 2.446868 -9.736958
v -15.550344 5.030658 -9.736958
v -18.148186 5.030658 -7.384778
v -17.405931 5.030658 -4.701948
v -15.550344 5.030658 0.333036
v -10.494730 5.030658 0.333036
v -1.084625 -0.177555 5.772520
v -6.037713 -0.177555 4.601017
v -4.058523 -0.177555 12.266637
v -0.606278 3.637140 5.309902
v -3.058599 5.021902 7.681532
v -5.236342 4.310686 5.429678
v -6.374158 2.822767 10.769937
v -6.654843 2.822767 7.824352
v -8.005867 -0.177555 9.138830
v -0.664948 -0.177555 10.156634
v -3.172609 2.822767 11.853225
v 3.605603 -0.121245 -0.149164
v 0.816916 -0.121245 -0.808737
v -0.291172 -0.121245 1.746138
v 1.931269 -0.121245 3.507166
v 3.874937 2.861906 -0.409611
v 2.494212 3.944801 0.925656
v 1.268105 2.413759 -0.342186
v 0.752741 3.944801 2.609822
v -0.473367 3.388647 1.341979
v 3.841880 -0.121245 2.319201
v -1.035865 2.225062 2.551073
v 2.430038 2.225062 4.344189
v 4.171509 2.225062 2.660050
v 11.885077 -0.086746 -5.979933
v 9.702536 -0.086746 -5.436362
v 9.849105 -0.086746 -3.255473
v 12.033087 -0.086746 -2.826987
v 11.979189 3.042135 -6.258548
v 11.496699 4.177906 -4.830242
v 10.185156 2.572072 -5.273331
v 10.888088 4.177906 -3.028765
v 9.576571 3.594567 -3.471827
v 12.938243 -0.086746 -4.343270
v 9.619381 2.374147 -2.426000
v 12.682253 2.374147 -2.422644
v 13.290836 2.374147 -4.224148
v 9.484635 -0.136817 0.087717
v 8.635029 -0.136817 -1.501524
v 6.969346 -0.136817 -0.960653
v 7.064061 -0.136817 0.820010
v 9.719522 1.739164 0.106277
v 8.515383 2.420155 0.011063
v 8.602837 1.457352 -1.094638
v 6.996635 2.420155 -0.109054
v 7.084089 2.070419 -1.214730
v 8.419278 -0.136817 1.226371
v 6.279940 1.338676 -0.976723
v 6.877016 1.338676 1.403533
v 8.395763 1.338676 1.523624
v 14.471356 -0.123421 3.082639
v 15.062088 -0.123421 1.974813
v 14.103374 -0.123421 1.220184
v 13.109219 -0.123421 1.965166
v 14.551627 1.183561 3.225826
v 14.140076 1.658002 2.491828
v 14.814067 0.987209 2.113884
v 13.620964 1.658002 1.566041
v 14.294954 1.414333 1.188097
v 13.399236 -0.123421 2.907207
v 13.845496 0.904553 0.814846
v 12.698925 0.904553 2.083029
v 13.218037 0.904553 3.008816
v 19.080030 -0.147172 0.823052
v 19.563227 -0.147172 -0.083100
v 18.779053 -0.147172 -0.700388
v 17.965860 -0.147172 -0.091018
v 19.145697 0.921908 0.940181
v 18.809044 1.309970 0.339776
v 19.360373 0.761287 0.030647
v 18.384436 1.309970 -0.417501
v 18.935741 1.110656 -0.726630
v 18.203081 -0.147172 0.679576
v 18.568100 0.693652 -1.031957
v 17.630226 0.693652 0.005402
v 18.054861 0.693652 0.762678
vn -0.9722 0.1439 -0.1846
vn -0.8092 0.5859 -0.0439
vn -0.7847 0.6161 0.0690
vn -0.3366 0.9215 0.1936
vn 0.1899 0.5618 0.8052
vn 0.7102 0.3176 0.6283
vn 0.1505 -0.0733 -0.9859
vn -0.8846 -0.0789 -0.4596
vn -0.6060 -0.1150 0.7871
vn -0.6609 -0.0345 0.7497
vn -0.8973 0.1872 0.3998
vn 0.6046 -0.1098 0.7889
vn 0.7097 -0.3195 0.6279
vn 0.9423 -0.1462 -0.3012
vn 0.8298 -0.2895 -0.4771
vn 0.5979 0.7241 -0.3438
vn 0.1245 -0.0908 -0.9881
vn 0.2862 0.6357 -0.7170
vn 0.6831 0.2179 -0.6971
vn 0.3681 0.9067 -0.2059
vn -0.0000 0.9801 0.1985
vn -0.0000 0.9752 -0.2214
vn -0.8066 0.5793 0.1173
vn -0.5955 0.7834 -0.1779
vn -0.7925 0.5691 0.2193
vn 0.8532 -0.3862 0.3507
vn 0.8420 -0.0000 -0.5395
vn 0.7130 -0.3227 -0.6225
vn 0.9385 0.1028 0.3296
vn 0.7507 0.0822 -0.6555
vn -0.2519 -0.4929 -0.8328
vn -0.0000 -0.0000 -1.0000
vn -0.5127 -0.4164 -0.7508
vn -0.5607 -0.5496 -0.6193
vn -0.6712 -0.0000 -0.7413
vn 0.2987 0.5845 -0.7544
vn -0.0000 0.2984 -0.9544
vn -0.5820 0.4980 -0.6428
vn -0.7987 -0.5922 0.1061
vn -0.7288 -0.6544 0.2016
vn -0.8607 -0.3982 0.3172
vn -0.9638 -0.0000 0.2667
vn -0.9383 -0.0000 0.3458
vn -0.8782 0.3521 0.3237
vn -0.1974 -0.3506 0.9155
vn -0.0000 -0.6081 0.7939
vn 0.5982 -0.6439 0.4770
vn 0.0744 -0.3566 0.9313
vn -0.0000 -0.0000 1.0000
vn -0.0000 0.8897 0.4566
vn 0.2854 0.7056 0.6486
vn 0.5238 0.6572 0.5419
vn 0.3397 0.8368 0.4294
vn 0.0009 0.1814 -0.9834
vn 0.1215 0.9067 -0.4038
vn -0.1548 0.8757 0.4574
vn -0.5023 0.8358 0.2218
vn -0.5196 0.8530 0.0495
vn 0.9863 -0.1351 -0.0944
vn 0.2277 -0.1453 -0.9628
vn -0.8923 0.2323 -0.3870
vn -0.8933 0.2307 -0.3858
vn -0.8940 0.4399 0.0852
vn -0.5963 0.2797 0.7525
vn -0.3034 -0.3225 0.8966
vn 0.5276 -0.0389 0.8486
vn 0.8086 0.5110 0.2915
vn 0.7228 0.5388 0.4328
vn -0.0581 0.1907 -0.9799
vn -0.1377 0.6948 -0.7059
vn -0.2270 0.7225 -0.6530
vn -0.2091 0.9537 -0.2162
vn -0.6574 0.6720 0.3409
vn -0.4194 0.4085 0.8107
vn 0.9907 -0.0977 -0.0948
vn 0.2289 -0.1052 -0.9678
vn -0.9066 -0.1529 -0.3932
vn -0.8880 -0.0461 -0.4575
vn -0.5987 0.2468 -0.7620
vn -0.6144 -0.1460 0.7754
vn -0.4189 -0.4108 0.8098
vn 0.5180 -0.1938 0.8331
vn 0.6445 -0.3748 0.6665
vn 0.4035 0.8143 0.4172
vn 0.9853 -0.1210 -0.1203
vn 0.6666 0.7401 0.0891
vn -0.5050 0.1439 -0.8510
vn -0.5026 0.5859 -0.6357
vn -0.5710 0.6161 -0.5426
vn -0.3679 0.9215 -0.1243
vn -0.4780 0.5618 0.6752
vn -0.0010 0.3176 0.9482
vn 0.8387 -0.0733 -0.5397
vn -0.2409 -0.0789 -0.9673
vn -0.9911 -0.1150 0.0666
vn -0.9994 -0.0345 0.0006
vn -0.8935 0.1872 -0.4081
vn -0.1914 -0.1098 0.9754
vn -0.0010 -0.3195 0.9476
vn 0.8494 -0.1462 0.5071
vn 0.9068 -0.2895 0.3063
vn 0.6534 0.7241 0.2207
vn 0.8231 -0.0908 -0.5605
vn 0.7269 0.6357 -0.2599
vn 0.6962 0.1907 -0.6921
vn 0.4381 0.6948 -0.5704
vn 0.3393 0.7225 -0.6023
vn 0.0237 0.9537 -0.2998
vn -0.6906 0.6720 -0.2672
vn -0.8853 0.4085 0.2221
vn 0.7267 -0.0977 0.6799
vn 0.8770 -0.1052 -0.4688
vn -0.3052 -0.1528 -0.9399
vn -0.2447 -0.0461 -0.9685
vn 0.1750 0.2468 -0.9531
vn -0.9879 -0.1460 0.0525
vn -0.8843 -0.4108 0.2218
vn -0.2818 -0.1938 0.9397
vn -0.0731 -0.3748 0.9242
vn -0.0458 0.8143 0.5786
vn 0.7423 -0.1210 0.6591
vn 0.3743 0.7400 0.5587
vn 0.9624 0.1907 0.1935
vn 0.7177 0.6948 0.0467
vn 0.6893 0.7225 -0.0532
vn 0.2623 0.9537 -0.1471
vn -0.1622 0.6720 -0.7225
vn -0.6771 0.4085 -0.6121
vn -0.1607 -0.0977 0.9822
vn 0.8775 -0.1052 0.4679
vn 0.6112 -0.1529 -0.7765
vn 0.6686 -0.0461 -0.7422
vn 0.8894 0.2468 -0.3848
vn -0.5932 -0.1460 -0.7917
vn -0.6763 -0.4108 -0.6115
vn -0.9376 -0.1938 0.2887
vn -0.8087 -0.3748 0.4534
vn -0.5063 0.8143 0.2839
vn -0.1347 -0.1210 0.9835
vn -0.2560 0.7401 0.6219
vn 0.6113 -0.1529 -0.7765
vn 0.6687 -0.0461 -0.7421
vn 0.8894 0.2468 -0.3849
vn -0.6763 -0.4108 -0.6114
vn -0.9376 -0.1938 0.2886
vn -0.1347 -0.1209 0.9835
vn -0.2561 0.7401 0.6219
vt 0.000000 0.000000
vt 1.000000 0.000000
vt 1.000000 1.000000
vt 0.000000 1.000000
vt 0.534400 -0.184000
vt 0.406200 0.019200
vt 0.383600 -0.495400
vt 0.377000 0.898000
s 0
usemtl rocks
f 5/1/1 2/2/1 7/3/1
f 7/3/2 6/4/2 5/1/2
f 6/1/3 7/2/3 9/3/3
f 9/3/4 8/4/4 6/1/4
f 8/1/5 9/2/5 11/3/5
f 11/3/6 12/4/6 8/1/6
f 10/1/7 1/2/7 5/3/7
f 1/1/8 2/2/8 5/3/8
f 3/3/9 11/4/9 2/1/9
f 2/3/10 11/4/10 9/1/10
f 9/1/11 7/5/11 2/3/11
f 3/1/12 4/2/12 12/3/12
f 12/3/13 11/4/13 3/1/13
f 4/1/14 10/2/14 13/3/14
f 13/3/15 12/4/15 4/1/15
f 12/3/16 13/4/16 6/1/16
f 6/1/16 8/2/16 12/3/16
f 13/3/17 10/4/17 5/1/17
f 5/1/18 6/2/18 13/3/18
f 20/3/19 33/4/19 22/1/19
f 22/1/20 21/6/20 20/3/20
f 21/1/21 23/2/21 25/3/21
f 21/1/22 22/2/22 24/3/22
f 24/3/22 23/4/22 21/1/22
f 23/3/23 36/4/23 25/1/23
f 23/1/24 24/2/24 35/3/24
f 35/3/25 36/4/25 23/1/25
f 14/1/26 26/2/26 32/3/26
f 14/1/27 15/2/27 33/3/27
f 33/3/28 26/4/28 14/1/28
f 32/3/29 26/4/29 20/1/29
f 26/3/30 33/4/30 20/1/30
f 15/1/31 17/2/31 27/3/31
f 27/3/32 33/4/32 15/1/32
f 17/1/33 19/2/33 28/3/33
f 28/3/34 27/4/34 17/1/34
f 27/3/32 34/4/32 33/1/32
f 27/1/35 28/2/35 35/3/35
f 35/3/35 34/4/35 27/1/35
f 33/3/36 34/4/36 24/1/36
f 24/1/37 22/2/37 33/3/37
f 34/3/38 35/4/38 24/1/38
f 19/1/39 18/2/39 29/3/39
f 29/3/40 28/4/40 19/1/40
f 18/3/41 30/4/41 29/1/41
f 28/1/42 29/2/42 36/3/42
f 36/3/42 35/4/42 28/1/42
f 29/1/43 30/2/43 37/3/43
f 37/3/43 36/4/43 29/1/43
f 36/3/44 37/4/44 25/1/44
f 18/1/45 16/2/45 31/3/45
f 31/3/46 30/4/46 18/1/46
f 16/1/47 14/2/47 32/3/47
f 32/3/48 31/4/48 16/1/48
f 30/1/49 31/2/49 38/3/49
f 38/3/49 37/4/49 30/1/49
f 31/1/49 32/2/49 38/3/49
f 37/3/50 38/4/50 21/1/50
f 21/1/51 25/2/51 37/3/51
f 38/3/52 32/4/52 20/1/52
f 20/1/53 21/2/53 38/3/53
f 42/1/54 40/2/54 44/3/54
f 44/3/55 43/4/55 42/1/55
f 43/1/56 45/2/56 49/3/56
f 43/1/57 44/2/57 46/3/57
f 46/3/58 45/4/58 43/1/58
f 48/1/59 39/2/59 42/3/59
f 39/1/60 40/2/60 42/3/60
f 40/3/61 47/4/61 46/1/61
f 46/1/62 44/7/62 40/3/62
f 47/1/63 45/2/63 46/3/63
f 47/1/64 41/2/64 49/3/64
f 49/3/65 45/8/65 47/1/65
f 41/1/66 48/2/66 49/3/66
f 49/3/67 48/4/67 43/1/67
f 48/1/68 42/2/68 43/3/68
f 54/1/69 51/2/69 56/3/69
f 56/3/70 55/4/70 54/1/70
f 55/1/71 56/2/71 58/3/71
f 58/3/72 57/4/72 55/1/72
f 57/1/73 58/2/73 60/3/73
f 60/3/74 61/4/74 57/1/74
f 59/1/75 50/2/75 54/3/75
f 50/1/76 51/2/76 54/3/76
f 52/3/77 60/4/77 51/1/77
f 51/3/78 60/4/78 58/1/78
f 58/1/79 56/5/79 51/3/79
f 52/1/80 53/2/80 61/3/80
f 61/3/81 60/4/81 52/1/81
f 53/1/82 59/2/82 62/3/82
f 62/3/83 61/4/83 53/1/83
f 61/3/84 62/4/84 55/1/84
f 55/1/84 57/2/84 61/3/84
f 62/3/85 59/4/85 54/1/85
f 54/1/86 55/2/86 62/3/86
f 67/1/87 64/2/87 69/3/87
f 69/3/88 68/4/88 67/1/88
f 68/1/89 69/2/89 71/3/89
f 71/3/90 70/4/90 68/1/90
f 70/1/91 71/2/91 73/3/91
f 73/3/92 74/4/92 70/1/92
f 72/1/93 63/2/93 67/3/93
f 63/1/94 64/2/94 67/3/94
f 65/3/95 73/4/95 64/1/95
f 64/3/96 73/4/96 71/1/96
f 71/1/97 69/5/97 64/3/97
f 65/1/98 66/2/98 74/3/98
f 74/3/99 73/4/99 65/1/99
f 66/1/100 72/2/100 75/3/100
f 75/3/101 74/4/101 66/1/101
f 74/3/102 75/4/102 68/1/102
f 68/1/102 70/2/102 74/3/102
f 75/3/103 72/4/103 67/1/103
f 67/1/104 68/2/104 75/3/104
f 80/1/105 77/2/105 82/3/105
f 82/3/106 81/4/106 80/1/106
f 81/1/107 82/2/107 84/3/107
f 84/3/108 83/4/108 81/1/108
f 83/1/109 84/2/109 86/3/109
f 86/3/110 87/4/110 83/1/110
f 85/1/111 76/2/111 80/3/111
f 76/1/112 77/2/112 80/3/112
f 78/3/113 86/4/113 77/1/113
f 77/3/114 86/4/114 84/1/114
f 84/1/115 82/5/115 77/3/115
f 78/1/116 79/2/116 87/3/116
f 87/3/117 86/4/117 78/1/117
f 79/1/118 85/2/118 88/3/118
f 88/3/119 87/4/119 79/1/119
f 87/3/120 88/4/120 81/1/120
f 81/1/120 83/2/120 87/3/120
f 88/3/121 85/4/121 80/1/121
f 80/1/122 81/2/122 88/3/122
f 93/1/123 90/2/123 95/3/123
f 95/3/124 94/4/124 93/1/124
f 94/1/125 95/2/125 97/3/125
f 97/3/126 96/4/126 94/1/126
f 96/1/127 97/2/127 99/3/127
f 99/3/128 100/4/128 96/1/128
f 98/1/129 89/2/129 93/3/129
f 89/1/130 90/2/130 93/3/130
f 91/3/131 99/4/131 90/1/131
f 90/3/132 99/4/132 97/1/132
f 97/1/133 95/5/133 90/3/133
f 91/1/134 92/2/134 100/3/134
f 100/3/135 99/4/135 91/1/135
f 92/1/136 98/2/136 101/3/136
f 101/3/137 100/4/137 92/1/137
f 100/3/138 101/4/138 94/1/138
f 94/1/138 96/2/138 100/3/138
f 101/3/139 98/4/139 93/1/139
f 93/1/140 94/2/140 101/3/140
f 106/1/123 103/2/123 108/3/123
f 108/3/124 107/4/124 106/1/124
f 107/1/125 108/2/125 110/3/125
f 110/3/126 109/4/126 107/1/126
f 109/1/127 110/2/127 112/3/127
f 112/3/128 113/4/128 109/1/128
f 111/1/129 102/2/129 106/3/129
f 102/1/130 103/2/130 106/3/130
f 104/3/141 112/4/141 103/1/141
f 103/3/142 112/4/142 110/1/142
f 110/1/143 108/5/143 103/3/143
f 104/1/134 105/2/134 113/3/134
f 113/3/144 112/4/144 104/1/144
f 105/1/145 111/2/145 114/3/145
f 114/3/137 113/4/137 105/1/137
f 113/3/138 114/4/138 107/1/138
f 107/1/138 109/2/138 113/3/138
f 114/3/146 111/4/146 106/1/146
f 106/1/147 107/2/147 114/3/147
