mtllib asshole.mtl
o Asshole
v 0.757184 2.402110 -4.334824
v 0.345739 2.604548 -4.034578
v 0.355672 2.371460 -4.958544
v -0.307147 2.603869 -4.028356
v 0.317632 2.141389 -5.236999
v 0.589044 1.622930 -5.396312
v 0.307273 1.692551 -5.548803
v -0.300862 1.709953 -5.577132
v -0.342455 2.173649 -5.236272
v 0.158445 1.143616 -6.215853
v 0.533065 1.136652 -5.967259
v 0.395401 0.900880 -5.693858
v 0.750583 1.016500 -5.410429
v 0.782165 1.181672 -5.390090
v 0.849844 1.970232 -4.488594
v 0.853018 1.417492 -4.823864
v 0.531897 0.773496 -5.102856
v -0.461201 0.899222 -5.690541
v -0.353208 2.382956 -4.958402
v -0.748815 2.374634 -4.358999
v -0.590291 1.617592 -5.446447
v -0.807872 1.989355 -4.494168
v -0.936536 1.611923 -2.897830
v -0.834290 2.328762 -2.841268
v -0.514416 1.125267 -5.976892
v -0.210002 1.145511 -6.221649
v -0.737635 1.018979 -5.489983
v -0.764353 1.181925 -5.401223
v -0.786760 0.901449 -4.850819
v -0.862777 1.415297 -4.833670
v -0.581006 0.772848 -5.047446
v 1.441857 0.222176 -1.114561
v 1.629767 0.222176 -1.114561
v 1.629767 0.043535 -5.563647
v 1.441857 0.043535 -5.563647
v -1.644184 0.195695 -0.926524
v -1.440862 0.195695 -0.926524
v -1.372314 0.013485 -5.794744
v -1.575636 0.013485 -5.794744
v 0.316668 2.983464 -3.872769
v 0.123563 2.875913 0.364815
v 0.267559 2.675843 0.316400
v 0.248515 1.536112 -5.907681
v -0.282402 1.540644 -5.901412
v 0.542587 1.436393 -5.741135
v -0.200748 1.349528 -6.206079
v 0.165187 1.342185 -6.200095
v 0.272454 2.137567 0.294956
v 0.696721 0.895085 -1.410102
v 0.292303 1.227639 -0.205722
v -0.019596 0.858624 -1.244772
v 0.000616 1.197984 -0.104835
v -0.011069 2.054397 0.416987
v 0.875062 0.830880 -2.329820
v 0.824042 0.770353 -3.724952
v 0.797877 0.770353 -3.864479
v 0.014006 2.908505 4.357768
v 0.083486 2.687971 4.349588
v -0.560068 2.576946 -3.104626
v -0.275960 2.981727 -3.877522
v -0.350713 3.100758 -3.038258
v -0.662802 2.539459 -1.321515
v -0.140096 2.868618 0.371131
v -0.476155 2.534548 -0.295840
v -0.279544 2.679697 0.291308
v -0.359367 3.106742 -0.383290
v -0.551588 1.433187 -5.767395
v -0.867798 0.889448 -3.714782
v -0.492894 2.065545 -0.042588
v -0.292935 1.234603 -0.197874
v -0.297625 2.137614 0.302946
v -0.812231 1.664538 -1.293250
v -0.677977 0.909581 -1.293250
v -0.923493 0.847128 -2.335094
v -0.818279 0.770353 -3.681906
v -0.818279 0.770353 -3.877886
v -0.051210 2.908505 4.357768
v -0.124605 2.697414 4.353725
v 0.934388 2.531311 2.156232
v -0.017591 2.532463 2.174628
v -0.017591 2.593384 3.235722
v 1.096228 2.592626 3.223721
v -0.969586 2.533600 2.192993
v -1.131426 2.594126 3.247691
v 0.020039 2.600206 4.357768
v -0.075133 2.595800 4.357768
v -0.021191 2.678575 4.723640
v -0.017591 2.794306 5.013354
v -0.017591 2.908505 4.700870
v 0.360709 3.103016 -0.384127
v 0.346971 3.102890 -3.059575
v -0.017591 3.816570 5.043925
v -0.017591 3.824986 5.295109
v -0.034645 1.595580 4.858430
v -0.032545 1.668960 5.081538
v -1.295413 0.557557 -3.877886
v -1.295413 0.557557 -3.681906
v -1.528264 0.066005 -3.816838
v -1.528264 0.066005 -3.620859
v 1.272390 0.553467 -3.737111
v 1.272390 0.553467 -3.846651
v 0.797877 0.770353 -3.713314
v 1.527253 0.094555 -3.713314
v 1.527253 0.094555 -3.864479
v -1.295413 0.644769 -2.186629
v -1.295413 0.644769 -1.990634
v -0.873278 0.846039 -2.181134
v -1.528264 0.153218 -2.114244
v -1.528264 0.153218 -1.918249
v 1.272390 0.633937 -2.249919
v 1.272390 0.633937 -2.401084
v 0.754089 0.826774 -2.392336
v 0.754089 0.826774 -2.241171
v 1.527253 0.175025 -2.166022
v 1.527253 0.175025 -2.317188
v 0.959448 3.950239 4.998226
v -0.017591 3.764066 4.749000
v 1.096228 4.011555 5.466549
v -0.994646 3.952529 4.991799
v -1.131426 4.013039 5.482956
v 0.968465 1.611923 -2.897830
v 0.866219 2.328762 -2.841268
v 0.818689 0.901449 -4.850819
v 0.591997 2.576946 -3.104626
v 0.694731 2.539459 -1.321515
v 0.508084 2.534548 -0.295840
v 0.899727 0.889448 -3.714782
v 0.524838 2.065545 -0.042588
v 0.844160 1.664523 -1.293250
v 1.545681 0.932462 -3.238564
v 1.406722 0.756994 -3.238564
v 1.181893 0.824011 -3.238564
v 1.181893 1.040897 -3.238564
v 1.406722 1.107929 -3.238564
v 1.545681 0.932462 -5.104609
v 1.406722 0.756994 -5.104609
v 1.181893 0.824011 -5.104609
v 1.181893 1.040897 -5.104609
v 1.406722 1.107929 -5.104609
v 0.027223 1.105924 -3.546263
v 1.615666 1.105924 -3.615174
v 0.027223 1.105924 -4.476640
v 1.615666 1.105924 -4.124175
v -1.491234 0.932462 -3.238564
v -1.352276 0.756994 -5.104609
v -1.491234 0.932462 -5.104609
v -1.352276 0.756994 -3.238564
v -1.127446 0.824011 -5.104609
v -1.127446 0.824011 -3.238564
v -1.127446 1.040897 -5.104609
v -1.127446 1.040897 -3.238564
v -1.352276 1.107929 -5.104609
v -1.352276 1.107929 -3.238564
v -1.561219 1.105924 -4.124190
v -1.561219 1.105924 -3.615174
vn 0.2884 0.9292 -0.2313
vn -0.0033 0.9696 -0.2446
vn 0.5060 0.4842 -0.7138
vn 0.0545 0.5688 -0.8206
vn 0.0281 0.5937 -0.8042
vn 0.3282 -0.7908 -0.5167
vn 0.5434 -0.7514 -0.3744
vn 0.8069 0.3097 -0.5030
vn 0.8393 0.5029 -0.2066
vn 0.0011 -0.9775 -0.2109
vn 0.4982 -0.8168 -0.2911
vn 0.7791 0.3519 -0.5188
vn 0.7807 0.4252 -0.4580
vn -0.3270 0.9229 -0.2030
vn -0.7875 0.4915 -0.3718
vn -0.4838 0.4898 -0.7253
vn -0.9881 0.1450 -0.0513
vn -0.9854 0.1652 -0.0404
vn -0.3757 -0.7601 -0.5302
vn -0.6009 -0.6779 -0.4235
vn -0.9125 0.0699 -0.4031
vn -0.9893 -0.1098 -0.0962
vn -0.9093 0.2728 -0.3143
vn -0.9909 0.1246 -0.0504
vn -0.0091 -0.9809 -0.1944
vn -0.5355 -0.8043 -0.2578
vn -0.6425 -0.7434 -0.1861
vn -0.7967 0.3051 -0.5216
vn -0.7964 0.4679 -0.3833
vn -0.0000 0.9992 -0.0401
vn -0.0000 0.9993 -0.0374
vn 0.0021 0.8865 -0.4627
vn 0.0450 0.9130 -0.4054
vn 0.4436 0.7619 -0.4719
vn 0.0179 0.0785 -0.9968
vn 0.5529 0.0472 -0.8319
vn 0.8619 0.4206 -0.2830
vn 0.8753 0.2732 -0.3991
vn 0.5493 0.4920 -0.6754
vn 0.6444 0.5398 -0.5416
vn 0.4938 0.7646 -0.4142
vn 0.8976 0.3256 -0.2971
vn 0.0006 0.8333 -0.5528
vn 0.0257 0.8499 -0.5263
vn 0.1915 -0.9416 0.2769
vn 0.4614 -0.4570 0.7604
vn 0.3325 -0.4491 0.8293
vn 0.1176 -0.9464 0.3008
vn 0.9538 0.2996 0.0237
vn 0.8152 0.5781 0.0355
vn -0.9500 0.1802 -0.2549
vn -0.9140 0.3825 -0.1357
vn -0.6794 0.7336 -0.0161
vn -0.4080 0.9090 -0.0852
vn -0.9256 0.3757 -0.0454
vn -0.6834 0.7296 -0.0240
vn -0.8240 0.5490 0.1402
vn -0.9101 0.2376 0.3395
vn -0.9590 0.2226 0.1756
vn -0.8791 0.4767 -0.0039
vn -0.4567 0.7465 -0.4840
vn -0.6277 0.0875 -0.7735
vn -0.9835 -0.1418 -0.1123
vn -0.9978 -0.0587 -0.0321
vn -0.9870 -0.1436 -0.0719
vn -0.5341 0.4305 -0.7276
vn -0.7149 0.4900 -0.4989
vn -0.5092 0.7507 -0.4209
vn -0.8985 0.3288 -0.2910
vn -0.8971 0.3276 -0.2964
vn -0.8981 0.1681 -0.4065
vn -0.8059 -0.2904 0.5160
vn -0.9148 -0.1627 0.3698
vn -0.9964 0.0389 0.0759
vn -0.9568 -0.1702 0.2357
vn -0.2064 -0.9368 0.2825
vn -0.4409 -0.4714 0.7638
vn -0.3199 -0.4608 0.8279
vn -0.9057 -0.2778 0.3203
vn -0.9980 -0.0477 -0.0418
vn -0.9174 -0.3950 -0.0491
vn -0.0962 -0.9445 0.3141
vn -0.9234 -0.3839 -0.0000
vn -0.9518 -0.2985 -0.0710
vn -0.6091 -0.7831 -0.1253
vn -0.8622 0.2641 0.4322
vn -0.9504 0.0383 0.3088
vn -0.9815 0.1704 0.0871
vn -0.9882 0.1353 0.0721
vn -0.9664 0.1712 0.1918
vn -0.9753 0.1310 0.1781
vn -0.9445 0.3281 0.0178
vn -0.8099 0.5859 0.0283
vn 0.0001 0.9984 -0.0573
vn 0.0001 0.9984 -0.0574
vn -0.0000 0.9984 -0.0573
vn -0.0279 0.9996 -0.0089
vn -0.0000 0.9999 -0.0100
vn 0.9989 0.0073 0.0456
vn 0.3344 -0.9317 0.1421
vn 0.8115 -0.5797 0.0739
vn 0.8051 -0.5542 0.2114
vn 0.9658 0.2434 0.0889
vn 0.9503 0.2958 0.0973
vn 0.0019 -0.9076 -0.4199
vn 0.0001 -0.9067 -0.4217
vn 0.0161 0.0754 -0.9970
vn 0.0053 0.9565 0.2917
vn -0.0190 0.9519 0.3060
vn -0.0031 1.0000 -0.0000
vn 0.0052 1.0000 -0.0022
vn -0.0018 0.9901 -0.1406
vn -0.0075 0.9894 -0.1450
vn -0.0092 0.3714 -0.9284
vn 0.0062 0.3931 -0.9195
vn -0.9616 0.2578 0.0942
vn -0.9400 0.3248 0.1048
vn -0.8410 -0.4988 0.2097
vn -0.3281 -0.9337 0.1431
vn -0.8989 -0.4358 0.0453
vn -0.9987 0.0341 0.0379
vn -0.0000 0.6029 -0.7978
vn -0.9933 -0.0631 0.0973
vn -0.9993 0.0380 -0.0013
vn 0.9952 -0.0346 0.0917
vn 1.0000 -0.0000 -0.0000
vn -0.8796 -0.4193 0.2246
vn 0.8015 -0.5598 0.2102
vn 0.0207 -0.4468 -0.8944
vn -0.9898 0.0296 0.1392
vn -0.9999 0.0131 0.0051
vn 0.9940 0.0265 0.1063
vn 0.9987 -0.0507 0.0073
vn 0.0124 0.7700 -0.6379
vn 0.0384 0.7989 -0.6003
vn 0.0157 0.9726 -0.2318
vn -0.4073 0.9133 -0.0000
vn -0.9037 0.4281 -0.0000
vn 0.4157 0.9095 -0.0000
vn 0.8742 0.4855 -0.0000
vn -0.4304 0.9027 -0.0000
vn -0.4273 0.8923 0.1457
vn 0.3487 0.9372 -0.0000
vn -0.1590 0.9812 -0.1095
vn -0.1519 0.9848 -0.0846
vn 0.1713 0.9825 -0.0733
vn 0.1475 0.9830 -0.1097
vn 0.9872 0.1459 -0.0649
vn 0.9757 0.2178 -0.0237
vn 0.9142 -0.1274 -0.3846
vn 0.9740 -0.1674 -0.1529
vn 0.9969 0.0447 -0.0643
vn 0.9525 0.1785 -0.2469
vn 0.8991 0.4271 -0.0962
vn 0.6780 0.7349 -0.0134
vn 0.3942 0.9158 -0.0772
vn 0.9042 0.4249 -0.0432
vn 0.6834 0.7296 -0.0240
vn 0.8177 0.5410 0.1964
vn 0.8850 0.2864 0.3671
vn 0.9464 0.2723 0.1735
vn 0.8570 0.5153 -0.0044
vn 0.9932 -0.0609 -0.0989
vn 0.9979 -0.0308 -0.0567
vn 0.9955 -0.0625 -0.0717
vn 0.7248 -0.3199 0.6102
vn 0.9021 -0.2285 0.3660
vn 0.9950 -0.0615 0.0791
vn 0.9562 -0.2136 0.2003
vn 0.8920 -0.3113 0.3276
vn 0.9939 -0.1093 0.0131
vn 0.8443 -0.5359 -0.0076
vn 0.7916 0.3120 0.5254
vn 0.9302 -0.0062 0.3669
vn 0.9815 0.1704 0.0871
vn 0.9882 0.1353 0.0721
vn 0.9664 0.1712 0.1918
vn 0.9753 0.1310 0.1781
vn 0.6430 -0.7533 -0.1380
vn 0.8447 -0.5312 -0.0659
vn -0.6038 -0.7921 -0.0894
vn 0.7839 -0.6208 -0.0000
vn -0.2857 -0.9583 -0.0000
vn -1.0000 -0.0000 -0.0000
vn -0.2857 0.9583 -0.0000
vn 0.7839 0.6208 -0.0000
vn -0.0000 -0.0000 -1.0000
vn -0.0000 -0.0000 1.0000
vn -0.0000 1.0000 -0.0000
vn -0.7839 -0.6208 -0.0000
vn 0.2857 -0.9583 -0.0000
vn 0.2857 0.9583 -0.0000
vn -0.7839 0.6208 -0.0000
vt 0.782100 0.315200
vt 0.767200 0.438400
vt 0.700300 0.372900
vt 0.900600 0.441200
vt 0.787900 0.283500
vt 0.745400 0.200900
vt 0.789400 0.204300
vt 0.884400 0.203000
vt 0.891000 0.286800
vt 0.571900 0.183000
vt 0.695400 0.322200
vt 0.697200 0.193100
vt 0.892900 0.316100
vt 0.974300 0.373100
vt 0.929700 0.199600
vt 0.972600 0.324200
vt 0.548000 0.613000
vt 0.538000 0.741600
vt 0.787200 0.755000
vt 0.809000 0.686000
vt 1.026200 0.545100
vt 0.952400 0.519400
vt 0.938700 0.547100
vt 0.852700 0.496200
vt 0.972500 0.188900
vt 0.867700 0.577100
vt 0.639500 0.025000
vt 0.796000 0.129900
vt 0.878900 0.131600
vt 0.750100 0.142200
vt 0.866000 0.079000
vt 0.808800 0.079000
vt 0.809900 0.039600
vt 0.751500 0.084000
vt 0.695900 0.117400
vt 0.636700 0.521000
vt 0.026300 0.512000
vt 0.027000 0.454500
vt 0.638800 0.498100
vt 0.718200 0.806600
vt 0.576200 0.793200
vt 0.699000 0.929100
vt 0.556500 0.946300
vt 0.297700 0.780300
vt 0.031000 0.904500
vt 0.134600 0.782500
vt 0.040300 0.812100
vt 0.151800 0.941900
vt 0.921000 0.136200
vt 0.867500 0.038700
vt 0.915100 0.079600
vt 0.675400 0.489600
vt 0.961700 0.110500
vt 0.095100 0.699100
vt 0.117200 0.558900
vt 0.038700 0.716400
vt 0.294900 0.622500
vt 0.293400 0.493500
vt 0.447800 0.477800
vt 0.674100 0.470000
vt 0.024400 0.103700
vt 0.175100 0.103600
vt 0.173300 0.193900
vt 0.022500 0.193900
vt 0.454000 0.392000
vt 0.452000 0.431600
vt 1.039500 0.408100
vt 1.033800 0.422300
vt 0.639000 0.428300
vt 0.635000 0.412800
vt 0.026400 0.426000
vt 0.093600 0.378500
vt 0.133300 0.375400
vt 0.071300 0.388300
vt 0.129400 0.398100
vt 0.095000 0.404800
vt 0.430200 0.358500
vt 0.424000 0.460700
vt 0.166400 0.337900
vt 0.166900 0.470900
vt 0.013600 0.375600
vt 0.011100 0.450200
vt 0.900600 0.521100
vt 0.769400 0.517000
vt 0.035900 0.946900
vt 0.027300 0.584800
vt 0.042800 0.584800
vt -0.272400 0.517400
vt -0.272400 0.487600
vt -0.312700 0.504700
vt 0.079900 0.237600
vt 0.062400 0.246200
vt 0.847800 0.513100
vt 0.670600 0.506500
vt 0.088500 0.089800
vt 0.409000 0.046100
vt 0.409000 0.089800
vt 0.088500 0.046100
vt 0.409000 0.004500
vt 0.088500 0.004500
vt 0.565400 0.080900
vt 0.698300 0.081300
vt 0.630300 0.127500
vt 0.675300 0.006300
vt 0.593200 0.006000
vt 0.183500 0.257900
vt 0.118500 0.211300
vt 0.251400 0.211700
vt 0.228500 0.136700
vt 0.146300 0.136400
vt 0.326900 0.410700
vt 0.206000 0.410700
vt 0.309800 0.289800
vt 0.222200 0.289800
s 0
usemtl asshole
f 3/1/1 2/2/1 1/3/1
f 3/1/2 4/4/2 2/2/2
f 5/5/3 6/6/3 7/7/3
f 7/7/4 8/8/4 5/5/4
f 5/5/5 8/8/5 9/9/5
f 10/10/6 11/10/6 12/10/6
f 11/10/7 13/10/7 12/10/7
f 15/11/8 16/12/8 5/5/8
f 5/5/9 16/12/9 6/6/9
f 12/10/10 17/10/10 18/10/10
f 12/10/11 13/10/11 17/10/11
f 1/3/12 15/11/12 3/1/12
f 3/1/13 15/11/13 5/5/13
f 4/4/14 19/13/14 20/14/14
f 21/15/15 22/16/15 9/9/15
f 21/15/16 9/9/16 8/8/16
f 23/17/17 24/18/17 20/19/17
f 23/17/18 20/19/18 22/20/18
f 25/10/19 26/10/19 18/10/19
f 27/10/20 25/10/20 18/10/20
f 25/21/21 27/22/21 28/23/21
f 28/23/22 27/22/22 29/24/22
f 30/25/23 22/16/23 21/15/23
f 22/20/24 30/26/24 23/17/24
f 31/10/25 18/10/25 17/10/25
f 27/10/26 18/10/26 31/10/26
f 27/10/27 31/10/27 29/10/27
f 22/16/28 20/14/28 19/13/28
f 22/16/29 19/13/29 9/9/29
f 32/27/30 33/27/30 34/27/30
f 34/27/30 35/27/30 32/27/30
f 36/27/31 37/27/31 38/27/31
f 38/27/31 39/27/31 36/27/31
f 43/28/32 44/29/32 8/8/32
f 43/28/33 8/8/33 7/7/33
f 7/7/34 6/6/34 45/30/34
f 46/31/35 47/32/35 10/33/35
f 47/32/36 11/34/36 10/33/36
f 14/35/37 45/30/37 16/12/37
f 11/34/38 45/30/38 14/35/38
f 43/28/39 45/30/39 11/34/39
f 43/28/40 11/34/40 47/32/40
f 43/28/41 7/7/41 45/30/41
f 6/6/42 16/12/42 45/30/42
f 43/28/43 47/32/43 44/29/43
f 44/29/44 47/32/44 46/31/44
f 51/10/45 50/10/45 52/10/45
f 53/10/46 52/10/46 48/10/46
f 48/10/47 52/10/47 50/10/47
f 50/10/48 51/10/48 49/10/48
f 41/36/49 57/37/49 58/38/49
f 41/36/50 58/38/50 42/39/50
f 4/40/51 59/41/51 60/42/51
f 60/42/52 59/41/52 61/43/52
f 20/19/53 24/18/53 59/41/53
f 20/19/54 59/41/54 4/40/54
f 59/41/55 62/44/55 61/43/55
f 59/41/56 24/18/56 62/44/56
f 63/45/57 64/46/57 65/47/57
f 63/45/58 66/48/58 64/46/58
f 64/46/59 66/48/59 62/44/59
f 62/44/60 66/48/60 61/43/60
f 21/15/61 8/8/61 67/49/61
f 46/31/62 26/50/62 25/51/62
f 30/26/63 28/23/63 29/24/63
f 23/17/64 30/26/64 68/52/64
f 68/52/65 30/26/65 29/24/65
f 67/49/66 44/29/66 25/51/66
f 25/51/67 44/29/67 46/31/67
f 8/8/68 44/29/68 67/49/68
f 30/25/69 21/15/69 28/53/69
f 28/53/70 21/15/70 67/49/70
f 67/49/71 25/51/71 28/53/71
f 69/54/72 70/55/72 71/56/72
f 72/57/73 73/58/73 70/55/73
f 23/17/74 74/59/74 72/57/74
f 72/57/75 74/59/75 73/58/75
f 70/10/76 51/10/76 52/10/76
f 52/10/77 53/10/77 71/10/77
f 52/10/78 71/10/78 70/10/78
f 72/57/79 70/55/79 69/54/79
f 74/59/80 23/17/80 68/52/80
f 74/59/81 68/52/81 75/60/81
f 51/10/82 70/10/82 73/10/82
f 68/10/83 76/10/83 75/10/83
f 68/10/84 29/10/84 76/10/84
f 76/10/85 29/10/85 31/10/85
f 64/46/86 69/54/86 71/56/86
f 64/46/87 71/56/87 65/47/87
f 62/44/88 24/18/88 72/57/88
f 72/57/89 24/18/89 23/17/89
f 62/44/90 72/57/90 69/54/90
f 62/44/91 69/54/91 64/46/91
f 77/37/92 63/36/92 78/38/92
f 78/38/93 63/36/93 65/39/93
f 79/61/94 80/62/94 81/63/94
f 81/63/95 82/64/95 79/61/95
f 80/62/94 83/61/94 84/64/94
f 84/64/96 81/63/96 80/62/96
f 41/65/97 63/66/97 57/67/97
f 77/68/98 57/67/98 63/66/98
f 42/39/99 58/38/99 48/69/99
f 48/69/100 58/38/100 53/70/100
f 53/70/101 58/38/101 85/71/101
f 87/72/102 58/73/102 88/74/102
f 57/75/103 89/76/103 88/74/103
f 57/75/104 88/74/104 58/73/104
f 26/10/105 10/10/105 18/10/105
f 12/10/106 18/10/106 10/10/106
f 10/33/107 26/50/107 46/31/107
f 90/77/108 66/78/108 41/65/108
f 63/66/109 41/65/109 66/78/109
f 91/79/110 61/80/110 90/77/110
f 66/78/111 90/77/111 61/80/111
f 40/81/112 60/82/112 61/80/112
f 61/80/113 91/79/113 40/81/113
f 2/2/114 4/4/114 60/83/114
f 60/83/115 40/84/115 2/2/115
f 89/76/116 77/75/116 88/74/116
f 88/74/117 77/75/117 78/73/117
f 88/74/118 78/73/118 87/72/118
f 78/38/119 71/69/119 53/70/119
f 78/38/120 53/70/120 86/71/120
f 78/38/121 65/39/121 71/69/121
f 57/85/122 77/85/122 92/85/122
f 77/75/123 89/76/123 93/86/123
f 93/86/124 92/87/124 77/75/124
f 89/76/125 57/75/125 92/87/125
f 92/87/126 93/86/126 89/76/126
f 87/72/127 78/73/127 86/73/127
f 85/73/128 58/73/128 87/72/128
f 86/88/129 85/89/129 94/90/129
f 87/72/130 86/73/130 94/91/130
f 94/91/131 95/92/131 87/72/131
f 85/73/132 87/72/132 95/92/132
f 95/92/133 94/91/133 85/73/133
f 19/13/134 3/1/134 5/5/134
f 5/5/135 9/9/135 19/13/135
f 4/4/136 3/1/136 19/13/136
f 96/27/137 97/27/137 75/27/137
f 75/27/137 76/27/137 96/27/137
f 98/27/138 99/27/138 97/27/138
f 97/27/138 96/27/138 98/27/138
f 100/27/139 101/27/139 56/27/139
f 56/27/139 102/27/139 100/27/139
f 103/27/140 104/27/140 101/27/140
f 101/27/140 100/27/140 103/27/140
f 105/27/141 106/27/141 107/27/141
f 107/27/142 74/27/142 105/27/142
f 108/27/138 109/27/138 106/27/138
f 106/27/138 105/27/138 108/27/138
f 110/27/143 111/27/143 112/27/143
f 112/27/143 113/27/143 110/27/143
f 114/27/140 115/27/140 111/27/140
f 111/27/140 110/27/140 114/27/140
f 116/64/144 117/63/144 93/62/144
f 93/62/145 118/61/145 116/64/145
f 117/63/146 119/64/146 120/61/146
f 120/61/147 93/62/147 117/63/147
f 121/17/148 1/19/148 122/18/148
f 121/17/149 15/20/149 1/19/149
f 11/21/150 14/23/150 13/22/150
f 14/23/151 123/93/151 13/22/151
f 15/20/152 121/17/152 16/26/152
f 2/40/153 40/42/153 124/41/153
f 40/42/154 91/43/154 124/41/154
f 1/19/155 124/41/155 122/18/155
f 1/19/156 2/40/156 124/41/156
f 124/41/157 91/43/157 125/44/157
f 124/41/158 125/44/158 122/18/158
f 41/45/159 42/47/159 126/46/159
f 41/45/160 126/46/160 90/48/160
f 126/46/161 125/44/161 90/48/161
f 125/44/162 91/43/162 90/48/162
f 16/26/163 123/93/163 14/23/163
f 121/17/164 127/94/164 16/26/164
f 127/94/165 123/93/165 16/26/165
f 128/54/166 48/56/166 50/55/166
f 129/57/167 50/55/167 49/58/167
f 121/17/168 129/57/168 54/59/168
f 129/57/169 49/58/169 54/59/169
f 129/57/170 128/54/170 50/55/170
f 54/59/171 127/94/171 121/17/171
f 54/59/172 55/60/172 127/94/172
f 126/46/173 48/56/173 128/54/173
f 126/46/174 42/47/174 48/56/174
f 125/44/175 129/57/175 122/18/175
f 129/57/176 121/17/176 122/18/176
f 125/44/177 128/54/177 129/57/177
f 125/44/178 126/46/178 128/54/178
f 55/60/179 17/10/179 13/10/179
f 123/93/180 127/94/180 55/60/180
f 13/10/181 123/93/181 55/60/181
f 130/95/182 136/96/182 135/97/182
f 130/95/182 131/98/182 136/96/182
f 131/98/183 137/99/183 136/96/183
f 131/98/183 132/100/183 137/99/183
f 132/96/184 138/95/184 137/98/184
f 132/96/184 133/97/184 138/95/184
f 133/95/185 139/96/185 138/97/185
f 133/95/185 134/98/185 139/96/185
f 134/98/186 135/99/186 139/96/186
f 134/98/186 130/100/186 135/99/186
f 135/101/187 138/102/187 139/103/187
f 135/101/187 137/104/187 138/102/187
f 136/105/187 137/104/187 135/101/187
f 134/106/188 133/107/188 130/108/188
f 131/109/188 130/108/188 133/107/188
f 132/110/188 131/109/188 133/107/188
f 142/111/189 140/112/189 143/113/189
f 141/114/189 143/113/189 140/112/189
f 145/96/190 144/95/190 146/97/190
f 147/98/190 144/95/190 145/96/190
f 148/99/191 147/98/191 145/96/191
f 149/100/191 147/98/191 148/99/191
f 150/95/126 149/96/126 148/98/126
f 151/97/126 149/96/126 150/95/126
f 152/96/192 151/95/192 150/97/192
f 153/98/192 151/95/192 152/96/192
f 146/99/193 153/98/193 152/96/193
f 144/100/193 153/98/193 146/99/193
f 150/102/187 146/101/187 152/103/187
f 148/104/187 146/101/187 150/102/187
f 148/104/187 145/105/187 146/101/187
f 151/107/188 153/106/188 144/108/188
f 144/108/188 147/109/188 151/107/188
f 147/109/188 149/110/188 151/107/188
f 140/112/189 142/111/189 154/113/189
f 154/113/189 155/114/189 140/112/189
