# Blender 4.2.1 LTS
# www.blender.org
mtllib windgen.mtl
o WindgenRotor
v 0.029247 0.003338 -1.382748
v 0.568841 0.003338 -0.914495
v 0.299037 0.470634 -0.914495
v -0.240557 0.470634 -0.914495
v -0.510348 0.003338 -0.914495
v -0.240557 -0.463970 -0.914495
v 0.299037 -0.463970 -0.914495
v 0.715021 0.003338 -0.301258
v 0.372134 0.597236 -0.301258
v -0.313641 0.597236 -0.301258
v -0.656528 0.003338 -0.301258
v -0.313641 -0.590560 -0.301258
v 0.372134 -0.590560 -0.301258
v 0.715021 0.003338 -0.014537
v 0.372134 0.597236 -0.014537
v -0.313641 0.597236 -0.014537
v -0.656528 0.003338 -0.014537
v -0.313641 -0.590560 -0.014537
v 0.372134 -0.590560 -0.014537
v 2.148881 -0.824813 -0.305833
v 0.389557 1.964264 0.001037
v -0.344390 1.964264 -0.305820
v -2.173832 -0.859872 0.001037
v -1.806858 -1.495492 -0.305833
v 1.781907 -1.460420 0.001037
v 2.148881 -0.824813 0.001037
v -0.344390 1.964264 0.001037
v -1.806858 -1.495492 0.001037
v 5.209211 -1.651168 -0.363715
v 0.534687 5.416798 0.058932
v -0.865285 5.411716 -0.363715
v -4.911663 -2.265668 0.058932
v -3.987672 -3.597264 -0.363715
v 4.464717 -3.141114 0.058932
v 5.209211 -1.651168 0.058932
v -0.865285 5.411716 0.058932
v -3.987672 -3.597264 0.058932
v 5.884412 -2.040991 0.058932
v -0.718120 6.331770 0.058932
v -4.662873 -3.987087 0.058932
vn 0.6130 0.3539 -0.7064
vn -0.0000 0.7078 -0.7064
vn -0.6130 0.3539 -0.7064
vn -0.6130 -0.3539 -0.7064
vn -0.0000 -0.7078 -0.7064
vn 0.6130 -0.3539 -0.7064
vn 0.8481 0.4897 -0.2022
vn -0.0000 0.9793 -0.2022
vn -0.8481 0.4897 -0.2022
vn -0.8481 -0.4897 -0.2022
vn -0.8482 -0.4897 -0.2022
vn -0.0000 -0.9794 -0.2022
vn 0.8481 -0.4897 -0.2022
vn 0.8660 0.5000 -0.0000
vn -0.8660 0.5000 -0.0000
vn -0.0000 -1.0000 -0.0000
vn -0.0000 -0.0033 -1.0000
vn 0.3783 0.1953 -0.9048
vn 0.0023 0.0013 -1.0000
vn -0.3251 0.2523 -0.9114
vn -0.0024 0.0014 -1.0000
vn -0.0561 -0.4076 -0.9114
vn 0.5001 0.8659 -0.0000
vn 0.9999 -0.0127 -0.0000
vn -0.0000 -0.0114 0.9999
vn -0.9997 -0.0225 -0.0000
vn -0.4945 0.8692 -0.0000
vn 0.0077 0.0045 1.0000
vn 0.5183 -0.8552 -0.0000
vn -0.5251 -0.8510 -0.0000
vn -0.0081 0.0047 1.0000
vn -0.0000 -0.0168 0.9999
vn 0.0001 -0.0168 0.9999
vn 0.3854 0.0427 -0.9218
vn 0.2890 0.0039 -0.9573
vn -0.9888 -0.1494 -0.0000
vn 0.0163 0.0094 0.9998
vn 0.0159 0.0110 0.9998
vn -0.2593 0.2944 -0.9198
vn -0.1313 0.2160 -0.9675
vn 0.6939 -0.7200 -0.0000
vn -0.0158 0.0091 0.9998
vn -0.0167 0.0083 0.9998
vn -0.1187 -0.3753 -0.9193
vn -0.1153 -0.2174 -0.9693
vn 0.2607 0.9654 -0.0000
vn -0.0000 -0.0000 1.0000
vn 0.2677 0.3665 -0.8911
vn -0.9874 0.1579 -0.0000
vn -0.4990 -0.0721 -0.8636
vn 0.5000 -0.8660 -0.0000
vn 0.3095 -0.3994 -0.8629
vn 0.5000 0.8660 -0.0000
vt 0.666700 0.742900
vt 0.656200 0.714500
vt 0.679100 0.715300
vt 0.644300 0.728100
vt 0.637100 0.821500
vt 0.618800 0.845600
vt 0.607200 0.825900
vt 0.636600 0.848400
vt 0.679600 0.802600
vt 0.659800 0.814000
vt 0.659800 0.791100
vt 0.690000 0.729700
vt 0.653900 0.692200
vt 0.682900 0.693200
vt 0.691800 0.716400
vt 0.718300 0.690400
vt 0.718300 0.719500
vt 0.691800 0.693500
vt 0.617200 0.767900
vt 0.644000 0.749100
vt 0.643000 0.774200
vt 0.618000 0.748100
vt 0.644900 0.723900
vt 0.618800 0.728300
vt 0.633800 0.817100
vt 0.633800 0.788000
vt 0.651800 0.750500
vt 0.677800 0.777100
vt 0.648700 0.777100
vt 0.674700 0.750600
vt 0.489100 0.898100
vt 0.460400 0.888500
vt 0.489400 0.889500
vt 0.460100 0.897100
vt 0.582100 0.390300
vt 0.595200 0.365700
vt 0.594200 0.390800
vt 0.583100 0.365200
vt 0.742700 0.562900
vt 0.730500 0.591900
vt 0.730500 0.562900
vt 0.742700 0.591900
vt 0.263800 0.195400
vt 0.289500 0.208900
vt 0.317600 0.158300
vt 0.290100 0.143800
vt 0.246000 0.245100
vt 0.245200 0.216000
vt 0.171200 0.216500
vt 0.172100 0.247600
vt 0.291000 0.233900
vt 0.265900 0.248600
vt 0.301500 0.309100
vt 0.328300 0.293300
vt 0.373300 0.455700
vt 0.385400 0.455700
vt 0.386100 0.525900
vt 0.373100 0.525900
vt 0.854100 0.816300
vt 0.841900 0.816700
vt 0.852600 0.758300
vt 0.237400 0.208500
vt 0.238500 0.237500
vt 0.180600 0.240400
vt 0.179500 0.209300
vt 0.592600 0.448700
vt 0.579600 0.448200
vt 0.087400 0.646100
vt 0.075400 0.648000
vt 0.076800 0.572900
vt 0.287700 0.206600
vt 0.262000 0.193000
vt 0.296200 0.127400
vt 0.323700 0.141900
vt 0.729800 0.499600
vt 0.742900 0.499600
vt 0.729800 0.651700
vt 0.264200 0.251100
vt 0.288800 0.235600
vt 0.327900 0.294000
vt 0.301500 0.310500
vt 0.034600 0.252000
vt 0.033000 0.209200
vt 0.390700 0.031400
vt 0.352800 0.011500
vt 0.589300 0.595100
vt 0.571400 0.594400
vt 0.351400 0.009200
vt 0.389300 0.029200
vt 0.040800 0.214800
vt 0.042000 0.257700
vt 0.727400 0.389400
vt 0.745300 0.389400
vt 0.403300 0.404900
vt 0.367000 0.427700
vt 0.363600 0.428200
vt 0.400500 0.406400
vt 0.388500 0.660000
vt 0.370600 0.660000
vt 0.000000 0.210500
vt 0.406100 0.002200
vt 0.588000 0.628100
vt 0.404700 0.000000
vt 0.007800 0.215800
vt 0.727400 0.360800
vt 0.384600 0.455700
vt 0.380300 0.456600
vt 0.388500 0.693000
s 0
usemtl windgen
f 1/1/1 3/2/1 2/3/1
f 1/1/2 4/4/2 3/2/2
f 1/5/3 5/6/3 4/7/3
f 1/5/4 6/8/4 5/6/4
f 1/9/5 7/10/5 6/11/5
f 1/1/6 2/3/6 7/12/6
f 2/3/7 9/13/7 8/14/7
f 2/3/7 3/2/7 9/13/7
f 3/15/8 10/16/8 9/17/8
f 3/15/8 4/18/8 10/16/8
f 4/19/9 11/20/9 10/21/9
f 4/19/9 5/22/9 11/20/9
f 5/22/10 12/23/10 11/20/10
f 5/22/11 6/24/11 12/23/11
f 6/11/12 13/25/12 12/26/12
f 6/11/12 7/10/12 13/25/12
f 7/27/13 8/28/13 13/29/13
f 7/27/13 2/30/13 8/28/13
f 8/31/14 15/32/14 14/33/14
f 8/31/14 9/34/14 15/32/14
f 10/35/15 17/36/15 16/37/15
f 10/35/15 11/38/15 17/36/15
f 12/39/16 19/40/16 18/41/16
f 12/39/16 13/42/16 19/40/16
f 9/43/17 10/44/17 22/45/17
f 22/45/18 21/46/18 9/43/18
f 11/47/19 12/48/19 24/49/19
f 24/49/20 23/50/20 11/47/20
f 13/51/21 8/52/21 20/53/21
f 20/53/22 25/54/22 13/51/22
f 8/55/23 14/56/23 26/57/23
f 26/57/23 20/58/23 8/55/23
f 15/59/24 9/60/24 21/61/24
f 16/62/25 15/63/25 21/64/25
f 21/64/25 27/65/25 16/62/25
f 10/35/26 16/37/26 27/66/26
f 27/66/26 22/67/26 10/35/26
f 17/68/27 11/69/27 23/70/27
f 18/71/28 17/72/28 23/73/28
f 23/73/28 28/74/28 18/71/28
f 12/39/29 18/41/29 28/75/29
f 28/75/29 24/76/29 12/39/29
f 19/40/30 13/42/30 25/77/30
f 14/78/31 19/79/31 25/80/31
f 25/80/31 26/81/31 14/78/31
f 27/65/32 21/64/32 30/82/32
f 30/82/33 36/83/33 27/65/33
f 21/46/34 22/45/34 31/84/34
f 31/84/35 30/85/35 21/46/35
f 22/67/36 27/66/36 36/86/36
f 36/86/36 31/87/36 22/67/36
f 28/74/37 23/73/37 32/88/37
f 32/88/38 37/89/38 28/74/38
f 23/50/39 24/49/39 33/90/39
f 33/90/40 32/91/40 23/50/40
f 24/76/41 28/75/41 37/92/41
f 37/92/41 33/93/41 24/76/41
f 26/81/42 25/80/42 34/94/42
f 34/94/43 35/95/43 26/81/43
f 25/54/44 20/53/44 29/96/44
f 29/96/45 34/97/45 25/54/45
f 20/58/46 26/57/46 35/98/46
f 35/98/46 29/99/46 20/58/46
f 36/83/47 30/82/47 39/100/47
f 30/85/48 31/84/48 39/101/48
f 31/87/49 36/86/49 39/102/49
f 32/88/47 40/103/47 37/89/47
f 32/91/50 33/90/50 40/104/50
f 33/93/51 37/92/51 40/105/51
f 35/95/47 34/94/47 38/106/47
f 34/97/52 29/96/52 38/107/52
f 29/99/53 35/98/53 38/108/53
