# Blender 4.2.1 LTS
# www.blender.org
mtllib windgen.mtl
o Windgen
v -2.709130 0.000000 3.338858
v 2.813389 0.000000 3.332621
v -2.709130 0.000000 1.997859
v 2.813389 0.000000 1.991622
v -2.709130 0.000000 -2.063907
v 2.813389 0.000000 -2.070158
v -2.709130 0.000000 -3.303574
v 2.813389 0.000000 -3.309811
v -2.709130 2.370512 3.338858
v 2.813389 2.370512 3.332621
v -2.709130 2.370512 1.997859
v 2.813389 2.370512 1.991622
v -2.709130 2.370512 -2.063907
v 2.813389 2.370512 -2.070158
v -2.709130 2.370512 -3.303574
v 2.813389 2.370512 -3.309811
v -5.543852 0.000000 3.338858
v 5.648297 -0.025815 3.332621
v -5.543852 0.000000 1.997859
v 5.648297 -0.025815 1.991622
v -5.543852 0.000000 -2.063907
v 5.648297 -0.025815 -2.070158
v -5.543852 0.000000 -3.303574
v 5.648297 -0.025815 -3.309811
v -5.542429 1.550275 3.338858
v 5.648297 1.569892 3.332621
v -5.542429 1.550275 1.997859
v 5.648297 1.569892 1.991622
v -5.542429 1.550275 -2.063907
v 5.648297 1.569892 -2.070158
v -5.542429 1.550275 -3.303574
v 5.648297 1.569892 -3.309811
v -1.953544 3.554212 3.338858
v 2.238097 3.554212 3.332621
v -1.953544 3.554212 1.997859
v 2.238097 3.554212 1.991622
v -1.953544 3.554212 -2.063907
v 2.238097 3.554212 -2.070158
v -1.953544 3.554212 -3.303574
v 2.238097 3.554212 -3.309811
v -2.311394 -0.012848 -5.173420
v 2.413125 -0.012848 -5.178727
v -2.311394 1.842170 -5.173420
v 2.413125 1.866841 -5.178741
v -1.736129 2.743364 -5.173221
v 1.987126 2.743364 -5.178913
v -1.070091 3.554212 2.965714
v 1.354512 3.554212 2.912287
v 1.865498 3.554212 1.991622
v 1.865498 3.554212 -2.070158
v 1.374089 3.554212 -2.936666
v -1.048612 3.554212 -2.931533
v -1.580958 3.554212 -2.063907
v -1.580958 3.554212 1.997859
v -0.621655 5.796486 1.867147
v 0.909880 5.796486 1.833392
v 1.232657 5.796486 1.251836
v 1.232657 5.796486 -1.313854
v 0.922249 5.796486 -1.861215
v -0.608089 5.796486 -1.857970
v -0.944353 5.796486 -1.309917
v -0.944353 5.796486 1.255786
v -0.690310 8.116990 1.000785
v 0.974863 8.116990 0.997766
v 0.974863 8.116990 -1.073071
v -0.690310 8.116990 -1.070051
v -0.606360 11.739670 0.897404
v 0.890900 11.739670 0.894691
v 0.890900 11.739670 -0.967336
v -0.606360 11.739670 -0.964622
v -0.442903 11.668955 0.896221
v 0.732724 11.671947 0.893507
v 0.732724 11.671947 -0.968506
v -0.442903 11.668955 -0.965806
v -0.442903 13.250497 0.896221
v 0.732724 13.253489 0.893507
v 0.732724 13.253489 -0.968506
v -0.442903 13.250497 -0.965806
v 0.576116 11.877152 -2.156183
v -0.289607 11.874945 -2.154188
v -0.289607 13.039586 -2.154188
v 0.576116 13.041794 -2.156183
v 1.274180 11.997278 0.893095
v 1.274180 11.997278 -0.968932
v 0.974850 12.116725 -2.156488
v 0.974850 12.775887 -2.156488
v 1.274180 12.892408 -0.968932
v 1.274180 12.892408 0.893095
v -0.961643 12.044267 -0.965380
v -0.961643 12.044267 0.896633
v -0.961643 12.824391 0.896633
v -0.961643 12.824391 -0.965380
v -0.671610 12.725799 -2.153882
v -0.671610 12.151332 -2.153882
v -0.341251 11.800917 1.747633
v 0.635846 11.803404 1.745372
v 1.085878 12.073793 1.745026
v 1.085878 12.817768 1.745026
v 0.635846 13.117883 1.745372
v -0.341251 13.115382 1.747633
v -0.772397 12.761243 1.747966
v -0.772397 12.112855 1.747966
v 0.153455 12.450408 3.650996
v 1.723015 12.182413 -0.927728
v 1.709143 12.699120 -0.927728
v 1.574215 12.699120 0.934285
v 1.697559 12.182413 0.934285
v -1.426465 12.654191 -0.923978
v -1.452240 12.217938 -0.923978
v -1.452240 12.217938 0.938036
v -1.426465 12.654191 0.938036
v 1.229319 12.414366 1.745026
v 1.905464 12.458840 0.934285
v 1.905464 12.463882 -0.927728
v 1.274180 12.395293 -0.968932
v -0.961643 12.362256 -0.965380
v -1.592914 12.406717 -0.923978
v -1.592914 12.368375 0.938036
v -0.931399 12.357175 1.747966
v -2.183102 -0.022703 4.577155
v 2.298732 -0.022703 4.572088
v 2.298732 1.619834 4.572088
v 1.831849 2.580466 4.572088
v -1.569892 2.580466 4.577155
v -2.183102 1.619834 4.577155
vn -0.0000 1.0000 -0.0000
vn -0.0025 1.0000 -0.0000
vn 0.0011 -0.0000 1.0000
vn 1.0000 -0.0000 -0.0000
vn -0.0011 -0.0000 -1.0000
vn -1.0000 0.0009 -0.0000
vn -1.0000 -0.0000 -0.0000
vn 0.2718 0.9624 -0.0000
vn -0.2781 0.9606 -0.0000
vn -0.0000 -0.0000 1.0000
vn -0.0000 -0.0000 -1.0000
vn 0.0015 -0.0010 1.0000
vn 0.0011 0.0005 1.0000
vn 0.8994 0.4371 -0.0000
vn -0.8429 0.5381 -0.0000
vn -0.0015 -0.0009 -1.0000
vn -0.0011 0.0009 -1.0000
vn -0.0006 0.9174 -0.3979
vn -0.9781 -0.0000 -0.2081
vn 0.9778 -0.0000 -0.2094
vn 0.8590 0.4174 -0.2964
vn 0.8590 0.4175 -0.2965
vn -0.8001 0.5108 -0.3145
vn -0.8001 0.5107 -0.3145
vn 0.0198 0.4367 0.8994
vn 0.8099 0.3769 0.4495
vn 0.9624 0.2716 -0.0000
vn 0.8043 0.3808 -0.4561
vn -0.0019 0.4321 -0.9018
vn -0.7865 0.3855 -0.4825
vn -0.9620 0.2731 -0.0000
vn -0.8195 0.3758 0.4326
vn 0.0018 0.1090 0.9940
vn 0.9939 0.1104 -0.0000
vn -0.0018 0.1030 -0.9947
vn -0.9941 0.1088 -0.0000
vn 0.0018 0.0285 0.9996
vn 0.9997 0.0232 -0.0000
vn -0.0018 0.0291 -0.9996
vn -0.9997 0.0232 -0.0000
vn -0.0018 0.0217 -0.9998
vn -0.0023 0.0113 -0.9999
vn -0.3936 0.9193 -0.0000
vn 0.0018 -0.0125 0.9999
vn 0.0024 -0.0228 0.9997
vn 0.3971 0.9178 -0.0000
vn 0.5866 0.8087 0.0425
vn 0.7678 0.6407 0.0017
vn -0.0023 -0.0000 -1.0000
vn -0.8298 0.5581 -0.0000
vn -0.8641 0.5032 0.0104
vn 0.0021 -0.9854 -0.1705
vn -0.9715 -0.0000 -0.2371
vn -0.0029 0.9845 -0.1751
vn 0.9697 -0.0000 -0.2444
vn 0.5150 -0.8572 -0.0000
vn 0.5033 -0.8379 -0.2111
vn -0.0008 -0.0000 -1.0000
vn 0.5416 0.8124 -0.2162
vn 0.5548 0.8320 -0.0000
vn -0.5862 -0.8102 -0.0000
vn -0.6347 0.7727 -0.0000
vn -0.6201 0.7547 -0.2139
vn -0.5731 -0.7918 -0.2112
vn 0.0029 -0.9882 0.1528
vn 0.5060 -0.8419 0.1875
vn 0.8365 0.2974 0.4603
vn 0.5179 0.7140 0.4711
vn 0.5446 0.8164 0.1919
vn -0.0022 0.9876 0.1570
vn -0.6225 0.7580 0.1946
vn -0.7037 0.4098 0.5804
vn -0.7612 0.2995 0.5751
vn -0.5752 -0.7952 0.1919
vn 0.0032 -0.9467 0.3222
vn 0.4748 -0.7898 0.3883
vn 0.8341 0.2966 0.4652
vn 0.5096 0.7636 0.3965
vn -0.0017 0.9439 0.3302
vn -0.5819 0.7088 0.3989
vn -0.8281 0.3259 0.4561
vn -0.5385 -0.7448 0.3941
vn 0.0943 -0.0000 -0.9955
vn 0.0597 0.0498 -0.9970
vn 0.5416 0.8407 -0.0000
vn 0.4036 0.9145 0.0292
vn 0.5138 0.8373 0.1869
vn 0.3815 -0.9093 0.1660
vn 0.3813 -0.9244 -0.0000
vn 0.4002 -0.9164 0.0055
vn -0.0624 0.0420 -0.9972
vn -0.0887 -0.0000 -0.9961
vn -0.3337 -0.9427 -0.0000
vn -0.3191 -0.9363 0.1464
vn -0.3291 0.9335 0.1424
vn -0.3438 0.9390 -0.0000
vn 0.8151 -0.3433 0.4666
vn 0.7751 -0.3264 0.5410
vn 0.6751 -0.5078 0.5352
vn 0.8391 -0.5439 0.0115
vn 0.7992 -0.6011 -0.0016
vn 0.0914 -0.0000 -0.9958
vn 0.0700 -0.0454 -0.9965
vn -0.0841 -0.0000 -0.9965
vn -0.0690 -0.0514 -0.9963
vn -0.7304 -0.6830 -0.0000
vn -0.8018 -0.5975 -0.0123
vn -0.7083 -0.4609 0.5347
vn -0.6299 -0.5890 0.5063
vn -0.7483 -0.4870 0.4504
vn 0.9235 -0.0000 0.3835
vn 0.7582 0.3685 0.5380
vn 0.0009 0.7862 0.6180
vn -0.6956 0.4441 0.5647
vn -0.9204 -0.0000 0.3910
vt 0.630800 0.515800
vt 0.630600 0.423500
vt 0.604700 0.437200
vt 0.606100 0.502100
vt 0.212700 0.304800
vt 0.212600 0.354600
vt 0.133700 0.354600
vt 0.133800 0.304800
vt 0.605300 0.501800
vt 0.605400 0.437000
vt 0.628600 0.422700
vt 0.628500 0.515000
vt 0.228200 0.075800
vt 0.038300 0.076900
vt 0.037800 0.007300
vt 0.227800 0.006200
vt 0.190300 0.589700
vt 0.247100 0.589700
vt 0.247100 0.657300
vt 0.190300 0.657300
vt 0.454900 0.621600
vt 0.454900 0.449400
vt 0.555300 0.449400
vt 0.555300 0.621600
vt 0.242900 0.009100
vt 0.295400 0.009100
vt 0.295400 0.076700
vt 0.242900 0.076700
vt 0.038200 0.078900
vt 0.229200 0.079900
vt 0.229200 0.006700
vt 0.038200 0.006700
vt 0.340000 0.145800
vt 0.392600 0.145800
vt 0.392600 0.211500
vt 0.340000 0.211500
vt 0.455100 0.621400
vt 0.455100 0.449300
vt 0.555600 0.449300
vt 0.555600 0.621400
vt 0.477800 0.143800
vt 0.477800 0.200600
vt 0.412100 0.200600
vt 0.412100 0.143800
vt 0.726800 0.586800
vt 0.726700 0.643600
vt 0.601900 0.643300
vt 0.602000 0.586500
vt 0.727400 0.585500
vt 0.727400 0.642300
vt 0.602400 0.642300
vt 0.602400 0.585500
vt 0.727300 0.588700
vt 0.727600 0.641300
vt 0.602700 0.642000
vt 0.602400 0.589500
vt 0.727400 0.591500
vt 0.727400 0.644000
vt 0.602400 0.644000
vt 0.602400 0.591500
vt 0.947400 0.120200
vt 0.879800 0.120200
vt 0.845800 0.000000
vt 0.946300 0.000000
vt 0.880600 0.120200
vt 0.946300 0.120200
vt 0.946300 0.240300
vt 0.845800 0.240300
vt 0.822400 0.360800
vt 0.890100 0.360800
vt 0.889000 0.480900
vt 0.788500 0.480900
vt 0.389600 0.917600
vt 0.321900 0.917600
vt 0.288000 0.797500
vt 0.388500 0.797500
vt 0.033900 0.869200
vt 0.101600 0.869200
vt 0.100500 0.989400
vt 0.000000 0.989400
vt 0.946300 0.360400
vt 0.880600 0.360400
vt 0.823300 0.481000
vt 0.889000 0.601100
vt 0.788500 0.601100
vt 0.990500 0.480900
vt 0.924800 0.480900
vt 0.990500 0.360800
vt 0.208700 0.116600
vt 0.064500 0.117500
vt 0.404700 0.449400
vt 0.404700 0.392600
vt 0.454900 0.392600
vt 0.596900 0.357100
vt 0.596900 0.300300
vt 0.647000 0.300300
vt 0.647000 0.357100
vt 0.404700 0.621600
vt 0.596900 0.128100
vt 0.647000 0.128100
vt 0.404700 0.674100
vt 0.454900 0.674100
vt 0.061400 0.114100
vt 0.212000 0.114100
vt 0.596900 0.075600
vt 0.647000 0.075600
vt 0.010600 0.455700
vt 0.168400 0.456000
vt 0.177700 0.535200
vt 0.000000 0.534900
vt 0.477500 0.754800
vt 0.556100 0.754800
vt 0.555600 0.675600
vt 0.455100 0.675600
vt 0.555900 0.753300
vt 0.476200 0.753300
vt 0.555300 0.674100
vt 0.439100 0.753300
vt 0.439300 0.754800
vt 0.404900 0.675600
vt 0.177700 0.816700
vt 0.000000 0.816500
vt 0.037400 0.798600
vt 0.140200 0.800900
vt 0.000000 0.759600
vt 0.015800 0.759600
vt 0.000000 0.587500
vt 0.015800 0.587500
vt 0.036600 0.550700
vt 0.139300 0.551000
vt 0.177700 0.587700
vt 0.161900 0.587700
vt 0.177700 0.759900
vt 0.161900 0.759900
vt 0.705200 1.000000
vt 0.602400 1.000000
vt 0.620200 0.894400
vt 0.685100 0.894400
vt 0.404700 0.006800
vt 0.448800 0.000000
vt 0.478700 0.099200
vt 0.450800 0.103500
vt 0.602400 0.008200
vt 0.575700 0.104400
vt 0.654000 0.015300
vt 0.605600 0.110800
vt 0.702900 0.998100
vt 0.600200 0.998100
vt 0.618800 0.892700
vt 0.683700 0.892700
vt 0.408400 0.004600
vt 0.451000 -0.002000
vt 0.479700 0.097800
vt 0.452800 0.101900
vt 0.601300 0.009900
vt 0.574600 0.105300
vt 0.652000 0.015700
vt 0.606200 0.112200
vt 0.344700 0.555700
vt 0.253100 0.566900
vt 0.276200 0.661700
vt 0.346200 0.653100
vt 0.246100 0.558800
vt 0.343100 0.563900
vt 0.343200 0.657900
vt 0.264900 0.653700
vt 0.340600 0.554400
vt 0.249100 0.565600
vt 0.272000 0.660300
vt 0.342000 0.651700
vt 0.249000 0.555500
vt 0.343900 0.563000
vt 0.343300 0.656300
vt 0.266700 0.650200
vt 0.298700 0.809900
vt 0.361700 0.802200
vt 0.359400 0.799600
vt 0.289000 0.795900
vt 0.294500 0.808700
vt 0.357500 0.801000
vt 0.359400 0.797500
vt 0.290500 0.792000
vt 0.838900 0.821800
vt 0.838900 0.758300
vt 0.841800 0.765000
vt 0.841900 0.814900
vt 0.053000 0.396400
vt 0.131900 0.396400
vt 0.132000 0.403700
vt 0.053100 0.403700
vt 0.058200 0.135000
vt 0.121700 0.135000
vt 0.114700 0.138000
vt 0.064900 0.137800
vt 0.863700 0.950900
vt 0.863700 0.871900
vt 0.871200 0.872000
vt 0.871200 0.950900
vt 0.211000 0.263500
vt 0.132100 0.269200
vt 0.132100 0.255200
vt 0.132800 0.396400
vt 0.211700 0.399800
vt 0.211100 0.412700
vt 0.736700 0.356000
vt 0.700000 0.356100
vt 0.700000 0.306800
vt 0.736700 0.306700
vt 0.857200 0.837400
vt 0.854300 0.758600
vt 0.866900 0.758100
vt 0.871200 0.836900
vt 0.446700 0.949100
vt 0.496500 0.949000
vt 0.490000 0.999400
vt 0.453300 0.999500
vt 0.853500 0.756800
vt 0.837200 0.757400
vt 0.832000 0.707200
vt 0.864700 0.756400
vt 0.852200 0.706500
vt 0.263000 0.311500
vt 0.263000 0.348200
vt 0.212800 0.414700
vt 0.213300 0.401800
vt 0.263100 0.415800
vt 0.212100 0.430900
vt 0.262200 0.437300
vt 0.446700 0.870200
vt 0.423700 0.949100
vt 0.423700 0.870200
vt 0.436400 0.999500
vt 0.753600 0.317900
vt 0.753600 0.345900
vt 0.212700 0.281900
vt 0.263100 0.294600
vt 0.133800 0.281900
vt 0.496500 0.870100
vt 0.518500 0.870100
vt 0.518500 0.949000
vt 0.212600 0.376700
vt 0.133700 0.376700
vt 0.262900 0.364400
vt 0.683800 0.344400
vt 0.683800 0.320100
vt 0.506200 0.999400
vt 0.450800 0.834100
vt 0.492200 0.834000
vt 0.431700 0.834100
vt 0.132100 0.413200
vt 0.097100 0.428900
vt 0.097700 0.411900
vt 0.097700 0.283900
vt 0.097700 0.308900
vt 0.097700 0.289900
vt 0.097600 0.350400
vt 0.097600 0.368700
vt 0.857200 0.871800
vt 0.839300 0.872400
vt 0.510500 0.834000
vt 0.471200 0.753300
vt 0.015700 0.439000
vt 0.016900 0.329500
vt 0.831300 0.953400
vt 0.761700 0.611700
vt 0.761700 0.590600
vt 0.780200 0.598800
vt 0.788500 0.608800
vt 0.405800 0.868500
vt 0.404700 0.947400
vt 0.788500 0.490600
vt 0.761700 0.488700
vt 0.768700 0.478200
vt 0.788500 0.471000
vt 0.539300 0.868300
vt 0.539300 0.947200
vt 0.210800 0.396400
vt 0.029200 0.132800
vt 0.119500 0.119400
vt 0.121900 0.134900
vt 0.161900 0.127200
vt 0.165800 0.141000
vt 0.231400 0.116800
vt 0.234700 0.130500
vt 0.780800 0.620700
vt 0.761700 0.628500
vt 0.788500 0.504100
vt 0.767600 0.496700
vt 0.063700 0.763900
vt 0.078800 0.686500
vt 0.087400 0.688100
vt 0.073500 0.765800
vt 0.062900 0.648400
vt 0.074800 0.650700
vt 0.062300 0.566100
vt 0.555300 0.392600
vt 0.486700 0.340000
vt 0.556300 0.340000
vt 0.446000 0.340000
vt 0.180000 0.533600
vt 0.000500 0.533200
vt 0.016900 0.456300
vt 0.162600 0.456600
vt 0.643900 0.571600
vt 0.630300 0.513600
vt 0.688900 0.484700
vt 0.699900 0.531700
vt 0.640700 0.424200
vt 0.696100 0.422700
s 0
usemtl windgen
f 57/1/1 62/2/1 55/3/1
f 55/3/1 56/4/1 57/1/1
f 77/5/2 78/6/2 75/7/2
f 75/7/2 76/8/2 77/5/2
f 59/9/1 60/10/1 61/11/1
f 61/11/1 58/12/1 59/9/1
f 122/13/3 125/14/3 120/15/3
f 120/15/3 121/16/3 122/13/3
f 28/17/4 26/18/4 18/19/4
f 18/19/4 20/20/4 28/17/4
f 14/21/4 12/22/4 4/23/4
f 4/23/4 6/24/4 14/21/4
f 32/25/4 30/26/4 22/27/4
f 22/27/4 24/28/4 32/25/4
f 43/29/5 44/30/5 42/31/5
f 42/31/5 41/32/5 43/29/5
f 29/33/6 31/34/6 23/35/6
f 23/35/6 21/36/6 29/33/6
f 11/37/7 13/38/7 5/39/7
f 5/39/7 3/40/7 11/37/7
f 25/41/6 27/42/6 19/43/6
f 19/43/6 17/44/6 25/41/6
f 26/45/8 28/46/8 12/47/8
f 12/47/8 10/48/8 26/45/8
f 27/49/9 25/50/9 9/51/9
f 9/51/9 11/52/9 27/49/9
f 30/53/8 32/54/8 16/55/8
f 16/55/8 14/56/8 30/53/8
f 31/57/9 29/58/9 13/59/9
f 13/59/9 15/60/9 31/57/9
f 18/61/10 26/62/10 10/63/10
f 10/63/10 2/64/10 18/61/10
f 25/65/10 17/66/10 1/67/10
f 1/67/10 9/68/10 25/65/10
f 28/69/11 20/70/11 4/71/11
f 4/71/11 12/72/11 28/69/11
f 22/73/10 30/74/10 14/75/10
f 14/75/10 6/76/10 22/73/10
f 32/77/11 24/78/11 8/79/11
f 8/79/11 16/80/11 32/77/11
f 23/81/11 31/82/11 15/68/11
f 15/68/11 7/67/11 23/81/11
f 29/83/10 21/71/10 5/84/10
f 5/84/10 13/85/10 29/83/10
f 19/86/11 27/87/11 11/70/11
f 11/70/11 3/88/11 19/86/11
f 123/89/12 124/90/12 125/14/12
f 125/14/13 122/13/13 123/89/13
f 36/91/14 34/92/14 10/93/14
f 10/93/14 12/22/14 36/91/14
f 33/94/15 35/95/15 11/96/15
f 11/96/15 9/97/15 33/94/15
f 38/98/14 36/91/14 12/22/14
f 12/22/14 14/21/14 38/98/14
f 35/95/15 37/99/15 13/100/15
f 13/100/15 11/96/15 35/95/15
f 40/101/14 38/98/14 14/21/14
f 14/21/14 16/102/14 40/101/14
f 45/103/16 46/104/16 44/30/16
f 44/30/17 43/29/17 45/103/17
f 37/99/15 39/105/15 15/106/15
f 15/106/15 13/100/15 37/99/15
f 46/107/18 45/108/18 39/109/18
f 39/109/18 40/110/18 46/107/18
f 43/111/19 41/112/19 7/113/19
f 7/113/19 15/114/19 43/111/19
f 42/115/20 44/116/20 16/102/20
f 16/102/20 8/117/20 42/115/20
f 44/116/21 46/118/21 40/101/21
f 40/101/22 16/102/22 44/116/22
f 45/119/23 43/111/23 15/114/23
f 15/114/24 39/120/24 45/119/24
f 33/121/1 34/122/1 48/123/1
f 48/123/1 47/124/1 33/121/1
f 34/122/1 36/125/1 49/126/1
f 49/126/1 48/123/1 34/122/1
f 36/125/1 38/127/1 50/128/1
f 50/128/1 49/126/1 36/125/1
f 38/127/1 40/110/1 51/129/1
f 51/129/1 50/128/1 38/127/1
f 40/110/1 39/109/1 52/130/1
f 52/130/1 51/129/1 40/110/1
f 39/109/1 37/131/1 53/132/1
f 53/132/1 52/130/1 39/109/1
f 37/131/1 35/133/1 54/134/1
f 54/134/1 53/132/1 37/131/1
f 35/133/1 33/121/1 47/124/1
f 47/124/1 54/134/1 35/133/1
f 47/135/25 48/136/25 56/137/25
f 56/137/25 55/138/25 47/135/25
f 48/139/26 49/140/26 57/141/26
f 57/141/26 56/142/26 48/139/26
f 49/140/27 50/143/27 58/144/27
f 58/144/27 57/141/27 49/140/27
f 50/143/28 51/145/28 59/146/28
f 59/146/28 58/144/28 50/143/28
f 51/147/29 52/148/29 60/149/29
f 60/149/29 59/150/29 51/147/29
f 52/151/30 53/152/30 61/153/30
f 61/153/30 60/154/30 52/151/30
f 53/152/31 54/155/31 62/156/31
f 62/156/31 61/153/31 53/152/31
f 54/155/32 47/157/32 55/158/32
f 55/158/32 62/156/32 54/155/32
f 62/159/33 57/160/33 64/161/33
f 64/161/33 63/162/33 62/159/33
f 57/163/34 58/164/34 65/165/34
f 65/165/34 64/166/34 57/163/34
f 58/167/35 61/168/35 66/169/35
f 66/169/35 65/170/35 58/167/35
f 61/171/36 62/172/36 63/173/36
f 63/173/36 66/174/36 61/171/36
f 63/162/37 64/161/37 68/175/37
f 68/175/37 67/176/37 63/162/37
f 64/166/38 65/165/38 69/177/38
f 69/177/38 68/178/38 64/166/38
f 65/170/39 66/169/39 70/179/39
f 70/179/39 69/180/39 65/170/39
f 66/174/40 63/173/40 67/181/40
f 67/181/40 70/182/40 66/174/40
f 67/183/41 68/184/41 72/185/41
f 72/185/42 71/186/42 67/183/42
f 68/187/43 69/188/43 73/189/43
f 73/189/43 72/190/43 68/187/43
f 69/191/44 70/192/44 74/193/44
f 74/193/45 73/194/45 69/191/45
f 70/195/46 67/196/46 71/197/46
f 71/197/46 74/198/46 70/195/46
f 105/199/47 106/200/47 113/201/47
f 113/202/48 114/203/48 105/204/48
f 79/205/49 80/206/49 81/207/49
f 81/207/49 82/208/49 79/205/49
f 111/209/50 108/210/50 117/211/50
f 117/211/51 118/212/51 111/209/51
f 73/213/52 74/214/52 80/215/52
f 80/215/52 79/216/52 73/213/52
f 116/217/53 92/218/53 93/219/53
f 89/220/53 116/217/53 93/219/53
f 89/220/53 93/219/53 94/221/53
f 78/6/54 77/5/54 82/222/54
f 82/222/54 81/223/54 78/6/54
f 115/224/55 84/225/55 85/226/55
f 87/227/55 115/224/55 85/226/55
f 87/227/55 85/226/55 86/228/55
f 72/229/56 73/213/56 84/230/56
f 84/230/56 83/231/56 72/229/56
f 73/213/57 79/216/57 85/232/57
f 85/232/57 84/230/57 73/213/57
f 79/205/58 82/208/58 86/233/58
f 86/233/58 85/234/58 79/205/58
f 82/222/59 77/5/59 87/235/59
f 87/235/59 86/236/59 82/222/59
f 77/5/60 76/8/60 88/237/60
f 88/237/60 87/235/60 77/5/60
f 74/214/61 71/238/61 90/239/61
f 90/239/61 89/240/61 74/214/61
f 75/7/62 78/6/62 92/241/62
f 92/241/62 91/242/62 75/7/62
f 78/6/63 81/223/63 93/243/63
f 93/243/63 92/241/63 78/6/63
f 81/207/58 80/206/58 94/244/58
f 94/244/58 93/245/58 81/207/58
f 80/215/64 74/214/64 89/240/64
f 89/240/64 94/246/64 80/215/64
f 71/238/65 72/229/65 96/247/65
f 96/247/65 95/248/65 71/238/65
f 72/229/66 83/231/66 97/249/66
f 97/249/66 96/247/66 72/229/66
f 106/250/67 98/251/67 112/252/67
f 112/253/68 113/201/68 106/200/68
f 88/237/69 76/8/69 99/254/69
f 99/254/69 98/255/69 88/237/69
f 76/8/70 75/7/70 100/256/70
f 100/256/70 99/254/70 76/8/70
f 75/7/71 91/242/71 101/257/71
f 101/257/71 100/256/71 75/7/71
f 111/209/72 118/212/72 119/258/72
f 119/258/73 101/259/73 111/209/73
f 90/239/74 71/238/74 95/248/74
f 95/248/74 102/260/74 90/239/74
f 95/248/75 96/247/75 103/261/75
f 96/247/76 97/249/76 103/261/76
f 112/252/77 98/251/77 103/262/77
f 98/255/78 99/254/78 103/263/78
f 99/254/79 100/256/79 103/263/79
f 100/256/80 101/257/80 103/263/80
f 101/259/81 119/258/81 103/264/81
f 102/260/82 95/248/82 103/261/82
f 115/265/83 87/266/83 105/267/83
f 105/267/84 114/268/84 115/265/84
f 87/235/85 88/237/85 106/200/85
f 106/200/86 105/199/86 87/235/86
f 88/237/87 98/255/87 106/200/87
f 97/249/88 83/231/88 107/269/88
f 83/231/89 84/230/89 104/270/89
f 104/270/90 107/269/90 83/231/90
f 116/271/91 117/272/91 108/273/91
f 108/273/92 92/274/92 116/271/92
f 89/240/93 90/239/93 110/275/93
f 110/275/93 109/276/93 89/240/93
f 90/239/94 102/260/94 110/275/94
f 101/257/95 91/242/95 111/188/95
f 91/242/96 92/241/96 108/277/96
f 108/277/96 111/188/96 91/242/96
f 103/278/97 97/279/97 112/280/97
f 112/280/98 97/279/98 107/281/98
f 107/281/99 113/282/99 112/280/99
f 107/281/100 104/283/100 114/284/100
f 114/284/101 113/282/101 107/281/101
f 104/285/102 84/286/102 115/265/102
f 115/265/103 114/268/103 104/285/103
f 116/271/104 89/287/104 109/288/104
f 109/288/105 117/272/105 116/271/105
f 109/289/106 110/290/106 118/291/106
f 118/291/107 117/292/107 109/289/107
f 110/290/108 102/293/108 119/294/108
f 119/294/109 118/291/109 110/290/109
f 119/294/110 102/293/110 103/295/110
f 2/296/111 10/93/111 122/297/111
f 122/297/111 121/298/111 2/296/111
f 10/93/112 34/92/112 123/299/112
f 123/299/112 122/297/112 10/93/112
f 34/300/113 33/301/113 124/302/113
f 124/302/113 123/303/113 34/300/113
f 33/304/114 9/305/114 125/306/114
f 125/306/114 124/307/114 33/304/114
f 9/305/115 1/308/115 120/309/115
f 120/309/115 125/306/115 9/305/115
