mtllib hangar.mtl
o Hangar
v 13.634861 0.000000 -45.212536
v -13.634861 0.000000 -45.212536
v 13.634861 0.000000 45.212498
v -13.634861 0.000000 45.212498
v 13.634861 4.363335 -45.212536
v -13.634861 4.363335 -45.212536
v 13.634861 4.363335 45.212536
v -13.634861 4.363335 45.212536
v -7.590422 10.714192 -45.212498
v -7.387900 10.714192 45.212536
v 7.597985 10.714192 -45.212498
v 7.597985 10.714192 45.212536
v 11.191722 8.790778 -45.212498
v 11.191722 8.790778 45.212536
v -11.027749 8.790778 -45.212498
v -11.027711 8.790778 45.212536
v -0.138802 11.936499 -45.212536
v -0.138764 11.936499 45.212536
v 6.643588 0.000000 44.965801
v -6.684698 0.000000 44.965801
v 6.643588 0.000000 53.129543
v -6.684698 0.000000 53.129543
v 3.747199 8.549241 44.965801
v -3.788269 8.549241 44.965801
v 3.747199 8.549241 53.129543
v -3.788269 8.549241 53.129543
v 6.643588 6.667905 44.965801
v -6.684698 6.667905 44.965801
v -6.684698 6.667905 53.129543
v 6.643588 6.667905 53.129543
v -5.598207 -0.008726 53.129543
v 5.557137 -0.008726 53.129543
v 5.557137 6.078062 53.129543
v 3.425304 7.462790 53.129543
v -3.466414 7.462790 53.129543
v -5.598207 6.078062 53.129543
v -5.598207 -0.008726 45.326557
v 5.557137 -0.008726 45.326557
v 5.557137 6.078062 45.326557
v 3.425304 7.462790 45.326557
v -3.466414 7.462790 45.326557
v -5.598207 6.078062 45.326557
v -5.180520 10.611574 40.137970
v -4.990253 10.611574 40.247803
v -4.990253 10.611574 40.028099
v -7.123521 30.002798 40.137970
v 0.834521 11.273591 31.989506
v -0.718677 11.273591 31.989506
v 0.834521 11.273591 33.782883
v -0.718677 11.273591 33.782883
v 1.718024 15.918021 30.990084
v -1.602142 15.918021 30.990084
v 1.718024 15.918021 34.782307
v -1.602142 15.918021 34.782307
v 0.834521 14.275082 31.989506
v -0.718677 14.275082 31.989506
v -0.718677 14.275082 33.782883
v 0.834521 14.275082 33.782883
v 1.718024 15.918021 -4.891281
v -1.602142 15.918021 -4.891281
v -1.602142 15.918021 -1.099095
v 1.718024 15.918021 -1.099095
v 0.834521 11.273591 -3.891857
v -0.718677 11.273591 -3.891857
v -0.718677 14.275082 -3.891857
v 0.834521 14.275082 -3.891857
v -0.718677 11.273591 -2.098518
v -0.718677 14.275082 -2.098518
v 0.834521 11.273591 -2.098518
v 0.834521 14.275082 -2.098518
v 1.718024 15.918021 -38.287540
v -1.602142 15.918021 -38.287540
v -1.602142 15.918021 -34.495354
v 1.718024 15.918021 -34.495354
v 0.834521 11.273591 -37.288116
v -0.718677 11.273591 -37.288116
v -0.718677 14.275082 -37.288116
v 0.834521 14.275082 -37.288116
v -0.718677 11.273591 -35.494778
v -0.718677 14.275082 -35.494778
v 0.834521 11.273591 -35.494778
v 0.834521 14.275082 -35.494778
v 3.442136 8.144468 53.147152
v -3.442136 8.144468 53.147152
v -3.442136 8.144468 54.831200
v 3.442136 8.144468 54.831200
v -6.088262 -0.001357 53.147114
v -6.088262 -0.001357 54.496861
v -6.088262 6.604573 53.147152
v 6.088262 -0.001357 53.147114
v 6.088262 6.604573 53.147152
v 6.088262 -0.001357 54.496861
vn 0.8755 0.4831 -0.0000
vn -0.0000 -0.0000 -1.0000
vn -1.0000 -0.0000 -0.0000
vn -0.0000 -0.0000 1.0000
vn 1.0000 -0.0000 -0.0000
vn -0.1619 0.9868 -0.0000
vn -0.1663 0.9861 0.0004
vn -0.4883 0.8727 0.0011
vn -0.4672 0.8841 -0.0000
vn 0.1561 0.9877 -0.0000
vn 0.4719 0.8817 -0.0000
vn -0.8617 0.5074 -0.0000
vn -0.0000 1.0000 -0.0000
vn -0.5447 0.8386 -0.0000
vn 0.5447 0.8386 -0.0000
vn -0.4993 -0.0500 0.8650
vn 0.9940 0.1094 -0.0000
vn -0.4994 -0.0500 -0.8649
vn -0.0000 -0.5197 -0.8543
vn -0.8807 -0.4736 -0.0000
vn -0.0000 -0.5197 0.8543
vn 0.8807 -0.4736 -0.0000
vn -0.5030 0.8643 -0.0000
vn 0.5030 0.8643 -0.0000
vn 0.5949 0.1609 0.7876
vn -0.0000 -0.0410 0.9992
vn -0.5949 0.1609 0.7876
vt 0.002200 2.002700
vt 0.002200 0.010500
vt 0.070900 0.010500
vt 0.070900 2.002700
vt 0.478500 0.012900
vt 0.998900 0.012900
vt 0.998900 0.175600
vt 0.949200 0.340700
vt 0.879700 0.412400
vt 0.741400 0.458000
vt 0.593700 0.412400
vt 0.525100 0.340700
vt 0.478500 0.175600
vt 0.391600 2.485700
vt 0.391600 0.013300
vt 0.234000 0.013300
vt 0.234000 2.485700
vt 0.226900 2.002700
vt 0.226900 0.010500
vt 0.148600 0.010500
vt 0.148600 2.002700
vt 0.815700 0.581000
vt 0.815700 0.869900
vt 0.769400 0.869900
vt 0.769400 0.581000
vt 0.986800 0.458200
vt 0.987000 0.417800
vt 0.875500 0.417800
vt 0.875500 0.458200
vt 0.815700 0.981000
vt 0.769400 0.981000
vt 0.995600 0.951800
vt 0.995600 0.517200
vt 0.875100 0.517200
vt 0.875100 0.951800
vt 0.847700 0.600200
vt 0.847700 0.868700
vt 0.769400 0.469900
vt 0.815700 0.469900
vt 0.995400 0.474800
vt 0.863400 0.474800
vt 0.826200 0.587700
vt 0.826200 0.881300
vt 0.863400 0.994100
vt 0.995400 0.994100
vt 0.970200 0.348700
vt 0.473800 0.003100
vt 0.392100 0.003100
vt 0.392100 0.165300
vt 0.473800 0.165300
vt 0.461700 0.303500
vt 0.419000 0.303500
vt 0.419000 0.451200
vt 0.461700 0.451200
vt 0.485400 0.222600
vt 0.395300 0.222600
vt 0.677800 0.899800
vt 0.479300 0.899800
vt 0.479300 0.985700
vt 0.677800 0.985700
vt 0.471400 0.305700
vt 0.593300 0.472200
vt 0.479700 0.278900
vt 0.403000 0.899800
vt 0.754100 0.899800
vt 0.760400 0.814100
vt 0.681900 0.891000
vt 0.760400 0.483900
vt 0.399100 0.483900
vt 0.477600 0.891000
vt 0.399100 0.814100
s 0
usemtl hangar
f 7/1/1 5/2/1 13/3/1
f 13/3/1 14/4/1 7/1/1
f 1/5/2 2/6/2 6/7/2
f 1/5/2 6/7/2 15/8/2
f 1/5/2 15/8/2 9/9/2
f 1/5/2 9/9/2 17/10/2
f 1/5/2 17/10/2 11/11/2
f 1/5/2 11/11/2 13/12/2
f 1/5/2 13/12/2 5/13/2
f 8/14/3 6/15/3 2/16/3
f 2/16/3 4/17/3 8/14/3
f 4/6/4 3/5/4 7/13/4
f 4/6/4 7/13/4 14/12/4
f 4/6/4 14/12/4 12/11/4
f 4/6/4 12/11/4 18/10/4
f 4/6/4 18/10/4 10/9/4
f 4/6/4 10/9/4 16/8/4
f 4/6/4 16/8/4 8/7/4
f 5/15/5 7/14/5 3/17/5
f 3/17/5 1/16/5 5/15/5
f 18/18/6 17/19/6 9/20/6
f 9/20/7 10/21/7 18/18/7
f 10/21/8 9/20/8 15/3/8
f 15/3/9 16/4/9 10/21/9
f 12/21/10 11/20/10 17/19/10
f 17/19/10 18/18/10 12/21/10
f 14/4/11 13/3/11 11/20/11
f 11/20/11 12/21/11 14/4/11
f 16/4/12 15/3/12 6/2/12
f 6/2/12 8/1/12 16/4/12
f 23/22/13 24/23/13 26/24/13
f 26/24/13 25/25/13 23/22/13
f 20/26/3 22/27/3 29/28/3
f 29/28/3 28/29/3 20/26/3
f 28/30/14 29/31/14 26/24/14
f 26/24/14 24/23/14 28/30/14
f 37/32/4 38/33/4 39/34/4
f 39/34/4 42/35/4 37/32/4
f 42/35/4 39/34/4 40/36/4
f 40/36/4 41/37/4 42/35/4
f 21/27/5 19/26/5 27/29/5
f 27/29/5 30/28/5 21/27/5
f 30/38/15 27/39/15 23/22/15
f 23/22/15 25/25/15 30/38/15
f 33/34/4 32/33/4 21/40/4
f 21/40/4 30/41/4 33/34/4
f 34/36/4 33/34/4 30/41/4
f 30/41/4 25/42/4 34/36/4
f 35/37/4 34/36/4 25/42/4
f 25/42/4 26/43/4 35/37/4
f 36/35/4 35/37/4 26/43/4
f 26/43/4 29/44/4 36/35/4
f 31/32/4 36/35/4 29/44/4
f 29/44/4 22/45/4 31/32/4
f 39/29/3 38/26/3 32/27/3
f 32/27/3 33/28/3 39/29/3
f 37/26/5 42/29/5 36/28/5
f 36/28/5 31/27/5 37/26/5
f 43/46/16 44/46/16 46/46/16
f 44/46/17 45/46/17 46/46/17
f 45/46/18 43/46/18 46/46/18
f 54/47/13 53/48/13 51/49/13
f 51/49/13 52/50/13 54/47/13
f 56/51/2 55/52/2 47/53/2
f 47/53/2 48/54/2 56/51/2
f 52/55/19 51/56/19 55/52/19
f 55/52/19 56/51/19 52/55/19
f 57/52/3 56/51/3 48/54/3
f 48/54/3 50/53/3 57/52/3
f 54/56/20 52/55/20 56/51/20
f 56/51/20 57/52/20 54/56/20
f 58/52/4 57/51/4 50/54/4
f 50/54/4 49/53/4 58/52/4
f 53/56/21 54/55/21 57/51/21
f 57/51/21 58/52/21 53/56/21
f 55/51/5 58/52/5 49/53/5
f 49/53/5 47/54/5 55/51/5
f 51/55/22 53/56/22 58/52/22
f 58/52/22 55/51/22 51/55/22
f 61/47/13 62/48/13 59/49/13
f 59/49/13 60/50/13 61/47/13
f 65/51/2 66/52/2 63/53/2
f 63/53/2 64/54/2 65/51/2
f 60/55/19 59/56/19 66/52/19
f 66/52/19 65/51/19 60/55/19
f 68/52/3 65/51/3 64/54/3
f 64/54/3 67/53/3 68/52/3
f 61/56/20 60/55/20 65/51/20
f 65/51/20 68/52/20 61/56/20
f 70/52/4 68/51/4 67/54/4
f 67/54/4 69/53/4 70/52/4
f 62/56/21 61/55/21 68/51/21
f 68/51/21 70/52/21 62/56/21
f 66/51/5 70/52/5 69/53/5
f 69/53/5 63/54/5 66/51/5
f 59/55/22 62/56/22 70/52/22
f 70/52/22 66/51/22 59/55/22
f 73/47/13 74/48/13 71/49/13
f 71/49/13 72/50/13 73/47/13
f 77/51/2 78/52/2 75/53/2
f 75/53/2 76/54/2 77/51/2
f 72/55/19 71/56/19 78/52/19
f 78/52/19 77/51/19 72/55/19
f 80/52/3 77/51/3 76/54/3
f 76/54/3 79/53/3 80/52/3
f 73/56/20 72/55/20 77/51/20
f 77/51/20 80/52/20 73/56/20
f 82/52/4 80/51/4 79/54/4
f 79/54/4 81/53/4 82/52/4
f 74/56/21 73/55/21 80/51/21
f 80/51/21 82/52/21 74/56/21
f 78/51/5 82/52/5 81/53/5
f 81/53/5 75/54/5 78/51/5
f 71/55/22 74/56/22 82/52/22
f 82/52/22 78/51/22 71/55/22
f 83/57/13 84/58/13 85/59/13
f 85/59/13 86/60/13 83/57/13
f 87/61/3 88/62/3 89/63/3
f 89/64/23 85/59/23 84/58/23
f 92/62/5 90/61/5 91/63/5
f 91/65/24 83/57/24 86/60/24
f 91/66/25 86/67/25 92/68/25
f 88/69/26 92/68/26 86/67/26
f 86/67/26 85/70/26 88/69/26
f 85/70/27 89/71/27 88/69/27
