mtllib hangar02.mtl
o Hangar02
v 28.123816 0.530492 15.643637
v 28.123684 0.530492 7.823344
v 24.974358 0.530492 7.823652
v 24.974491 0.530492 15.643944
v 27.380211 22.688553 10.739854
v 27.380165 22.688553 8.000352
v 25.717966 22.688553 8.000484
v 25.718010 22.688553 10.739985
v 13.300014 0.861331 -0.783258
v 13.215223 0.169222 22.770720
v 13.384979 0.307529 -24.374882
v 13.367869 14.145059 -19.634470
v 13.299706 21.728447 -0.698734
v 13.231759 14.034148 18.173367
v 22.256010 0.169222 22.816942
v 22.425720 0.307529 -24.328615
v 22.408657 14.145059 -19.588247
v 22.340492 21.728447 -0.652513
v 22.272545 14.034148 18.219589
v 26.941139 0.016576 17.626690
v 26.945757 8.698291 16.352942
v 26.969727 15.423997 9.687616
v 27.005526 18.058304 -0.253026
v 27.041718 15.764862 -10.312934
v 27.066872 9.271751 -17.298191
v 27.072990 0.640567 -18.990999
v -28.533918 0.016576 17.343037
v -28.529299 8.698291 16.069286
v -28.505329 15.423997 9.403961
v -28.469532 18.058304 -0.536682
v -28.433296 15.764862 -10.596633
v -28.408184 9.271751 -17.581848
v -28.402073 0.640567 -19.274654
v -28.468172 0.485856 -0.912333
v 22.295370 0.639687 11.878813
v 22.295370 11.633754 11.878813
v 26.976677 0.270368 8.856759
v 26.976677 11.015086 8.856759
v 27.035694 11.015086 -9.743741
v 22.384117 11.633754 -12.762539
v 27.035694 0.553360 -9.743741
v 22.384117 0.735953 -12.762539
v -5.694037 0.861331 -0.869673
v -5.778825 0.169222 22.684303
v -5.609115 0.307529 -24.461294
v -5.626178 14.145059 -19.720886
v -5.694345 21.728447 -0.785151
v -5.762290 14.034148 18.086908
v 3.261961 0.169222 22.730524
v 3.431672 0.307529 -24.415031
v 3.414608 14.145059 -19.674665
v 3.346443 21.728447 -0.738930
v 3.278497 14.034148 18.133173
v 3.346750 0.861331 -0.823453
v -24.120564 0.861331 -0.869675
v -24.052704 14.145059 -19.720888
v -24.035643 0.307529 -24.461296
v -24.120872 21.728447 -0.785152
v -24.188816 14.034148 18.086906
v -24.205351 0.169222 22.684301
v -15.011918 14.145059 -19.674667
v -14.994857 0.307529 -24.415033
v -15.080086 21.728447 -0.738931
v -15.148030 14.034148 18.133171
v -15.164567 0.169222 22.730522
v -15.079779 0.861331 -0.823455
v 24.974360 0.530492 -17.108562
v 25.718010 22.688553 -9.465278
v 25.717922 22.688553 -12.204780
v 24.974493 0.530492 -9.288271
v 27.380211 22.688553 -9.465410
v 28.123774 0.530492 -9.288534
v 27.380121 22.688553 -12.204911
v 28.123640 0.530492 -17.108870
v -26.748276 0.530492 15.643633
v -27.491926 22.688553 8.000348
v -27.491882 22.688553 10.739850
v -26.748409 0.530492 7.823340
v -29.154123 22.688553 8.000437
v -29.897730 0.530492 7.823605
v -29.154078 22.688553 10.739982
v -29.897602 0.530492 15.643940
v -29.897728 0.530492 -17.108612
v -29.154078 22.688553 -9.465281
v -29.154123 22.688553 -12.204783
v -29.897600 0.530492 -9.288275
v -27.491882 22.688553 -9.465414
v -26.748274 0.530492 -9.288583
v -27.491926 22.688553 -12.204915
v -26.748407 0.530492 -17.108919
vn 0.9994 0.0335 -0.0000
vn -0.0001 0.0080 -1.0000
vn -0.9994 0.0335 -0.0000
vn 0.0001 0.2161 0.9764
vn -0.0000 1.0000 -0.0000
vn -1.0000 -0.0000 -0.0036
vn 0.0048 0.3241 -0.9460
vn 0.0019 0.9283 -0.3718
vn -0.0019 0.9260 0.3775
vn -0.0049 0.3147 0.9492
vn 1.0000 -0.0000 0.0036
vn 1.0000 0.0001 0.0041
vn 1.0000 0.0002 0.0038
vn 1.0000 -0.0000 0.0084
vn -0.0051 0.1452 0.9894
vn -0.0036 0.7039 0.7103
vn -0.0013 0.9666 0.2562
vn 0.0011 0.9750 -0.2223
vn 0.0035 0.7324 -0.6808
vn 0.0050 0.1925 -0.9813
vn 1.0000 -0.0008 0.0038
vn 1.0000 -0.0000 0.0032
vn 1.0000 0.0009 0.0038
vn 1.0000 -0.0001 0.0040
vn 1.0000 -0.0000 0.0041
vn 1.0000 -0.0008 0.0043
vn 0.0001 0.0080 1.0000
vn -0.0001 0.2161 -0.9764
vt 0.251100 0.132200
vt 0.004000 0.743200
vt 0.253100 0.741300
vt 0.006100 0.132400
vt 0.996400 0.002200
vt 0.996400 0.131800
vt 0.008500 0.001300
vt 0.038900 0.683900
vt 0.114400 0.683900
vt 0.114400 0.742000
vt 0.038800 0.742000
vt 0.527000 0.507000
vt 0.005500 0.248400
vt 0.249900 0.248400
vt 0.497800 0.486800
vt 0.499200 0.739700
vt 0.263400 0.640200
vt 0.382100 0.553100
vt 0.348500 0.429000
vt 0.352200 0.751000
vt -0.000000 1.000000
vt 0.000000 0.764900
vt 1.000000 0.764900
vt 1.000000 1.000000
vt 0.678700 0.735500
vt 0.255000 0.422900
vt 0.269200 0.503200
vt 0.207000 0.681800
vt 0.074600 0.700200
vt 0.249600 0.326800
vt 0.428800 0.530100
vt 0.472400 0.314100
vt 0.263800 0.530100
s 0
usemtl hangar02
f 1/1/1 6/2/1 5/3/1
f 1/1/1 2/4/1 6/2/1
f 2/4/2 7/5/2 6/6/2
f 2/4/2 3/7/2 7/5/2
f 3/4/3 8/3/3 7/2/3
f 3/4/3 4/1/3 8/3/3
f 4/4/4 5/5/4 8/6/4
f 4/4/4 1/7/4 5/5/4
f 5/8/5 6/9/5 7/10/5
f 5/8/5 7/10/5 8/11/5
f 9/12/6 13/2/6 12/13/6
f 12/2/6 11/13/6 9/12/6
f 11/14/7 12/3/7 17/2/7
f 17/2/7 16/13/7 11/14/7
f 12/14/8 13/3/8 18/2/8
f 18/2/8 17/13/8 12/14/8
f 13/14/9 14/3/9 19/2/9
f 19/2/9 18/13/9 13/14/9
f 14/14/10 10/3/10 15/2/10
f 15/2/10 19/13/10 14/14/10
f 19/14/11 15/3/11 35/2/11
f 35/2/11 36/13/11 19/14/11
f 21/15/12 20/16/12 37/17/12
f 22/16/13 21/15/13 37/17/13
f 38/18/14 22/19/14 37/20/14
f 28/21/15 27/22/15 20/23/15
f 20/23/15 21/24/15 28/21/15
f 29/21/16 28/22/16 21/23/16
f 21/23/16 22/24/16 29/21/16
f 30/21/17 29/22/17 22/23/17
f 22/23/17 23/24/17 30/21/17
f 31/21/18 30/22/18 23/23/18
f 23/23/18 24/24/18 31/21/18
f 32/21/19 31/22/19 24/23/19
f 24/23/19 25/24/19 32/21/19
f 33/21/20 32/22/20 25/23/20
f 25/23/20 26/24/20 33/21/20
f 34/25/6 30/3/6 31/26/6
f 34/25/6 31/26/6 32/3/6
f 34/25/6 32/26/6 33/3/6
f 24/15/21 23/16/21 39/27/21
f 34/25/6 27/3/6 28/26/6
f 34/25/6 28/26/6 29/3/6
f 34/25/6 29/26/6 30/3/6
f 9/12/6 10/13/6 14/2/6
f 14/2/6 13/13/6 9/12/6
f 40/28/11 17/2/11 18/13/11
f 36/2/11 40/13/11 18/14/11
f 18/14/11 19/3/11 36/29/11
f 38/3/22 39/30/22 23/15/22
f 23/15/23 22/16/23 38/3/23
f 41/17/24 26/16/24 25/15/24
f 39/31/25 41/32/25 25/33/25
f 39/17/26 25/15/26 24/16/26
f 40/2/11 42/13/11 16/14/11
f 16/14/11 17/3/11 40/2/11
f 43/12/6 46/2/6 45/13/6
f 43/12/6 47/2/6 46/13/6
f 43/12/6 48/2/6 47/13/6
f 43/12/6 44/2/6 48/13/6
f 45/14/7 51/2/7 50/13/7
f 45/14/7 46/3/7 51/2/7
f 46/14/8 52/2/8 51/13/8
f 46/14/8 47/3/8 52/2/8
f 47/14/9 53/2/9 52/13/9
f 47/14/9 48/3/9 53/2/9
f 48/14/10 49/2/10 53/13/10
f 48/14/10 44/3/10 49/2/10
f 54/12/11 50/13/11 51/2/11
f 54/12/11 51/13/11 52/2/11
f 54/12/11 52/13/11 53/2/11
f 54/12/11 53/13/11 49/2/11
f 55/12/6 56/2/6 57/13/6
f 55/12/6 58/2/6 56/13/6
f 55/12/6 59/2/6 58/13/6
f 55/12/6 60/2/6 59/13/6
f 57/14/7 61/2/7 62/13/7
f 57/14/7 56/3/7 61/2/7
f 56/14/8 63/2/8 61/13/8
f 56/14/8 58/3/8 63/2/8
f 58/14/9 64/2/9 63/13/9
f 58/14/9 59/3/9 64/2/9
f 59/14/10 65/2/10 64/13/10
f 59/14/10 60/3/10 65/2/10
f 66/12/11 62/13/11 61/2/11
f 66/12/11 61/13/11 63/2/11
f 66/12/11 63/13/11 64/2/11
f 66/12/11 64/13/11 65/2/11
f 67/1/3 68/2/3 69/3/3
f 67/1/3 70/4/3 68/2/3
f 70/4/27 71/5/27 68/6/27
f 70/4/27 72/7/27 71/5/27
f 72/4/1 73/3/1 71/2/1
f 72/4/1 74/1/1 73/3/1
f 74/4/28 69/5/28 73/6/28
f 74/4/28 67/7/28 69/5/28
f 69/8/5 68/9/5 71/10/5
f 69/8/5 71/10/5 73/11/5
f 75/1/1 76/2/1 77/3/1
f 75/1/1 78/4/1 76/2/1
f 78/4/2 79/5/2 76/6/2
f 78/4/2 80/7/2 79/5/2
f 80/4/3 81/3/3 79/2/3
f 80/4/3 82/1/3 81/3/3
f 82/4/4 77/5/4 81/6/4
f 82/4/4 75/7/4 77/5/4
f 77/8/5 76/9/5 79/10/5
f 77/8/5 79/10/5 81/11/5
f 83/1/3 84/2/3 85/3/3
f 83/1/3 86/4/3 84/2/3
f 86/4/27 87/5/27 84/6/27
f 86/4/27 88/7/27 87/5/27
f 88/4/1 89/3/1 87/2/1
f 88/4/1 90/1/1 89/3/1
f 90/4/28 85/5/28 89/6/28
f 90/4/28 83/7/28 85/5/28
f 85/8/5 84/9/5 87/10/5
f 85/8/5 87/10/5 89/11/5
