mtllib radar.mtl
o Radar
v -1.654934 -0.160396 -4.814607
v -5.387382 -0.160396 0.102811
v -1.864013 -0.160396 5.172166
v 4.045996 -0.160396 3.387772
v 4.175236 -0.160396 -2.784394
v -1.282253 2.405714 -3.740990
v -4.196938 2.405714 0.099024
v -1.445552 2.405714 4.057690
v 3.169598 2.405714 2.664249
v 3.270502 2.405714 -2.155583
v -0.997621 6.688765 -0.970391
v -2.093907 6.688765 0.013047
v -1.124871 6.688765 0.945815
v 1.267961 6.688765 0.519641
v 1.261685 6.688765 -0.342963
v -0.997621 8.047678 -0.970392
v -2.093907 8.047678 0.013047
v -1.124871 8.047678 0.945814
v 1.267961 8.047678 0.519640
v 1.261685 8.047678 -0.342963
v -3.147592 2.427470 0.001078
v -1.393662 2.427470 -1.572304
v 1.704418 2.427470 -0.568489
v 1.714481 2.427470 0.811516
v -1.597267 2.427470 1.493377
v 1.780054 8.304085 6.949925
v 0.952284 7.919516 -0.000139
v 1.669061 8.304083 -7.335435
v 5.202300 10.944558 -14.116258
v 4.357193 10.944560 14.700642
v 0.749840 8.304085 7.233092
v -0.116136 7.919516 -0.000139
v 0.639040 8.304083 -7.619183
v 4.172279 10.944558 -14.700644
v 5.387381 10.944560 14.114210
v 1.780054 8.801582 6.949925
v 0.952284 8.453726 -0.000139
v 1.669061 8.801580 -7.335435
v 0.749840 8.801582 7.233092
v -0.116136 8.453726 -0.000139
v 0.639040 8.801580 -7.619183
v 1.780054 18.234959 6.949924
v 0.952284 18.583313 -0.000139
v 1.669061 18.234959 -7.335436
v 5.202300 16.102430 -14.116258
v 4.357193 16.102434 14.700642
v 0.749867 18.234959 7.233091
v -0.116109 18.583313 -0.000139
v 0.639040 18.234959 -7.619184
v 4.172279 16.102430 -14.700644
v 5.387381 16.102434 14.114210
v 1.780054 18.732430 6.949924
v 0.952284 19.117523 -0.000139
v 1.669061 18.732430 -7.335436
v 0.749840 18.732430 7.233091
v -0.116109 19.117523 -0.000139
v 0.639040 18.732430 -7.619184
v -0.997621 19.223513 -0.970392
v -2.093907 19.223513 0.013047
v -1.124871 19.223513 0.945814
v 1.267961 19.223513 0.519640
v 1.261685 19.223513 -0.342963
v -0.641527 20.684629 -0.429244
v -1.146572 20.684629 0.023828
v -0.700162 20.684629 0.453540
v 0.402206 20.684629 0.257206
v 0.399303 20.684629 -0.140189
v -0.730903 8.195329 0.253392
v -0.730903 8.195329 -0.218783
v -1.634643 8.195329 0.253392
v -1.634643 8.195329 -0.218783
v -0.730903 19.480225 0.253392
v -0.730903 19.480225 -0.218783
v -1.634643 19.480225 0.253392
v -1.634643 19.480225 -0.218783
v 4.670245 10.826488 13.959758
v 1.349900 8.585621 7.238180
v 0.410471 8.221813 -0.093883
v 1.069333 8.585619 -7.467660
v 4.249353 10.826486 -13.908645
v 4.670245 16.216801 13.959758
v 1.349900 18.444120 7.238179
v 0.410471 18.807928 -0.093883
v 1.069333 18.444120 -7.467661
v 4.249353 16.216797 -13.908645
v 0.688745 8.461080 -0.315623
v 0.158875 8.461080 -0.002821
v 0.694689 8.461080 0.299642
v 0.688745 19.232748 -0.315623
v 0.158875 19.232748 -0.002821
v 0.694689 19.232748 0.299642
v 0.835595 18.370142 -7.474214
v 1.365465 18.370142 -7.787015
v 1.365465 8.461079 -7.787014
v 0.835595 8.461079 -7.474213
v 1.371436 18.370142 -7.171722
v 1.371436 8.461079 -7.171721
v 3.958004 16.223680 -13.878456
v 4.487845 16.132868 -14.191259
v 4.487845 10.860102 -14.191259
v 3.958004 10.742252 -13.878456
v 4.493817 16.331524 -13.575994
v 4.493817 10.623047 -13.575994
v 1.055730 18.370142 7.039135
v 1.585572 18.370142 6.726334
v 1.585572 8.461081 6.726335
v 1.055730 8.461081 7.039135
v 1.591544 18.370142 7.341626
v 1.591544 8.461081 7.341627
v 4.309948 16.359144 13.910883
v 4.839818 16.442715 13.598080
v 4.839818 10.623049 13.598080
v 4.309948 10.716600 13.910883
v 4.845790 16.232227 14.213345
v 4.845790 10.816315 14.213345
v 4.490951 10.826488 13.961573
v 1.170606 18.444120 7.239994
v 1.170606 8.585621 7.239995
v 4.490951 16.216801 13.961573
v 0.231177 18.807928 -0.092068
v 0.231177 8.221813 -0.092067
v 0.890039 18.444120 -7.465846
v 0.890039 8.585619 -7.465845
v 4.070059 16.216797 -13.906830
v 4.070059 10.826486 -13.906830
vn -0.7474 0.3459 -0.5673
vn -0.7671 0.3567 0.5332
vn 0.2712 0.3459 0.8982
vn 0.9444 0.3281 0.0198
vn 0.3107 0.3281 -0.8921
vn -0.0000 1.0000 -0.0000
vn -0.6678 -0.0000 -0.7444
vn -0.6935 -0.0000 0.7205
vn 0.1753 -0.0000 0.9845
vn 1.0000 -0.0000 -0.0073
vn 0.2676 -0.0000 -0.9635
vn -0.6586 0.1649 -0.7342
vn 0.2668 0.0786 -0.9606
vn 0.3065 0.1051 -0.9460
vn 0.9946 0.1037 -0.0072
vn 0.9946 0.1037 -0.0073
vn 0.1743 0.1065 0.9789
vn 0.2009 0.0879 0.9757
vn -0.6837 0.1671 0.7103
vn -0.0697 0.9648 -0.2535
vn -0.1240 0.9681 -0.2179
vn -0.0000 0.9987 -0.0500
vn -0.0128 0.9988 -0.0465
vn -0.0127 0.9989 0.0461
vn -0.0000 0.9990 0.0456
vn -0.1333 0.9629 0.2349
vn -0.0706 0.9640 0.2565
vn 0.8932 -0.0000 -0.4497
vn 0.9930 -0.0000 -0.1183
vn 0.9953 -0.0000 0.0973
vn 0.8868 -0.0000 0.4621
vn -0.8948 -0.0000 -0.4465
vn -0.9951 -0.0000 -0.0986
vn -0.9929 -0.0000 0.1189
vn -0.9004 -0.0000 0.4350
vn 0.0841 0.9484 0.3058
vn 0.1499 0.9530 0.2633
vn -0.0000 0.9985 0.0553
vn 0.0141 0.9986 0.0515
vn 0.0141 0.9986 -0.0511
vn -0.0000 0.9987 -0.0505
vn 0.1606 0.9456 -0.2831
vn 0.0852 0.9472 -0.3093
vn -0.9929 -0.0001 0.1189
vn -0.6116 0.4015 -0.6817
vn -0.6338 0.4060 0.6584
vn 0.1688 0.2703 0.9479
vn 0.8608 0.5089 -0.0063
vn 0.2569 0.2800 -0.9250
vn 1.0000 -0.0000 -0.0000
vn -0.0000 -0.0000 -1.0000
vn -1.0000 -0.0000 -0.0000
vn -0.0000 -0.0000 1.0000
vn -0.8966 -0.0000 0.4429
vn -0.9919 -0.0000 0.1271
vn -0.9960 -0.0000 -0.0890
vn -0.8967 -0.0000 -0.4427
vn -0.5084 -0.0000 -0.8611
vn -0.4916 -0.0000 0.8708
vn 1.0000 -0.0000 -0.0097
vn 0.8966 -0.0000 -0.4429
vn 0.9919 -0.0000 -0.1271
vn 0.9960 -0.0000 0.0890
vn 0.8967 -0.0000 0.4427
vn 0.0033 0.9440 0.3301
vn -0.0101 -0.0000 -0.9999
vn -0.0032 0.9491 -0.3149
vn -0.0005 -0.9988 -0.0495
vn 0.0101 -0.0000 0.9999
vn 0.0005 -0.9988 0.0493
vn 0.0033 -0.9446 0.3283
vn -0.0005 0.9988 -0.0495
vn -0.0032 -0.9497 -0.3131
vn 0.0005 0.9988 0.0493
vt 0.546700 0.298300
vt 0.981500 0.298300
vt 0.979400 0.478400
vt 0.546800 0.478400
vt 0.285200 0.133300
vt 0.320900 0.022100
vt 0.435400 0.022400
vt 0.470500 0.133800
vt 0.377700 0.202300
vt 0.760900 0.859600
vt 0.635500 0.857900
vt 0.635500 0.970900
vt 0.760900 0.972700
vt 0.959900 0.859600
vt 0.959900 0.972700
vt 0.960400 0.218200
vt 0.897300 0.218200
vt 0.897300 0.282400
vt 0.960400 0.282400
vt 0.873600 0.043000
vt 0.860700 0.130200
vt 0.734900 0.157900
vt 0.671700 0.097100
vt 0.738000 0.011900
vt 0.721500 0.505200
vt 0.547600 0.503500
vt 0.997700 0.505200
vt 0.982100 0.017000
vt 0.881000 0.017000
vt 0.003900 0.003100
vt 0.278900 0.004300
vt 0.278500 0.079700
vt 0.003100 0.080400
vt 0.692500 0.211700
vt 0.891100 0.194600
vt 0.681000 0.191800
vt 0.546100 0.273800
vt 0.559700 0.293300
vt 0.683200 0.172300
vt 0.580500 0.251700
vt 0.579400 0.183100
vt 0.626700 0.146500
vt 0.483100 0.181500
vt 0.534500 0.150800
vt 0.527600 0.008300
vt 0.555000 0.071000
vt 0.617700 0.008700
vt 0.596500 0.071200
vt 0.002800 0.205700
vt 0.002800 0.158800
vt 0.278900 0.158800
vt 0.278900 0.205700
vt 0.528500 0.802700
vt 0.013600 0.202800
vt 0.013600 0.979200
vt 0.528500 0.378200
vt 0.533500 0.226800
vt 0.011100 0.989800
vt 0.011100 0.199600
vt 0.533500 0.962600
vt 0.279500 0.081100
vt 0.279500 0.156500
vt 0.002000 0.156500
vt 0.002000 0.081100
s 0
usemtl radar
f 1/1/1 2/2/1 7/3/1
f 7/3/1 6/4/1 1/1/1
f 2/1/2 3/2/2 8/3/2
f 8/3/2 7/4/2 2/1/2
f 3/1/3 4/2/3 9/3/3
f 9/3/3 8/4/3 3/1/3
f 4/1/4 5/2/4 10/3/4
f 10/3/4 9/4/4 4/1/4
f 5/1/5 1/2/5 6/3/5
f 6/3/5 10/4/5 5/1/5
f 10/5/6 6/6/6 7/7/6
f 10/5/6 7/7/6 8/8/6
f 10/5/6 8/8/6 9/9/6
f 11/10/7 12/11/7 17/12/7
f 17/12/7 16/13/7 11/10/7
f 12/11/8 13/10/8 18/13/8
f 18/13/8 17/12/8 12/11/8
f 13/10/9 14/14/9 19/15/9
f 19/15/9 18/13/9 13/10/9
f 14/16/10 15/17/10 20/18/10
f 20/18/10 19/19/10 14/16/10
f 15/14/11 11/10/11 16/13/11
f 16/13/11 20/15/11 15/14/11
f 19/20/6 20/21/6 16/22/6
f 19/20/6 16/22/6 17/23/6
f 19/20/6 17/23/6 18/24/6
f 12/11/12 11/10/12 22/25/12
f 22/25/12 21/26/12 12/11/12
f 11/10/13 15/14/13 23/27/13
f 23/27/14 22/25/14 11/10/14
f 15/17/15 14/16/15 24/28/15
f 24/28/16 23/29/16 15/17/16
f 14/14/17 13/10/17 25/25/17
f 25/25/18 24/27/18 14/14/18
f 13/10/19 12/11/19 21/26/19
f 21/26/19 25/25/19 13/10/19
f 35/30/20 36/31/20 39/32/20
f 39/32/21 30/33/21 35/30/21
f 36/30/22 37/31/22 40/32/22
f 40/32/23 39/33/23 36/30/23
f 37/30/24 38/31/24 41/32/24
f 41/32/25 40/33/25 37/30/25
f 38/30/26 29/31/26 34/32/26
f 34/32/27 41/33/27 38/30/27
f 36/34/28 35/35/28 26/36/28
f 26/36/29 27/37/29 37/38/29
f 37/38/29 36/34/29 26/36/29
f 27/36/30 28/37/30 38/38/30
f 38/38/30 37/34/30 27/36/30
f 38/34/31 28/36/31 29/35/31
f 41/34/32 34/35/32 33/36/32
f 33/36/33 32/37/33 40/38/33
f 40/38/33 41/34/33 33/36/33
f 32/36/34 31/37/34 39/38/34
f 39/38/34 40/34/34 32/36/34
f 39/34/35 31/36/35 30/35/35
f 51/31/36 52/30/36 55/33/36
f 55/33/37 46/32/37 51/31/37
f 52/31/38 53/30/38 56/33/38
f 56/33/39 55/32/39 52/31/39
f 53/31/40 54/30/40 57/33/40
f 57/33/41 56/32/41 53/31/41
f 54/31/42 45/30/42 50/33/42
f 50/33/43 57/32/43 54/31/43
f 52/36/28 51/35/28 42/34/28
f 42/34/29 43/38/29 53/37/29
f 53/37/29 52/36/29 42/34/29
f 43/34/30 44/38/30 54/37/30
f 54/37/30 53/36/30 43/34/30
f 54/34/31 44/36/31 45/35/31
f 57/36/32 50/35/32 49/34/32
f 49/34/33 48/38/33 56/37/33
f 56/37/33 57/36/33 49/34/33
f 48/34/44 47/38/44 55/37/44
f 55/37/34 56/36/34 48/34/34
f 55/34/35 47/36/35 46/35/35
f 58/39/45 59/40/45 64/41/45
f 64/41/45 63/42/45 58/39/45
f 59/40/46 60/43/46 65/44/46
f 65/44/46 64/41/46 59/40/46
f 60/43/47 61/45/47 66/46/47
f 66/46/47 65/44/47 60/43/47
f 61/45/48 62/47/48 67/48/48
f 67/48/48 66/46/48 61/45/48
f 62/47/49 58/39/49 63/42/49
f 63/42/49 67/48/49 62/47/49
f 66/46/6 67/48/6 63/42/6
f 66/46/6 63/42/6 64/41/6
f 66/46/6 64/41/6 65/44/6
f 68/49/50 69/50/50 73/51/50
f 73/51/50 72/52/50 68/49/50
f 69/49/51 71/50/51 75/51/51
f 75/51/51 73/52/51 69/49/51
f 71/49/52 70/50/52 74/51/52
f 74/51/52 75/52/52 71/49/52
f 70/49/53 68/50/53 72/51/53
f 72/51/53 74/52/53 70/49/53
f 76/53/54 82/54/54 77/55/54
f 82/54/54 76/53/54 81/56/54
f 77/57/55 83/58/55 78/59/55
f 83/58/55 77/57/55 82/60/55
f 78/59/56 84/60/56 79/57/56
f 84/60/56 78/59/56 83/58/56
f 79/55/57 85/56/57 80/53/57
f 85/56/57 79/55/57 84/54/57
f 86/61/58 87/62/58 90/63/58
f 90/63/58 89/64/58 86/61/58
f 87/61/59 88/62/59 91/63/59
f 91/63/59 90/64/59 87/61/59
f 88/61/60 86/62/60 89/63/60
f 89/63/60 91/64/60 88/61/60
f 94/61/58 95/62/58 92/63/58
f 92/63/58 93/64/58 94/61/58
f 95/61/59 97/62/59 96/63/59
f 96/63/59 92/64/59 95/61/59
f 97/61/60 94/62/60 93/63/60
f 93/63/60 96/64/60 97/61/60
f 100/61/58 101/62/58 98/63/58
f 98/63/58 99/64/58 100/61/58
f 101/61/59 103/62/59 102/63/59
f 102/63/59 98/64/59 101/61/59
f 103/61/60 100/62/60 99/63/60
f 99/63/60 102/64/60 103/61/60
f 106/61/58 107/62/58 104/63/58
f 104/63/58 105/64/58 106/61/58
f 107/61/59 109/62/59 108/63/59
f 108/63/59 104/64/59 107/61/59
f 109/61/60 106/62/60 105/63/60
f 105/63/60 108/64/60 109/61/60
f 112/61/58 113/62/58 110/63/58
f 110/63/58 111/64/58 112/61/58
f 113/61/59 115/62/59 114/63/59
f 114/63/59 110/64/59 113/61/59
f 115/61/60 112/62/60 111/63/60
f 111/63/60 114/64/60 115/61/60
f 116/53/61 118/55/61 117/54/61
f 117/54/61 119/56/61 116/53/61
f 118/57/62 121/59/62 120/58/62
f 120/58/62 117/60/62 118/57/62
f 121/59/63 123/57/63 122/60/63
f 122/60/63 120/58/63 121/59/63
f 123/55/64 125/53/64 124/56/64
f 124/56/64 122/54/64 123/55/64
f 79/55/65 80/53/65 125/53/65 123/55/65
f 81/56/66 76/53/66 116/53/66 119/56/66
f 76/53/67 77/55/67 118/55/67 116/53/67
f 83/58/68 82/60/68 117/60/68 120/58/68
f 80/53/69 85/56/69 124/56/69 125/53/69
f 84/60/70 83/58/70 120/58/70 122/60/70
f 85/56/71 84/54/71 122/54/71 124/56/71
f 77/57/72 78/59/72 121/59/72 118/57/72
f 82/54/73 81/56/73 119/56/73 117/54/73
f 78/59/74 79/57/74 123/57/74 121/59/74
