mtllib sucker.mtl
o Sucker
v -0.547604 1.318279 0.554533
v 0.614317 1.318279 0.554533
v -0.717648 0.523832 -0.695031
v 0.771646 0.523832 -0.695031
v -0.717648 0.523832 -1.643267
v 0.771646 0.523832 -1.643267
v -0.232411 0.748338 -2.848002
v 0.232409 0.748338 -2.848002
v -0.359149 2.305604 0.554533
v 0.372724 2.308675 0.554533
v -0.394123 2.308361 -0.695926
v 0.341312 2.312589 -0.702151
v -0.424316 2.252639 -1.668394
v 0.381210 2.256869 -1.678173
v -0.363106 2.008998 -2.378623
v 0.350389 2.008998 -2.378623
v 0.938886 1.391297 -0.695926
v 0.938886 1.391297 -1.644162
v 0.232409 1.391297 -3.143711
v -0.232411 1.391297 -3.143711
v -0.882090 1.391297 -1.644162
v -0.882090 1.391297 -0.695926
v -0.270226 2.004395 1.348426
v 0.298016 2.006184 1.348426
v -0.348808 1.412186 1.348426
v 0.532051 1.412186 1.348426
v -0.131619 2.003569 4.139484
v 0.165077 2.004504 4.139484
v -0.158333 1.563185 4.967571
v 0.200913 1.563185 4.967571
v -0.228857 2.811177 0.541071
v 0.258578 2.813205 0.540478
v -0.253529 2.795026 -0.374361
v 0.268608 2.797166 -0.374954
v -0.218773 2.226060 1.314714
v 0.246037 2.227525 1.314714
v -0.844486 1.470192 0.602796
v 0.897162 1.477470 0.602692
v -0.686914 2.305068 0.602796
v 0.707909 2.315414 0.602692
v -0.875553 2.307824 -0.647663
v 0.887276 2.319330 -0.647767
v 1.169168 1.531970 -0.650328
v -1.121808 1.446582 -0.647663
v -0.961640 1.611941 0.484835
v 1.008479 1.623162 0.361682
v -0.861215 2.155550 0.586131
v 0.886220 2.171930 0.586730
v -1.108280 2.182015 -0.646937
v 1.129615 2.200562 -0.632703
v 1.213579 1.728214 -0.558567
v -1.218030 1.611498 -0.571708
v -0.602436 1.832592 1.101677
v 0.762230 1.833866 0.979095
v -0.806373 0.147214 0.968581
v 0.874676 0.148715 0.968409
v -0.831299 0.144770 1.204342
v 0.877695 0.145131 1.204794
v -1.103255 0.147595 1.009429
v 1.157520 0.147075 1.011821
v -0.806092 0.001412 0.959286
v 0.882906 0.002132 0.971710
v -0.831020 -0.001947 1.202460
v 0.885927 -0.000924 1.201902
v -1.102976 0.000878 1.007549
v 1.165751 0.008873 1.019869
v -1.317537 0.158600 -0.748251
v 1.409329 0.147989 -0.757494
v -1.495207 0.160553 -0.756256
v 1.621628 0.147993 -0.754386
v -1.316911 0.011883 -0.750048
v 1.417996 0.001407 -0.755612
v -1.494582 0.013836 -0.758052
v 1.630295 0.008148 -0.755237
v -1.275662 0.168820 -2.337419
v 1.411630 0.158615 -2.338169
v -1.495167 0.168283 -2.337063
v 1.623931 0.159179 -2.337917
v -1.275037 0.028829 -2.323585
v 1.420298 0.019194 -2.332308
v -1.494541 0.028294 -2.331590
v 1.632597 0.025933 -2.331934
v -1.269624 0.306485 -2.548766
v 1.411996 0.290582 -2.557956
v -1.489130 0.305950 -2.556771
v 1.624295 0.297323 -2.557581
v -0.551757 2.239373 -0.953600
v 0.514160 2.248694 -0.957502
v 1.000721 1.499146 -0.955114
v -0.926930 1.484005 -0.956126
v -0.882714 2.239007 -0.920472
v 0.899627 2.253546 -0.921045
v 1.102997 1.534320 -0.919363
v -1.073518 1.479510 -0.917225
v -1.065311 2.140651 -0.923762
v 1.089207 2.160769 -0.910559
v 1.162959 1.745618 -0.919700
v -1.162381 1.635189 -0.919350
v -2.721614 1.288896 0.234574
v 2.834726 1.309506 0.190429
v 2.858243 1.310940 -0.215473
v -2.719426 1.282717 -0.256960
v -2.464059 1.414680 0.228420
v 2.577658 1.486203 0.188955
v 2.582275 1.485200 -0.234932
v -2.471526 1.412821 -0.254608
v -0.099414 1.872403 5.805604
v 0.133901 1.873138 5.805604
v -0.099414 1.872403 6.371366
v 0.133901 1.873138 6.371366
v -0.137111 1.572132 6.362252
v 0.179175 1.572132 6.362252
v 0.010199 3.998094 6.520613
v -0.103854 3.997361 6.918279
v 0.129459 3.998094 6.918279
v 0.011171 1.974046 6.691652
v 0.010176 1.603470 6.665054
v 0.009733 3.795472 7.100108
v -0.142728 0.945560 -2.501830
v -0.033111 1.028284 -2.501830
v 0.079440 0.949595 -2.501830
v 0.039382 0.818238 -2.501830
v -0.097925 0.815742 -2.501830
v -0.142728 0.945560 -4.009902
v -0.033111 1.028284 -4.009902
v 0.079440 0.949595 -4.009902
v 0.039382 0.818238 -4.009902
v -0.097925 0.815742 -4.009902
vn -0.0000 -0.8439 0.5365
vn -0.0000 -1.0000 -0.0000
vn -0.0000 -0.9831 -0.1832
vn -0.0042 0.9998 -0.0176
vn -0.0041 0.9998 -0.0175
vn -0.0062 0.9983 -0.0572
vn -0.0059 0.9984 -0.0570
vn -0.0090 0.9428 -0.3332
vn -0.0000 0.9459 -0.3245
vn 0.9540 -0.1837 0.2369
vn 0.9819 -0.1893 -0.0000
vn 0.8803 -0.1982 -0.4310
vn 0.8911 -0.1722 -0.4198
vn 0.9499 0.2058 0.2352
vn 0.9710 0.1355 0.1970
vn 0.8406 0.5416 -0.0000
vn 0.8390 0.5442 0.0032
vn 0.8525 0.3346 -0.4016
vn 0.8238 0.5221 -0.2210
vn -0.0000 -0.4178 -0.9085
vn -0.0000 0.7781 -0.6282
vn -0.9024 -0.1715 -0.3954
vn -0.9026 -0.1799 -0.3911
vn -0.9825 -0.1862 -0.0000
vn -0.9528 -0.1804 0.2443
vn -0.8622 0.4518 -0.2293
vn -0.8793 0.2858 -0.3810
vn -0.8828 0.4697 -0.0000
vn -0.8830 0.4693 0.0005
vn -0.9630 0.1344 0.2336
vn -0.9577 0.2101 0.1964
vn -0.0026 0.7976 0.6032
vn -0.0025 0.7975 0.6033
vn -0.0000 -0.9931 0.1175
vn 0.9343 0.0643 0.3507
vn -0.8728 0.0713 0.4828
vn -0.0000 -0.9991 0.0417
vn 0.9295 0.3662 0.0445
vn 0.9705 0.2276 0.0793
vn -0.0031 1.0000 0.0005
vn -0.0032 1.0000 0.0005
vn -0.9902 0.1314 0.0466
vn -0.9871 0.1521 0.0491
vn 0.9861 0.1643 -0.0241
vn 0.9753 0.2208 0.0068
vn -0.0102 0.5533 -0.8329
vn -0.0032 0.5593 -0.8290
vn -0.9678 0.2502 0.0276
vn -0.9642 0.2645 0.0213
vn -0.9470 0.2504 0.2011
vn -0.9473 0.2495 0.2010
vn -0.0005 0.1505 0.9886
vn 0.9593 0.2219 0.1748
vn 0.9449 0.2534 0.2070
vn 0.5077 -0.8576 0.0817
vn 0.4808 -0.8743 0.0663
vn 0.0933 0.0574 -0.9940
vn 0.3031 0.0835 -0.9493
vn -0.0206 0.9998 0.0036
vn -0.0125 0.9999 0.0013
vn -0.4458 -0.8926 0.0671
vn -0.2117 -0.9751 0.0654
vn -0.2580 0.1314 -0.9572
vn -0.0996 0.0208 -0.9948
vn -0.0009 1.0000 0.0022
vn -0.0013 1.0000 0.0024
vn 0.0261 -0.9996 -0.0136
vn -0.0005 -0.9999 -0.0139
vn -0.0690 0.9344 0.3495
vn 0.0499 0.9356 0.3494
vn 0.5337 0.8457 0.0038
vn 0.5659 0.8237 0.0357
vn 0.0627 0.0154 -0.9979
vn -0.0511 0.0129 -0.9986
vn 0.6282 0.7647 0.1433
vn 0.4359 0.8976 0.0653
vn -0.4391 0.8984 -0.0132
vn -0.4647 0.8854 0.0038
vn -0.4741 0.8774 0.0735
vn -0.6521 0.7438 0.1466
vn 0.0114 -0.0071 -0.9999
vn 0.0253 -0.0136 -0.9996
vn 0.6509 0.4611 0.6030
vn 0.5495 0.6206 0.5594
vn 0.6584 0.2594 0.7065
vn 0.9032 -0.1367 0.4069
vn 0.8954 0.0480 0.4426
vn -0.8215 -0.1775 0.5419
vn -0.8172 -0.2388 0.5247
vn -0.6214 0.0825 0.7792
vn -0.6710 0.4284 0.6052
vn -0.5694 0.6013 0.5606
vn -0.9679 -0.2409 -0.0718
vn -0.9645 -0.2640 0.0083
vn 0.9268 -0.3635 0.0942
vn 0.9388 -0.2789 -0.2021
vn 0.2876 -0.2297 -0.9298
vn 0.1429 -0.3017 -0.9426
vn -0.2845 -0.2631 -0.9219
vn -0.1317 -0.2677 -0.9545
vn 0.5664 0.0613 0.8219
vn 0.8458 0.3010 0.4405
vn -0.7777 0.3187 0.5418
vn -0.5769 0.1279 0.8068
vn -0.9984 -0.0558 0.0119
vn -0.9983 -0.0565 0.0124
vn 0.5676 0.0157 0.8232
vn 0.5415 0.0810 0.8368
vn 0.9945 0.0005 0.1051
vn 0.9948 -0.0046 0.1019
vn -0.5826 -0.0115 0.8127
vn 0.0226 -0.9997 0.0074
vn 0.0317 -0.9995 0.0087
vn 0.0006 -1.0000 -0.0075
vn -0.0109 -0.9999 -0.0029
vn 0.0055 1.0000 0.0020
vn -0.0000 1.0000 -0.0004
vn 0.0021 1.0000 0.0060
vn 0.0108 0.9999 0.0049
vn -0.9535 -0.0602 -0.2953
vn 0.9649 0.0722 0.2525
vn 0.9655 0.0583 0.2537
vn 0.9580 0.0201 -0.2862
vn 0.9584 0.0076 -0.2853
vn -0.9762 -0.0046 0.2167
vn -0.9763 -0.0068 0.2165
vn -0.0001 1.0000 0.0071
vn -0.0027 1.0000 0.0067
vn 0.9981 0.0618 0.0022
vn 0.9979 0.0650 0.0019
vn 0.0318 -0.9994 -0.0112
vn 0.0317 -0.9994 -0.0112
vn -0.9983 -0.0591 -0.0019
vn -0.9981 -0.0621 -0.0022
vn 0.0107 0.9999 0.0067
vn -0.0024 1.0000 0.0049
vn 0.9996 0.0039 0.0266
vn 0.9996 0.0071 0.0264
vn -0.0106 -0.9999 -0.0092
vn 0.0028 -0.9999 -0.0107
vn -1.0000 -0.0043 -0.0000
vn -1.0000 -0.0045 -0.0001
vn -0.0029 0.8465 0.5324
vn -0.0281 0.8570 0.5145
vn 0.9968 0.0668 0.0437
vn 0.0216 -0.6388 -0.7691
vn -0.9972 -0.0637 -0.0399
vn -0.0012 0.8379 0.5458
vn -0.0214 0.8475 0.5304
vn 0.9994 0.0078 0.0336
vn 0.0298 -0.6300 -0.7761
vn -0.9995 -0.0057 -0.0310
vn 0.9795 0.1537 -0.1299
vn 0.9702 0.1760 -0.1663
vn -0.7694 -0.5017 -0.3953
vn -0.7708 -0.5016 -0.3926
vn 0.8409 -0.4475 -0.3043
vn 0.8235 -0.4077 -0.3946
vn -0.9708 0.1637 -0.1752
vn -0.9722 0.1855 -0.1430
vn 0.5396 -0.8152 -0.2105
vn 0.3533 -0.9307 -0.0950
vn 0.0113 0.9723 -0.2335
vn 0.0101 0.9716 -0.2363
vn -0.2526 -0.9540 -0.1618
vn -0.0576 -0.9435 -0.3262
vn -0.0255 0.9695 -0.2439
vn 0.9653 -0.1070 -0.2383
vn 0.9516 -0.2703 -0.1464
vn 0.4416 0.8769 -0.1898
vn 0.4400 0.8774 -0.1913
vn -0.8833 -0.4365 -0.1711
vn -0.8476 -0.4867 -0.2113
vn -0.4660 0.8608 -0.2049
vn -0.4618 0.8640 -0.2008
vn 0.1009 0.9857 0.1350
vn 0.1749 0.9846 -0.0004
vn -0.1477 0.9884 0.0354
vn -0.1299 0.9915 -0.0018
vn -0.1123 -0.9914 -0.0675
vn -0.0882 -0.9961 -0.0086
vn 0.0966 -0.9953 -0.0026
vn 0.1052 -0.9944 0.0130
vn 0.2744 0.3557 -0.8934
vn 0.2758 0.3363 -0.9005
vn 0.2238 0.3332 0.9159
vn 0.1329 0.8198 0.5570
vn -0.2095 0.5173 0.8297
vn -0.2133 0.4784 0.8518
vn -0.2550 0.2778 -0.9262
vn -0.2855 0.5582 -0.7791
vn 0.9904 0.1352 0.0292
vn -0.0031 0.9969 0.0785
vn -0.9932 0.1131 0.0281
vn -0.0000 -1.0000 0.0064
vn 0.9774 0.2113 -0.0000
vn 0.9888 0.1483 0.0145
vn -0.0031 1.0000 0.0009
vn -0.9886 0.1502 0.0141
vn -0.9922 0.1246 -0.0000
vn -0.0010 0.3189 -0.9478
vn 0.9469 0.1507 -0.2840
vn 1.0000 0.0021 -0.0000
vn -1.0000 -0.0021 -0.0000
vn -0.9517 0.1408 -0.2727
vn -0.0000 -0.9947 0.1029
vn 0.9388 0.1316 0.3183
vn 0.8709 -0.0375 0.4900
vn -0.8977 -0.0291 0.4397
vn -0.9498 0.1103 0.2929
vn -0.0021 0.6686 0.7436
vn 0.8797 -0.1034 0.4641
vn 0.9189 -0.0965 0.3825
vn -0.9318 -0.0923 0.3510
vn -0.8901 -0.1004 0.4446
vn -0.6024 0.7982 -0.0000
vn 0.5730 0.8196 -0.0000
vn 0.9565 -0.2917 -0.0000
vn 0.0182 -0.9998 -0.0000
vn -0.9453 -0.3262 -0.0000
vn -0.0000 -0.0000 -1.0000
vt 0.123600 0.572700
vt 0.139600 0.689800
vt 0.000000 0.689800
vt 0.014700 0.572700
vt 0.139600 0.778700
vt 0.000000 0.778700
vt 0.094100 0.891600
vt 0.050500 0.891600
vt 0.917900 0.339500
vt 0.872200 0.339400
vt 0.871300 0.253600
vt 0.920200 0.253700
vt 0.819000 0.537200
vt 0.980600 0.539300
vt 0.987700 0.717500
vt 0.810700 0.714700
vt 0.979500 0.847500
vt 0.822700 0.846500
vt 0.237300 0.547400
vt 0.307100 0.667300
vt 0.225900 0.664200
vt 0.303600 0.756100
vt 0.222400 0.753000
vt 0.792800 0.755300
vt 0.754200 0.941800
vt 0.661200 0.983900
vt 0.669600 0.750200
vt 0.608300 0.247200
vt 0.649800 0.171000
vt 0.617600 0.139900
vt 0.554100 0.234900
vt 0.674900 0.602400
vt 0.546500 0.750200
vt 0.544000 0.597700
vt 0.577800 0.860900
vt 0.201600 0.236300
vt 0.201600 0.192700
vt 0.268000 0.192700
vt 0.268000 0.236300
vt 0.951400 0.993000
vt 0.849300 0.992400
vt 0.753500 0.940100
vt 0.791800 0.753600
vt 0.668600 0.748700
vt 0.660600 0.982500
vt 0.303000 0.755100
vt 0.306300 0.666300
vt 0.225100 0.663300
vt 0.221700 0.752200
vt 0.236300 0.546500
vt 0.577000 0.859600
vt 0.546100 0.747500
vt 0.673600 0.600900
vt 0.543400 0.595500
vt 0.655000 0.176500
vt 0.601000 0.259500
vt 0.553100 0.239800
vt 0.613900 0.141500
vt 0.917000 0.412000
vt 0.873400 0.412000
vt 0.022500 0.498300
vt 0.105000 0.498300
vt 0.558900 0.283200
vt 0.552200 0.296800
vt 0.047400 0.335000
vt 0.093100 0.335000
vt 0.362700 0.540300
vt 0.307100 0.538100
vt 0.332100 0.185500
vt 0.364700 0.187800
vt 0.307100 0.540300
vt 0.360400 0.540300
vt 0.344400 0.908000
vt 0.322500 0.908000
vt 0.311500 0.539500
vt 0.366900 0.541500
vt 0.368600 0.189100
vt 0.336100 0.186900
vt 0.758100 0.631900
vt 0.743100 0.543000
vt 0.785400 0.560800
vt 0.797900 0.625400
vt 0.506100 0.271500
vt 0.437200 0.272000
vt 0.450000 0.217200
vt 0.498900 0.216700
vt 0.784100 0.207200
vt 0.797400 0.090700
vt 0.844300 0.097500
vt 0.832900 0.182500
vt 0.777900 0.013600
vt 0.798200 0.019100
vt 0.665500 0.449700
vt 0.665400 0.490400
vt 0.647700 0.486700
vt 0.647800 0.453400
vt 0.743900 0.691400
vt 0.761000 0.686600
vt 0.359100 0.763200
vt 0.480100 0.760300
vt 0.480900 0.738300
vt 0.360700 0.736400
vt 0.410700 0.866100
vt 0.410700 0.782400
vt 0.441300 0.801700
vt 0.420600 0.868600
vt 0.432000 0.192200
vt 0.439600 0.074600
vt 0.471100 0.071300
vt 0.483400 0.189100
vt 0.479200 0.762300
vt 0.357900 0.761400
vt 0.360900 0.733400
vt 0.480800 0.739500
vt 0.371700 0.867900
vt 0.371800 0.788900
vt 0.383900 0.782400
vt 0.399400 0.854100
vt 0.690600 0.652400
vt 0.685700 0.562900
vt 0.724500 0.563700
vt 0.717100 0.654000
vt 0.737000 0.351600
vt 0.733400 0.330300
vt 0.760300 0.330700
vt 0.735900 0.349800
vt 0.759100 0.328700
vt 0.731000 0.327400
vt 0.435500 0.000000
vt 0.688300 0.709500
vt 0.732700 0.445000
vt 0.768100 0.425000
vt 0.766400 0.448400
vt 0.735600 0.422800
vt 0.451400 0.818600
vt 0.436100 0.855000
vt 0.506100 0.188600
vt 0.487800 0.073500
vt 0.877200 0.009200
vt 0.922400 0.000000
vt 0.927200 0.026400
vt 0.882700 0.034800
vt 0.743100 0.562500
vt 0.730900 0.651900
vt 0.397800 0.791800
vt 0.410700 0.838300
vt 0.001600 0.894500
vt 0.051300 0.971400
vt 0.000100 0.944400
vt 0.022600 0.891600
vt 0.000000 1.000000
vt 0.571300 0.334300
vt 0.606500 0.273600
vt 0.572700 0.337600
vt 0.606200 0.276000
vt 0.305000 0.147500
vt 0.261000 0.182100
vt 0.259000 0.147200
vt 0.693400 0.386000
vt 0.725200 0.358600
vt 0.702600 0.447200
vt 0.723400 0.443300
vt 0.401500 0.366100
vt 0.410300 0.291700
vt 0.519900 0.330500
vt 0.520200 0.352700
vt 0.520800 0.330900
vt 0.402300 0.366500
vt 0.521100 0.353000
vt 0.411100 0.292100
vt 0.403000 0.158000
vt 0.431900 0.148400
vt 0.432000 0.275400
vt 0.406000 0.270200
vt 0.407700 0.397800
vt 0.415200 0.367500
vt 0.527600 0.366100
vt 0.533900 0.393200
vt 0.017600 0.317300
vt 0.037700 0.186600
vt 0.042700 0.309600
vt 0.686400 0.376600
vt 0.689400 0.375500
vt 0.403300 0.012900
vt 0.427300 0.021300
vt 0.429700 0.148400
vt 0.533600 0.330800
vt 0.533900 0.352400
vt 0.046100 0.322900
vt 0.020800 0.329900
vt 0.534800 0.352800
vt 0.534500 0.330100
vt 0.408000 0.000000
vt 0.432000 0.008400
vt 0.758300 0.162600
vt 0.777900 0.159600
vt 0.776500 0.160100
vt 0.760000 0.162700
vt 0.494600 0.431900
vt 0.517500 0.431100
vt 0.538100 0.560600
vt 0.521100 0.559100
vt 0.518500 0.430900
vt 0.494500 0.431400
vt 0.519500 0.557700
vt 0.533600 0.559700
vt 0.520000 0.168700
vt 0.533700 0.168900
vt 0.170900 0.546200
vt 0.158000 0.547400
vt 0.151700 0.381200
vt 0.164800 0.380700
vt 0.533500 0.169900
vt 0.519800 0.170000
vt 0.391800 0.334900
vt 0.378000 0.334600
vt 0.383300 0.169200
vt 0.397000 0.169500
vt 0.523600 0.673200
vt 0.506700 0.671500
vt 0.147800 0.233400
vt 0.160300 0.232400
vt 0.735900 0.016600
vt 0.755600 0.013600
vt 0.519000 0.020600
vt 0.532000 0.021100
vt 0.501700 0.670400
vt 0.519200 0.672100
vt 0.531900 0.022400
vt 0.518800 0.021100
vt 0.759400 0.013600
vt 0.739100 0.016700
vt 0.388400 0.021100
vt 0.401500 0.022100
vt 0.521600 0.688800
vt 0.504700 0.687100
vt 0.172500 0.211300
vt 0.506100 0.033100
vt 0.486200 0.033900
vt 0.484800 0.000800
vt 0.504700 0.000000
vt 0.506600 0.000000
vt 0.499300 0.685400
vt 0.516700 0.687700
vt 0.505900 0.001300
vt 0.506000 0.033900
vt 0.506100 0.054500
vt 0.472600 0.054800
vt 0.472500 0.034200
vt 0.376300 0.000000
vt 0.668000 0.142400
vt 0.635600 0.120700
vt 0.196900 0.658100
vt 0.199200 0.555300
vt 0.225000 0.569600
vt 0.223400 0.653300
vt 0.170600 0.658100
vt 0.171300 0.560800
vt 0.196900 0.566700
vt 0.196700 0.645700
vt 0.631300 0.121800
vt 0.670800 0.147900
vt 0.505100 0.760200
vt 0.504000 0.750100
vt 0.483500 0.214700
vt 0.447300 0.216700
vt 0.504000 0.750600
vt 0.503800 0.764800
vt 0.696700 0.543600
vt 0.723400 0.544200
vt 0.669800 0.174500
vt 0.684100 0.153800
vt 0.501300 0.214500
vt 0.671800 0.178900
vt 0.683000 0.156000
vt 0.737900 0.543000
vt 0.779500 0.542600
vt 0.705100 0.543000
vt 0.977300 0.153600
vt 0.876100 0.152300
vt 0.477200 0.574900
vt 0.439700 0.568300
vt 0.441000 0.573000
vt 0.485300 0.585400
vt 0.876100 0.194900
vt 0.855600 0.191400
vt 0.859600 0.057700
vt 0.872900 0.030100
vt 0.124000 0.305200
vt 0.131000 0.147800
vt 0.139600 0.329900
vt 0.685700 0.542000
vt 0.109500 0.153200
vt 0.124000 0.162600
vt 0.121600 0.304600
vt 0.112700 0.329900
vt 0.107800 0.347000
vt 0.124200 0.339900
vt 0.122200 0.490400
vt 0.112800 0.465900
vt 0.361900 0.187400
vt 0.333700 0.185400
vt 0.336000 0.128300
vt 0.344400 0.965100
vt 0.322500 0.965100
vt 0.367500 0.131500
vt 0.339400 0.129600
vt 0.337300 0.186800
vt 0.085200 0.081400
vt 0.055500 0.081400
vt 0.055500 0.028400
vt 0.085200 0.028400
vt 0.364100 0.130300
vt 0.338000 0.075300
vt 0.366200 0.077300
vt 0.977300 0.000000
vt 0.977300 0.021900
vt 0.940000 0.010700
vt 0.369500 0.078600
vt 0.341400 0.076700
vt 0.277100 0.271500
vt 0.299000 0.271500
vt 0.288700 0.470700
vt 0.141000 0.016300
vt 0.139600 0.053500
vt 0.144300 0.018000
vt 0.142900 0.055200
vt 0.071400 0.000000
vt 0.329800 0.044900
vt 0.364400 0.048800
vt 0.333000 0.046300
vt 0.367600 0.050100
vt 0.592300 0.407400
vt 0.592300 0.424200
vt 0.576100 0.416000
vt 0.160700 0.000000
vt 0.163900 0.001700
vt 0.002100 0.191000
vt 0.020100 0.332300
vt 0.002100 0.332300
vt 0.020100 0.191000
vt 0.014000 0.570600
vt 0.001600 0.429300
vt 0.014000 0.429300
vt 0.001600 0.570600
vt 0.033200 0.045200
vt 0.046100 0.186600
vt 0.033200 0.186600
vt 0.046100 0.045200
vt 0.009500 0.271200
s 0
usemtl sucker
f 1/1/1 3/2/1 4/3/1
f 4/3/1 2/4/1 1/1/1
f 3/2/2 5/5/2 6/6/2
f 6/6/2 4/3/2 3/2/2
f 5/5/3 7/7/3 8/8/3
f 8/8/3 6/6/3 5/5/3
f 31/9/4 32/10/4 34/11/4
f 34/11/5 33/12/5 31/9/5
f 11/13/6 12/14/6 14/15/6
f 14/15/7 13/16/7 11/13/7
f 13/16/8 14/15/8 16/17/8
f 16/17/9 15/18/9 13/16/9
f 2/19/10 4/20/10 17/21/10
f 4/20/11 6/22/11 18/23/11
f 18/23/11 17/21/11 4/20/11
f 6/24/12 8/25/12 19/26/12
f 19/26/13 18/27/13 6/24/13
f 46/28/14 51/29/14 50/30/14
f 50/30/15 48/31/15 46/28/15
f 17/32/16 18/27/16 14/33/16
f 14/33/17 12/34/17 17/32/17
f 18/27/18 19/26/18 16/35/18
f 16/35/19 14/33/19 18/27/19
f 8/36/20 7/37/20 20/38/20
f 20/38/20 19/39/20 8/36/20
f 19/40/21 20/41/21 15/18/21
f 15/18/21 16/17/21 19/40/21
f 7/42/22 5/43/22 21/44/22
f 21/44/23 20/45/23 7/42/23
f 5/46/24 3/47/24 22/48/24
f 22/48/24 21/49/24 5/46/24
f 1/50/25 22/48/25 3/47/25
f 15/51/26 21/44/26 13/52/26
f 21/44/27 15/51/27 20/45/27
f 21/44/28 22/53/28 11/54/28
f 11/54/29 13/52/29 21/44/29
f 52/55/30 45/56/30 47/57/30
f 47/57/31 49/58/31 52/55/31
f 32/10/32 31/9/32 35/59/32
f 35/59/33 36/60/33 32/10/33
f 1/1/34 2/4/34 26/61/34
f 26/61/34 25/62/34 1/1/34
f 46/28/35 48/31/35 54/63/35
f 47/57/36 45/56/36 53/64/36
f 25/62/37 26/61/37 30/65/37
f 30/65/37 29/66/37 25/62/37
f 26/67/38 24/68/38 28/69/38
f 28/69/39 30/70/39 26/67/39
f 24/71/40 23/72/40 27/73/40
f 27/73/41 28/74/41 24/71/41
f 23/75/42 25/76/42 29/77/42
f 29/77/43 27/78/43 23/75/43
f 10/79/44 12/80/44 34/81/44
f 34/81/45 32/82/45 10/79/45
f 12/83/46 11/84/46 33/85/46
f 33/85/47 34/86/47 12/83/47
f 11/87/48 9/88/48 31/89/48
f 31/89/49 33/90/49 11/87/49
f 9/88/50 23/91/50 35/92/50
f 35/92/51 31/89/51 9/88/51
f 23/93/52 24/94/52 36/95/52
f 36/95/52 35/96/52 23/93/52
f 24/97/53 10/79/53 32/82/53
f 32/82/54 36/98/54 24/97/54
f 2/99/55 17/100/55 43/101/55
f 43/101/56 38/102/56 2/99/56
f 89/103/57 88/104/57 92/105/57
f 92/105/58 93/106/58 89/103/58
f 12/107/59 10/108/59 40/109/59
f 40/109/60 42/110/60 12/107/60
f 22/111/61 1/112/61 37/113/61
f 37/113/62 44/114/62 22/111/62
f 87/115/63 90/116/63 94/117/63
f 94/117/64 91/118/64 87/115/64
f 9/119/65 11/120/65 41/121/65
f 41/121/66 39/122/66 9/119/66
f 64/123/67 62/124/67 66/125/67
f 63/126/68 65/127/68 61/128/68
f 24/129/69 40/109/69 10/108/69
f 23/130/70 9/119/70 39/122/70
f 104/131/71 101/132/71 105/133/71
f 101/132/72 104/131/72 100/134/72
f 93/106/73 92/105/73 96/135/73
f 96/135/74 97/136/74 93/106/74
f 50/137/75 40/109/75 48/138/75
f 40/109/76 50/137/76 42/110/76
f 102/139/77 99/140/77 103/141/77
f 103/141/78 106/142/78 102/139/78
f 39/122/79 41/121/79 49/143/79
f 49/143/80 47/144/80 39/122/80
f 91/118/81 94/117/81 98/145/81
f 98/145/82 95/146/82 91/118/82
f 48/147/83 24/148/83 54/149/83
f 24/148/84 48/147/84 40/150/84
f 26/151/85 54/149/85 24/148/85
f 54/63/86 26/152/86 46/28/86
f 38/153/87 46/28/87 26/152/87
f 45/56/88 25/154/88 53/64/88
f 25/154/89 45/56/89 37/155/89
f 25/156/90 23/157/90 53/158/90
f 53/159/91 23/160/91 47/161/91
f 39/162/92 47/161/92 23/160/92
f 26/163/93 2/164/93 56/165/93
f 56/165/94 58/166/94 26/163/94
f 55/167/95 25/168/95 57/169/95
f 25/168/96 55/167/96 1/170/96
f 2/171/97 38/172/97 60/173/97
f 60/173/98 56/174/98 2/171/98
f 37/175/99 1/176/99 55/177/99
f 55/177/100 59/178/100 37/175/100
f 60/179/101 26/180/101 58/181/101
f 26/152/102 60/182/102 38/153/102
f 25/154/103 37/155/103 59/183/103
f 59/184/104 57/185/104 25/186/104
f 58/166/105 56/165/105 62/187/105
f 62/187/106 64/188/106 58/166/106
f 60/179/107 58/181/107 64/189/107
f 64/189/108 66/190/108 60/179/108
f 55/167/109 57/169/109 63/191/109
f 63/191/110 61/192/110 55/167/110
f 57/185/111 59/184/111 65/193/111
f 65/193/111 63/194/111 57/185/111
f 66/125/112 62/124/112 72/195/112
f 72/195/113 74/196/113 66/125/113
f 61/128/114 65/127/114 73/197/114
f 73/197/115 71/198/115 61/128/115
f 56/199/116 60/200/116 70/201/116
f 70/201/117 68/202/117 56/199/117
f 59/203/118 55/204/118 67/205/118
f 67/205/119 69/206/119 59/203/119
f 62/187/120 56/165/120 68/207/120
f 68/207/120 72/208/120 62/187/120
f 60/209/121 66/210/121 74/211/121
f 74/211/122 70/212/122 60/209/122
f 55/167/123 61/192/123 71/213/123
f 71/213/124 67/214/124 55/167/124
f 65/215/125 59/216/125 69/217/125
f 69/217/126 73/218/126 65/215/126
f 68/202/127 70/201/127 78/219/127
f 78/219/128 76/220/128 68/202/128
f 70/212/129 74/211/129 82/221/129
f 82/221/130 78/222/130 70/212/130
f 74/196/131 72/195/131 80/223/131
f 80/223/132 82/224/132 74/196/132
f 72/208/133 68/207/133 76/225/133
f 76/225/134 80/226/134 72/208/134
f 69/206/135 67/205/135 75/227/135
f 75/227/136 77/228/136 69/206/136
f 67/214/137 71/213/137 79/229/137
f 79/229/138 75/230/138 67/214/138
f 71/198/139 73/197/139 81/231/139
f 81/231/140 79/232/140 71/198/140
f 73/218/141 69/217/141 77/233/141
f 77/233/142 81/234/142 73/218/142
f 76/220/143 78/219/143 86/235/143
f 86/235/144 84/236/144 76/220/144
f 78/222/145 82/221/145 86/237/145
f 82/238/146 80/239/146 84/240/146
f 84/240/146 86/241/146 82/238/146
f 80/226/147 76/225/147 84/242/147
f 77/228/148 75/227/148 83/243/148
f 83/243/149 85/244/149 77/228/149
f 75/230/150 79/229/150 83/245/150
f 79/246/151 81/247/151 85/248/151
f 85/248/151 83/249/151 79/246/151
f 81/234/152 77/233/152 85/250/152
f 50/30/153 51/29/153 97/251/153
f 97/251/154 96/252/154 50/30/154
f 17/253/155 12/254/155 88/255/155
f 88/255/156 89/256/156 17/253/156
f 11/257/157 22/258/157 90/259/157
f 90/259/158 87/260/158 11/257/158
f 52/55/159 49/58/159 95/261/159
f 95/261/160 98/262/160 52/55/160
f 43/101/161 17/100/161 89/263/161
f 89/263/162 93/264/162 43/101/162
f 12/107/163 42/110/163 92/265/163
f 92/265/164 88/266/164 12/107/164
f 22/111/165 44/114/165 94/267/165
f 94/267/166 90/268/166 22/111/166
f 41/121/167 11/120/167 87/269/167
f 87/269/167 91/270/167 41/121/167
f 51/29/168 43/271/168 93/272/168
f 93/272/169 97/251/169 51/29/169
f 42/110/170 50/137/170 96/273/170
f 96/273/171 92/265/171 42/110/171
f 44/274/172 52/55/172 98/262/172
f 98/262/173 94/275/173 44/274/173
f 49/143/174 41/121/174 91/270/174
f 91/270/175 95/276/175 49/143/175
f 51/277/176 46/278/176 104/131/176
f 104/131/177 105/133/177 51/277/177
f 45/279/178 52/280/178 106/142/178
f 106/142/179 103/141/179 45/279/179
f 38/102/180 43/101/180 101/281/180
f 101/281/181 100/282/181 38/102/181
f 44/114/182 37/113/182 99/283/182
f 99/283/183 102/284/183 44/114/183
f 43/285/184 51/286/184 105/287/184
f 105/287/185 101/288/185 43/285/185
f 104/289/186 38/290/186 100/291/186
f 38/292/187 104/131/187 46/278/187
f 37/293/188 45/294/188 103/295/188
f 103/295/189 99/296/189 37/293/189
f 52/297/190 44/298/190 102/299/190
f 102/299/191 106/300/191 52/297/191
f 30/301/192 28/302/192 108/303/192
f 28/74/193 27/73/193 107/304/193
f 107/304/193 108/305/193 28/74/193
f 29/306/194 107/307/194 27/308/194
f 29/309/195 30/310/195 112/311/195
f 112/311/195 111/312/195 29/309/195
f 30/313/196 108/303/196 110/314/196
f 110/314/197 112/315/197 30/313/197
f 114/316/198 115/317/198 113/318/198
f 107/307/199 29/306/199 111/319/199
f 111/319/200 109/320/200 107/307/200
f 108/321/201 107/322/201 113/323/201
f 115/324/202 108/303/202 113/325/202
f 108/303/203 115/324/203 110/314/203
f 107/307/204 109/320/204 114/326/204
f 114/326/205 113/327/205 107/307/205
f 111/312/206 112/311/206 117/328/206
f 112/315/207 110/314/207 116/329/207
f 116/329/208 117/330/208 112/315/208
f 116/331/209 111/319/209 117/332/209
f 111/319/210 116/331/210 109/320/210
f 115/333/211 114/334/211 118/335/211
f 116/329/212 115/324/212 118/336/212
f 115/324/213 116/329/213 110/314/213
f 114/326/214 109/320/214 116/331/214
f 116/331/215 118/337/215 114/326/215
f 119/338/216 125/339/216 124/340/216
f 119/338/216 120/341/216 125/339/216
f 120/338/217 126/339/217 125/340/217
f 120/338/217 121/341/217 126/339/217
f 121/342/218 127/343/218 126/344/218
f 121/342/218 122/345/218 127/343/218
f 122/346/219 128/347/219 127/348/219
f 122/346/219 123/349/219 128/347/219
f 123/338/220 124/339/220 128/340/220
f 123/338/220 119/341/220 124/339/220
f 124/350/221 125/350/221 126/350/221
f 124/350/221 126/350/221 127/350/221
f 124/350/221 127/350/221 128/350/221
